<svg width="354" height="428" viewBox="0 0 354 428" fill="none" xmlns="http://www.w3.org/2000/svg">
<rect width="157" height="160" rx="18" fill="#3E5902"/>
<path d="M55.233 186.727C55.233 188.28 54.9489 189.616 54.3807 190.733C53.8125 191.846 53.0336 192.703 52.044 193.304C51.0592 193.901 49.9394 194.199 48.6847 194.199C47.4252 194.199 46.3007 193.901 45.3111 193.304C44.3262 192.703 43.5497 191.843 42.9815 190.726C42.4134 189.608 42.1293 188.276 42.1293 186.727C42.1293 185.174 42.4134 183.841 42.9815 182.729C43.5497 181.611 44.3262 180.754 45.3111 180.158C46.3007 179.556 47.4252 179.256 48.6847 179.256C49.9394 179.256 51.0592 179.556 52.044 180.158C53.0336 180.754 53.8125 181.611 54.3807 182.729C54.9489 183.841 55.233 185.174 55.233 186.727ZM53.0597 186.727C53.0597 185.544 52.8679 184.547 52.4844 183.737C52.1056 182.923 51.5848 182.307 50.9219 181.891C50.2637 181.469 49.518 181.259 48.6847 181.259C47.8466 181.259 47.0985 181.469 46.4403 181.891C45.7822 182.307 45.2614 182.923 44.8778 183.737C44.4991 184.547 44.3097 185.544 44.3097 186.727C44.3097 187.911 44.4991 188.91 44.8778 189.724C45.2614 190.534 45.7822 191.15 46.4403 191.571C47.0985 191.988 47.8466 192.196 48.6847 192.196C49.518 192.196 50.2637 191.988 50.9219 191.571C51.5848 191.15 52.1056 190.534 52.4844 189.724C52.8679 188.91 53.0597 187.911 53.0597 186.727ZM57.7987 194V183.091H59.8512V184.824H59.9648C60.1637 184.237 60.5141 183.775 61.016 183.439C61.5226 183.098 62.0955 182.928 62.7347 182.928C62.8673 182.928 63.0236 182.932 63.2035 182.942C63.3881 182.951 63.5326 182.963 63.6367 182.977V185.009C63.5515 184.985 63.4 184.959 63.1822 184.93C62.9644 184.897 62.7466 184.881 62.5288 184.881C62.0269 184.881 61.5794 184.987 61.1864 185.2C60.7982 185.409 60.4904 185.7 60.2631 186.074C60.0359 186.443 59.9222 186.865 59.9222 187.338V194H57.7987ZM69.6577 198.318C68.7912 198.318 68.0455 198.205 67.4205 197.977C66.8002 197.75 66.2936 197.449 65.9006 197.075C65.5076 196.701 65.214 196.292 65.0199 195.847L66.8452 195.094C66.973 195.302 67.1435 195.522 67.3565 195.754C67.5743 195.991 67.8679 196.192 68.2372 196.358C68.6113 196.524 69.0919 196.607 69.679 196.607C70.4839 196.607 71.1491 196.41 71.6747 196.017C72.2003 195.629 72.4631 195.009 72.4631 194.156V192.011H72.3281C72.2003 192.243 72.0156 192.501 71.7741 192.786C71.5374 193.07 71.2107 193.316 70.794 193.524C70.3774 193.732 69.8352 193.837 69.1676 193.837C68.3059 193.837 67.5294 193.635 66.8381 193.233C66.1515 192.826 65.607 192.227 65.2045 191.436C64.8068 190.641 64.608 189.663 64.608 188.503C64.608 187.343 64.8045 186.348 65.1974 185.52C65.5952 184.691 66.1397 184.057 66.831 183.616C67.5223 183.171 68.3059 182.949 69.1818 182.949C69.8589 182.949 70.4058 183.062 70.8224 183.29C71.2391 183.512 71.5634 183.773 71.7955 184.071C72.0322 184.369 72.2145 184.632 72.3423 184.859H72.4986V183.091H74.5795V194.241C74.5795 195.179 74.3617 195.948 73.9261 196.55C73.4905 197.151 72.901 197.596 72.1577 197.885C71.419 198.174 70.5857 198.318 69.6577 198.318ZM69.6364 192.075C70.2472 192.075 70.7633 191.933 71.1847 191.649C71.6108 191.36 71.9328 190.948 72.1506 190.413C72.3731 189.874 72.4844 189.227 72.4844 188.474C72.4844 187.741 72.3755 187.094 72.1577 186.536C71.9399 185.977 71.6203 185.541 71.1989 185.229C70.7775 184.911 70.2566 184.753 69.6364 184.753C68.9972 184.753 68.4645 184.919 68.0384 185.25C67.6122 185.577 67.2902 186.022 67.0724 186.585C66.8594 187.149 66.7528 187.778 66.7528 188.474C66.7528 189.189 66.8617 189.817 67.0795 190.357C67.2973 190.896 67.6193 191.318 68.0455 191.621C68.4763 191.924 69.0066 192.075 69.6364 192.075ZM80.6023 194.241C79.911 194.241 79.286 194.114 78.7273 193.858C78.1686 193.598 77.7259 193.221 77.3991 192.729C77.0772 192.236 76.9162 191.633 76.9162 190.918C76.9162 190.302 77.0346 189.795 77.2713 189.398C77.508 189 77.8277 188.685 78.2301 188.453C78.6326 188.221 79.0824 188.046 79.5795 187.928C80.0767 187.809 80.5833 187.719 81.0994 187.658C81.7528 187.582 82.2831 187.52 82.6903 187.473C83.0975 187.421 83.3935 187.338 83.5781 187.224C83.7628 187.111 83.8551 186.926 83.8551 186.67V186.621C83.8551 186 83.6799 185.52 83.3295 185.179C82.9839 184.838 82.4678 184.668 81.7812 184.668C81.0663 184.668 80.5028 184.826 80.0909 185.143C79.6837 185.456 79.402 185.804 79.2457 186.188L77.25 185.733C77.4867 185.07 77.8324 184.535 78.2869 184.128C78.7462 183.716 79.2741 183.418 79.8707 183.233C80.4673 183.044 81.0947 182.949 81.7528 182.949C82.1884 182.949 82.6501 183.001 83.1378 183.105C83.6302 183.205 84.0895 183.389 84.5156 183.659C84.9465 183.929 85.2992 184.315 85.5739 184.817C85.8485 185.314 85.9858 185.96 85.9858 186.756V194H83.9119V192.509H83.8267C83.6894 192.783 83.4834 193.053 83.2088 193.318C82.9342 193.583 82.5814 193.804 82.1506 193.979C81.7197 194.154 81.2036 194.241 80.6023 194.241ZM81.0639 192.537C81.651 192.537 82.1529 192.421 82.5696 192.189C82.991 191.957 83.3106 191.654 83.5284 191.28C83.7509 190.901 83.8622 190.496 83.8622 190.065V188.659C83.7865 188.735 83.6397 188.806 83.4219 188.872C83.2088 188.934 82.965 188.988 82.6903 189.036C82.4157 189.078 82.1482 189.118 81.8878 189.156C81.6274 189.189 81.4096 189.218 81.2344 189.241C80.8224 189.294 80.446 189.381 80.1051 189.504C79.7689 189.627 79.4991 189.805 79.2955 190.037C79.0966 190.264 78.9972 190.567 78.9972 190.946C78.9972 191.472 79.1913 191.869 79.5795 192.139C79.9678 192.404 80.4626 192.537 81.0639 192.537ZM90.9379 187.523V194H88.8143V183.091H90.8526V184.866H90.9876C91.2385 184.289 91.6315 183.825 92.1665 183.474C92.7063 183.124 93.3858 182.949 94.2049 182.949C94.9483 182.949 95.5993 183.105 96.158 183.418C96.7167 183.725 97.15 184.185 97.4577 184.795C97.7655 185.406 97.9194 186.161 97.9194 187.061V194H95.7958V187.317C95.7958 186.526 95.5898 185.908 95.1779 185.463C94.766 185.013 94.2002 184.788 93.4805 184.788C92.988 184.788 92.5501 184.895 92.1665 185.108C91.7878 185.321 91.4871 185.634 91.2646 186.045C91.0468 186.453 90.9379 186.945 90.9379 187.523ZM100.767 194V183.091H102.891V194H100.767ZM101.84 181.408C101.471 181.408 101.153 181.285 100.888 181.038C100.628 180.787 100.498 180.489 100.498 180.143C100.498 179.793 100.628 179.495 100.888 179.249C101.153 178.998 101.471 178.872 101.84 178.872C102.209 178.872 102.524 178.998 102.784 179.249C103.05 179.495 103.182 179.793 103.182 180.143C103.182 180.489 103.05 180.787 102.784 181.038C102.524 181.285 102.209 181.408 101.84 181.408ZM110.343 194.22C109.287 194.22 108.378 193.981 107.616 193.503C106.858 193.02 106.276 192.355 105.869 191.507C105.461 190.66 105.258 189.689 105.258 188.595C105.258 187.487 105.466 186.509 105.883 185.662C106.299 184.81 106.887 184.144 107.644 183.666C108.402 183.188 109.294 182.949 110.322 182.949C111.15 182.949 111.889 183.103 112.538 183.411C113.186 183.714 113.71 184.14 114.107 184.689C114.51 185.238 114.749 185.88 114.825 186.614H112.758C112.644 186.102 112.384 185.662 111.977 185.293C111.574 184.923 111.034 184.739 110.357 184.739C109.765 184.739 109.247 184.895 108.802 185.207C108.362 185.515 108.018 185.955 107.772 186.528C107.526 187.097 107.403 187.769 107.403 188.545C107.403 189.341 107.523 190.027 107.765 190.605C108.006 191.183 108.347 191.63 108.788 191.947C109.233 192.265 109.756 192.423 110.357 192.423C110.76 192.423 111.124 192.35 111.451 192.203C111.782 192.052 112.059 191.836 112.282 191.557C112.509 191.277 112.668 190.941 112.758 190.548H114.825C114.749 191.254 114.519 191.884 114.136 192.438C113.752 192.991 113.238 193.427 112.594 193.744C111.955 194.062 111.205 194.22 110.343 194.22Z" fill="#070707"/>
<path d="M97.018 58.327H56.425V65.462H97.018V58.327Z" fill="white"/>
<path d="M104.146 102.494H85.3V104.838C85.3 106.416 85.927 107.93 87.043 109.046C88.159 110.162 89.6727 110.789 91.251 110.789L92.069 110.489C93.7806 109.852 95.6643 109.852 97.376 110.489L98.194 110.789C99.7723 110.789 101.286 110.162 102.402 109.046C103.518 107.93 104.145 106.416 104.145 104.838L104.146 102.494Z" fill="white"/>
<path d="M89.817 100.494H99.631C99.0438 98.5935 99.0582 96.5581 99.672 94.666H89.772C90.3866 96.5577 90.4023 98.593 89.817 100.494Z" fill="white"/>
<path d="M98.2 84.37L97.382 84.67C96.8468 84.8651 96.2913 84.9993 95.726 85.07L95.72 85.014C95.6177 83.8201 95.8903 82.6241 96.4997 81.5924C97.1091 80.5607 98.025 79.7447 99.12 79.258L98.253 77.458C96.8126 78.1157 95.6068 79.1967 94.7963 80.557C93.9857 81.9172 93.6089 83.4922 93.716 85.072C93.1555 85.0002 92.6047 84.866 92.074 84.672L91.256 84.372C90.4743 84.3715 89.7001 84.5249 88.9777 84.8236C88.2553 85.1223 87.5988 85.5604 87.0458 86.1128C86.4927 86.6653 86.0538 87.3212 85.7543 88.0433C85.4548 88.7653 85.3004 89.5393 85.3 90.321V92.666H104.146V90.321C104.146 88.7436 103.52 87.2307 102.405 86.1148C101.29 84.9989 99.7774 84.3713 98.2 84.37Z" fill="white"/>
<path d="M58.72 67.462V105.379C58.7198 105.739 58.7905 106.095 58.928 106.427C59.0655 106.759 59.2671 107.061 59.5213 107.315C59.7754 107.569 60.0772 107.771 60.4093 107.909C60.7415 108.046 61.0975 108.117 61.457 108.117H84.017C83.5459 107.088 83.3017 105.97 83.301 104.838V100.494H87.727L87.902 99.914C88.374 98.3995 88.3618 96.7753 87.867 95.268L87.677 94.668H83.3V90.321C83.3004 88.7039 83.7971 87.1259 84.723 85.8V75.61H86.723V83.8C88.0508 82.8719 89.6319 82.3744 91.252 82.375H91.612L91.925 82.491C92.3422 80.5884 93.3171 78.8532 94.725 77.507V67.462H58.72ZM68.72 95.748H66.72V75.61H68.72V95.748ZM77.72 95.748H75.72V75.61H77.72V95.748Z" fill="white"/>
<path d="M86.434 56.3269V53.6689C86.434 53.2642 86.2732 52.8761 85.9871 52.5899C85.7009 52.3037 85.3127 52.1429 84.908 52.1429H68.536C68.1313 52.1429 67.7431 52.3037 67.457 52.5899C67.1708 52.8761 67.01 53.2642 67.01 53.6689V56.3269H86.434Z" fill="white"/>
<rect y="224" width="157" height="160" rx="18" fill="#92B158"/>
<path d="M55.233 410.727C55.233 412.28 54.9489 413.616 54.3807 414.733C53.8125 415.846 53.0336 416.703 52.044 417.304C51.0592 417.901 49.9394 418.199 48.6847 418.199C47.4252 418.199 46.3007 417.901 45.3111 417.304C44.3262 416.703 43.5497 415.843 42.9815 414.726C42.4134 413.608 42.1293 412.276 42.1293 410.727C42.1293 409.174 42.4134 407.841 42.9815 406.729C43.5497 405.611 44.3262 404.754 45.3111 404.158C46.3007 403.556 47.4252 403.256 48.6847 403.256C49.9394 403.256 51.0592 403.556 52.044 404.158C53.0336 404.754 53.8125 405.611 54.3807 406.729C54.9489 407.841 55.233 409.174 55.233 410.727ZM53.0597 410.727C53.0597 409.544 52.8679 408.547 52.4844 407.737C52.1056 406.923 51.5848 406.307 50.9219 405.891C50.2637 405.469 49.518 405.259 48.6847 405.259C47.8466 405.259 47.0985 405.469 46.4403 405.891C45.7822 406.307 45.2614 406.923 44.8778 407.737C44.4991 408.547 44.3097 409.544 44.3097 410.727C44.3097 411.911 44.4991 412.91 44.8778 413.724C45.2614 414.534 45.7822 415.15 46.4403 415.571C47.0985 415.988 47.8466 416.196 48.6847 416.196C49.518 416.196 50.2637 415.988 50.9219 415.571C51.5848 415.15 52.1056 414.534 52.4844 413.724C52.8679 412.91 53.0597 411.911 53.0597 410.727ZM57.7987 418V407.091H59.8512V408.824H59.9648C60.1637 408.237 60.5141 407.775 61.016 407.439C61.5226 407.098 62.0955 406.928 62.7347 406.928C62.8673 406.928 63.0236 406.932 63.2035 406.942C63.3881 406.951 63.5326 406.963 63.6367 406.977V409.009C63.5515 408.985 63.4 408.959 63.1822 408.93C62.9644 408.897 62.7466 408.881 62.5288 408.881C62.0269 408.881 61.5794 408.987 61.1864 409.2C60.7982 409.409 60.4904 409.7 60.2631 410.074C60.0359 410.443 59.9222 410.865 59.9222 411.338V418H57.7987ZM69.6577 422.318C68.7912 422.318 68.0455 422.205 67.4205 421.977C66.8002 421.75 66.2936 421.449 65.9006 421.075C65.5076 420.701 65.214 420.292 65.0199 419.847L66.8452 419.094C66.973 419.302 67.1435 419.522 67.3565 419.754C67.5743 419.991 67.8679 420.192 68.2372 420.358C68.6113 420.524 69.0919 420.607 69.679 420.607C70.4839 420.607 71.1491 420.41 71.6747 420.017C72.2003 419.629 72.4631 419.009 72.4631 418.156V416.011H72.3281C72.2003 416.243 72.0156 416.501 71.7741 416.786C71.5374 417.07 71.2107 417.316 70.794 417.524C70.3774 417.732 69.8352 417.837 69.1676 417.837C68.3059 417.837 67.5294 417.635 66.8381 417.233C66.1515 416.826 65.607 416.227 65.2045 415.436C64.8068 414.641 64.608 413.663 64.608 412.503C64.608 411.343 64.8045 410.348 65.1974 409.52C65.5952 408.691 66.1397 408.057 66.831 407.616C67.5223 407.171 68.3059 406.949 69.1818 406.949C69.8589 406.949 70.4058 407.062 70.8224 407.29C71.2391 407.512 71.5634 407.773 71.7955 408.071C72.0322 408.369 72.2145 408.632 72.3423 408.859H72.4986V407.091H74.5795V418.241C74.5795 419.179 74.3617 419.948 73.9261 420.55C73.4905 421.151 72.901 421.596 72.1577 421.885C71.419 422.174 70.5857 422.318 69.6577 422.318ZM69.6364 416.075C70.2472 416.075 70.7633 415.933 71.1847 415.649C71.6108 415.36 71.9328 414.948 72.1506 414.413C72.3731 413.874 72.4844 413.227 72.4844 412.474C72.4844 411.741 72.3755 411.094 72.1577 410.536C71.9399 409.977 71.6203 409.541 71.1989 409.229C70.7775 408.911 70.2566 408.753 69.6364 408.753C68.9972 408.753 68.4645 408.919 68.0384 409.25C67.6122 409.577 67.2902 410.022 67.0724 410.585C66.8594 411.149 66.7528 411.778 66.7528 412.474C66.7528 413.189 66.8617 413.817 67.0795 414.357C67.2973 414.896 67.6193 415.318 68.0455 415.621C68.4763 415.924 69.0066 416.075 69.6364 416.075ZM80.6023 418.241C79.911 418.241 79.286 418.114 78.7273 417.858C78.1686 417.598 77.7259 417.221 77.3991 416.729C77.0772 416.236 76.9162 415.633 76.9162 414.918C76.9162 414.302 77.0346 413.795 77.2713 413.398C77.508 413 77.8277 412.685 78.2301 412.453C78.6326 412.221 79.0824 412.046 79.5795 411.928C80.0767 411.809 80.5833 411.719 81.0994 411.658C81.7528 411.582 82.2831 411.52 82.6903 411.473C83.0975 411.421 83.3935 411.338 83.5781 411.224C83.7628 411.111 83.8551 410.926 83.8551 410.67V410.621C83.8551 410 83.6799 409.52 83.3295 409.179C82.9839 408.838 82.4678 408.668 81.7812 408.668C81.0663 408.668 80.5028 408.826 80.0909 409.143C79.6837 409.456 79.402 409.804 79.2457 410.188L77.25 409.733C77.4867 409.07 77.8324 408.535 78.2869 408.128C78.7462 407.716 79.2741 407.418 79.8707 407.233C80.4673 407.044 81.0947 406.949 81.7528 406.949C82.1884 406.949 82.6501 407.001 83.1378 407.105C83.6302 407.205 84.0895 407.389 84.5156 407.659C84.9465 407.929 85.2992 408.315 85.5739 408.817C85.8485 409.314 85.9858 409.96 85.9858 410.756V418H83.9119V416.509H83.8267C83.6894 416.783 83.4834 417.053 83.2088 417.318C82.9342 417.583 82.5814 417.804 82.1506 417.979C81.7197 418.154 81.2036 418.241 80.6023 418.241ZM81.0639 416.537C81.651 416.537 82.1529 416.421 82.5696 416.189C82.991 415.957 83.3106 415.654 83.5284 415.28C83.7509 414.901 83.8622 414.496 83.8622 414.065V412.659C83.7865 412.735 83.6397 412.806 83.4219 412.872C83.2088 412.934 82.965 412.988 82.6903 413.036C82.4157 413.078 82.1482 413.118 81.8878 413.156C81.6274 413.189 81.4096 413.218 81.2344 413.241C80.8224 413.294 80.446 413.381 80.1051 413.504C79.7689 413.627 79.4991 413.805 79.2955 414.037C79.0966 414.264 78.9972 414.567 78.9972 414.946C78.9972 415.472 79.1913 415.869 79.5795 416.139C79.9678 416.404 80.4626 416.537 81.0639 416.537ZM90.9379 411.523V418H88.8143V407.091H90.8526V408.866H90.9876C91.2385 408.289 91.6315 407.825 92.1665 407.474C92.7063 407.124 93.3858 406.949 94.2049 406.949C94.9483 406.949 95.5993 407.105 96.158 407.418C96.7167 407.725 97.15 408.185 97.4577 408.795C97.7655 409.406 97.9194 410.161 97.9194 411.061V418H95.7958V411.317C95.7958 410.526 95.5898 409.908 95.1779 409.463C94.766 409.013 94.2002 408.788 93.4805 408.788C92.988 408.788 92.5501 408.895 92.1665 409.108C91.7878 409.321 91.4871 409.634 91.2646 410.045C91.0468 410.453 90.9379 410.945 90.9379 411.523ZM100.767 418V407.091H102.891V418H100.767ZM101.84 405.408C101.471 405.408 101.153 405.285 100.888 405.038C100.628 404.787 100.498 404.489 100.498 404.143C100.498 403.793 100.628 403.495 100.888 403.249C101.153 402.998 101.471 402.872 101.84 402.872C102.209 402.872 102.524 402.998 102.784 403.249C103.05 403.495 103.182 403.793 103.182 404.143C103.182 404.489 103.05 404.787 102.784 405.038C102.524 405.285 102.209 405.408 101.84 405.408ZM110.343 418.22C109.287 418.22 108.378 417.981 107.616 417.503C106.858 417.02 106.276 416.355 105.869 415.507C105.461 414.66 105.258 413.689 105.258 412.595C105.258 411.487 105.466 410.509 105.883 409.662C106.299 408.81 106.887 408.144 107.644 407.666C108.402 407.188 109.294 406.949 110.322 406.949C111.15 406.949 111.889 407.103 112.538 407.411C113.186 407.714 113.71 408.14 114.107 408.689C114.51 409.238 114.749 409.88 114.825 410.614H112.758C112.644 410.102 112.384 409.662 111.977 409.293C111.574 408.923 111.034 408.739 110.357 408.739C109.765 408.739 109.247 408.895 108.802 409.207C108.362 409.515 108.018 409.955 107.772 410.528C107.526 411.097 107.403 411.769 107.403 412.545C107.403 413.341 107.523 414.027 107.765 414.605C108.006 415.183 108.347 415.63 108.788 415.947C109.233 416.265 109.756 416.423 110.357 416.423C110.76 416.423 111.124 416.35 111.451 416.203C111.782 416.052 112.059 415.836 112.282 415.557C112.509 415.277 112.668 414.941 112.758 414.548H114.825C114.749 415.254 114.519 415.884 114.136 416.438C113.752 416.991 113.238 417.427 112.594 417.744C111.955 418.062 111.205 418.22 110.343 418.22Z" fill="black"/>
<path d="M97.018 282.327H56.425V289.462H97.018V282.327Z" fill="white"/>
<path d="M104.146 326.494H85.3V328.838C85.3 330.416 85.927 331.93 87.043 333.046C88.159 334.162 89.6727 334.789 91.251 334.789L92.069 334.489C93.7806 333.852 95.6643 333.852 97.376 334.489L98.194 334.789C99.7723 334.789 101.286 334.162 102.402 333.046C103.518 331.93 104.145 330.416 104.145 328.838L104.146 326.494Z" fill="white"/>
<path d="M89.817 324.494H99.631C99.0438 322.594 99.0582 320.558 99.672 318.666H89.772C90.3866 320.558 90.4023 322.593 89.817 324.494Z" fill="white"/>
<path d="M98.2 308.37L97.382 308.67C96.8468 308.865 96.2913 308.999 95.726 309.07L95.72 309.014C95.6177 307.82 95.8903 306.624 96.4997 305.592C97.1091 304.561 98.025 303.745 99.12 303.258L98.253 301.458C96.8126 302.116 95.6068 303.197 94.7963 304.557C93.9857 305.917 93.6089 307.492 93.716 309.072C93.1555 309 92.6047 308.866 92.074 308.672L91.256 308.372C90.4743 308.371 89.7001 308.525 88.9777 308.824C88.2553 309.122 87.5988 309.56 87.0458 310.113C86.4927 310.665 86.0538 311.321 85.7543 312.043C85.4548 312.765 85.3004 313.539 85.3 314.321V316.666H104.146V314.321C104.146 312.744 103.52 311.231 102.405 310.115C101.29 308.999 99.7774 308.371 98.2 308.37Z" fill="white"/>
<path d="M58.72 291.462V329.379C58.7198 329.739 58.7905 330.095 58.928 330.427C59.0655 330.759 59.2671 331.061 59.5213 331.315C59.7754 331.569 60.0772 331.771 60.4093 331.909C60.7415 332.046 61.0975 332.117 61.457 332.117H84.017C83.5459 331.088 83.3017 329.97 83.301 328.838V324.494H87.727L87.902 323.914C88.374 322.399 88.3618 320.775 87.867 319.268L87.677 318.668H83.3V314.321C83.3004 312.704 83.7971 311.126 84.723 309.8V299.61H86.723V307.8C88.0508 306.872 89.6319 306.374 91.252 306.375H91.612L91.925 306.491C92.3422 304.588 93.3171 302.853 94.725 301.507V291.462H58.72ZM68.72 319.748H66.72V299.61H68.72V319.748ZM77.72 319.748H75.72V299.61H77.72V319.748Z" fill="white"/>
<path d="M86.434 280.327V277.669C86.434 277.264 86.2732 276.876 85.9871 276.59C85.7009 276.304 85.3127 276.143 84.908 276.143H68.536C68.1313 276.143 67.7431 276.304 67.457 276.59C67.1708 276.876 67.01 277.264 67.01 277.669V280.327H86.434Z" fill="white"/>
<rect x="197" width="157" height="160" rx="18" fill="#3E5902"/>
<rect x="197" y="224" width="157" height="160" rx="18" fill="#92B158"/>
</svg>
