<svg width="368" height="201" viewBox="0 0 368 201" fill="none" xmlns="http://www.w3.org/2000/svg">
<path d="M221 43.0162H184.998V80.545H221V43.0162Z" fill="#E0E0E0"/>
<path d="M218.561 43.0162H182.559V80.545H218.561V43.0162Z" fill="#FAFAFA"/>
<path d="M218.571 80.5554H182.549V43.0266H218.571V80.5554ZM182.569 80.5554H218.535V43.0266H182.569V80.5554Z" fill="#E0E0E0"/>
<path d="M213.724 48.0565H187.401V75.4942H213.724V48.0565Z" fill="white"/>
<path d="M215.699 72.8236C215.403 73.2632 215.056 73.6658 214.665 74.0227C213.995 74.7255 213.061 75.6765 212.011 76.7102C210.96 77.7438 209.993 78.67 209.282 79.3233C208.924 79.7077 208.518 80.0441 208.074 80.3239C208.372 79.8912 208.716 79.492 209.1 79.1331C209.77 78.4302 210.704 77.4792 211.762 76.4373C212.821 75.3954 213.78 74.4775 214.491 73.8242C214.853 73.4443 215.258 73.1085 215.699 72.8236Z" fill="#E0E0E0"/>
<path d="M257.459 72.7161C257.897 73.0099 258.299 73.354 258.658 73.7415C259.361 74.4113 260.312 75.3457 261.345 76.3959C262.379 77.4461 263.305 78.4136 263.958 79.1248C264.336 79.4909 264.674 79.8955 264.967 80.3321C264.524 80.0449 264.121 79.7001 263.768 79.3067C263.065 78.6451 262.114 77.7024 261.072 76.6522C260.03 75.602 259.112 74.6263 258.459 73.9151C258.079 73.5572 257.743 73.1546 257.459 72.7161Z" fill="#E0E0E0"/>
<path d="M213.656 48.1347C213.841 47.8615 214.058 47.6113 214.302 47.3893C214.719 46.9463 215.313 46.3468 215.975 45.6901C216.637 45.0333 217.242 44.46 217.695 44.043C217.921 43.8007 218.177 43.5886 218.456 43.4123C218.273 43.6806 218.062 43.9287 217.826 44.1524C217.404 44.5955 216.783 45.1949 216.147 45.8517C215.511 46.5084 214.87 47.087 214.422 47.504C214.191 47.7426 213.934 47.9542 213.656 48.1347Z" fill="#E0E0E0"/>
<path d="M187.328 48.1972C187.043 48.0155 186.782 47.7983 186.552 47.5508C186.109 47.1286 185.509 46.5396 184.858 45.8777C184.206 45.2157 183.622 44.6059 183.211 44.1576C182.971 43.9282 182.758 43.673 182.575 43.3966C182.85 43.5808 183.102 43.7978 183.325 44.0429C183.774 44.4651 184.368 45.0541 185.03 45.7213C185.692 46.3885 186.265 46.9931 186.677 47.4414C186.924 47.6657 187.143 47.9196 187.328 48.1972Z" fill="#E0E0E0"/>
<path d="M213.656 75.4994C213.656 75.4994 213.656 75.4525 213.656 75.3639C213.656 75.2753 213.656 75.145 213.656 74.9834C213.656 74.6394 213.656 74.1442 213.656 73.5031C213.656 72.2 213.656 70.308 213.624 67.9103C213.624 63.1045 213.598 56.2555 213.578 48.0565L213.677 48.1607H187.427L187.542 48.0409C187.542 58.1163 187.542 67.535 187.542 75.4838L187.443 75.3848L206.447 75.4317H211.79H213.202H213.567C213.609 75.4263 213.651 75.4263 213.692 75.4317H213.223H211.826H206.515L187.443 75.4838H187.344V75.3848C187.344 67.436 187.344 58.0173 187.344 47.9418V47.8271H187.464H213.713H213.817V47.9262C213.817 56.1512 213.781 63.042 213.77 67.8425C213.77 70.235 213.77 72.1166 213.739 73.4145C213.739 74.0452 213.739 74.5352 213.739 74.874C213.739 75.0303 213.739 75.1554 213.739 75.244C213.722 75.3322 213.694 75.4179 213.656 75.4994Z" fill="#E0E0E0"/>
<path d="M204.951 57.3865H196.168V66.1693H204.951V57.3865Z" fill="#EBEBEB"/>
<path d="M221 0.784424H184.998V38.3132H221V0.784424Z" fill="#E0E0E0"/>
<path d="M218.561 0.784424H182.559V38.3132H218.561V0.784424Z" fill="#FAFAFA"/>
<path d="M218.571 38.3237H182.549V0.794861H218.571V38.3237ZM182.569 38.3237H218.535V0.794861H182.569V38.3237Z" fill="#E0E0E0"/>
<path d="M213.724 5.82996H187.401V33.2677H213.724V5.82996Z" fill="white"/>
<path d="M187.401 33.471C187.215 33.7481 186.996 34.0019 186.75 34.2268C186.328 34.6698 185.739 35.2693 185.077 35.9208C184.415 36.5723 183.805 37.1561 183.357 37.5679C183.129 37.8088 182.873 38.0222 182.596 38.2038C182.782 37.9287 182.999 37.6752 183.242 37.448C183.664 37.005 184.253 36.4056 184.92 35.7488C185.587 35.092 186.192 34.5135 186.64 34.1017C186.868 33.8623 187.124 33.6506 187.401 33.471Z" fill="#E0E0E0"/>
<path d="M213.724 33.3824C214.001 33.5685 214.254 33.7873 214.479 34.0339C214.922 34.4509 215.522 35.0451 216.173 35.7071C216.825 36.369 217.409 36.9789 217.821 37.4272C218.061 37.6552 218.275 37.9106 218.456 38.1882C218.18 38.003 217.926 37.786 217.701 37.5418C217.258 37.1196 216.658 36.5254 216.001 35.8635C215.345 35.2015 214.766 34.5916 214.354 34.1382C214.114 33.9126 213.903 33.6588 213.724 33.3824Z" fill="#E0E0E0"/>
<path d="M213.656 5.90297C213.842 5.62587 214.061 5.37212 214.307 5.14718C214.724 4.70413 215.319 4.10471 215.981 3.44795C216.643 2.7912 217.247 2.21785 217.701 1.80607C217.929 1.56522 218.184 1.35181 218.462 1.17017C218.275 1.44411 218.059 1.69593 217.815 1.92074C217.393 2.369 216.773 2.96321 216.137 3.61996C215.501 4.27672 214.86 4.8605 214.412 5.27227C214.186 5.51219 213.932 5.72396 213.656 5.90297Z" fill="#E0E0E0"/>
<path d="M187.328 5.97073C187.044 5.78756 186.783 5.57053 186.552 5.3244C186.109 4.9022 185.509 4.3132 184.858 3.65123C184.206 2.98927 183.622 2.37943 183.211 1.93117C182.97 1.7031 182.756 1.4477 182.575 1.17017C182.85 1.35434 183.102 1.57138 183.325 1.8165C183.774 2.2387 184.368 2.82769 185.03 3.49487C185.692 4.16205 186.265 4.76667 186.677 5.21494C186.923 5.44009 187.142 5.69381 187.328 5.97073Z" fill="#E0E0E0"/>
<path d="M213.656 33.2677C213.656 33.2677 213.656 33.2208 213.656 33.1322C213.656 33.0436 213.656 32.9133 213.656 32.7517C213.656 32.4077 213.656 31.9125 213.656 31.2714C213.656 29.9683 213.656 28.0815 213.625 25.6786C213.625 20.8728 213.599 14.0238 213.578 5.82999L213.677 5.92903H187.427L187.542 5.81435C187.542 15.8846 187.542 25.3085 187.542 33.2521L187.443 33.1531L206.447 33.2052H211.79H213.202H211.806H206.494L187.422 33.2573H187.323V33.1583C187.323 25.2147 187.323 15.7908 187.323 5.72053V5.60065H187.443H213.692H213.797V5.70489C213.797 13.93 213.76 20.7946 213.75 25.616C213.75 28.0085 213.75 29.8953 213.719 31.188C213.719 31.8239 213.719 32.3087 213.719 32.6475C213.719 32.809 213.719 32.9289 213.719 33.0227C213.708 33.1068 213.687 33.1892 213.656 33.2677Z" fill="#E0E0E0"/>
<path d="M204.951 15.1548H196.168V23.9376H204.951V15.1548Z" fill="#EBEBEB"/>
<path d="M118.331 22.8562H89.9338V52.4623H118.331V22.8562Z" fill="#E0E0E0"/>
<path d="M116.407 22.8562H88.0105V52.4623H116.407V22.8562Z" fill="#FAFAFA"/>
<path d="M116.433 52.4832H88V22.8458H116.433V52.4832ZM88.0313 52.4832H116.397V22.8615H88.0156L88.0313 52.4832Z" fill="#E0E0E0"/>
<path d="M112.592 26.8333H91.8258V48.4801H112.592V26.8333Z" fill="white"/>
<path d="M91.8259 48.6208C91.6763 48.8403 91.5013 49.0415 91.3047 49.2202C90.9711 49.5694 90.5072 50.0438 89.986 50.5546C89.4647 51.0654 88.98 51.5293 88.6255 51.8576C88.4478 52.0478 88.2464 52.2142 88.0261 52.3528C88.1774 52.1377 88.3522 51.9402 88.5474 51.7638C88.8809 51.4094 89.3292 50.9194 89.8504 50.3982C90.3717 49.877 90.8564 49.4235 91.2056 49.1003C91.3933 48.9172 91.6015 48.7563 91.8259 48.6208Z" fill="#E0E0E0"/>
<path d="M112.592 48.5687C112.808 48.7204 113.007 48.8951 113.186 49.0899C113.535 49.4183 114.01 49.8874 114.526 50.4086C115.042 50.9299 115.495 51.4094 115.823 51.7638C116.018 51.9446 116.193 52.1455 116.345 52.3632C116.124 52.2168 115.924 52.0415 115.75 51.842C115.401 51.5136 114.927 51.0445 114.411 50.5233C113.895 50.0021 113.436 49.5173 113.108 49.1629C112.912 48.9867 112.739 48.7871 112.592 48.5687Z" fill="#E0E0E0"/>
<path d="M112.535 26.8906C112.687 26.6747 112.862 26.4755 113.056 26.2964C113.389 25.9471 113.853 25.4728 114.375 24.9568C114.896 24.4408 115.38 23.9873 115.735 23.6589C115.914 23.463 116.115 23.2881 116.334 23.1377C116.186 23.3565 116.011 23.5561 115.813 23.7319C115.48 24.0811 115.016 24.5555 114.489 25.0715C113.963 25.5875 113.483 26.0462 113.129 26.3746C112.953 26.5709 112.754 26.7443 112.535 26.8906Z" fill="#E0E0E0"/>
<path d="M91.7685 26.9427C91.5508 26.7927 91.3514 26.6177 91.1743 26.4215C90.8251 26.0931 90.3508 25.624 89.8347 25.1028C89.3187 24.5815 88.8652 24.102 88.5369 23.7475C88.3424 23.5668 88.1676 23.3658 88.0156 23.1481C88.2356 23.2952 88.4354 23.4704 88.6098 23.6694C88.9591 24.003 89.4334 24.4721 89.9494 24.9933C90.4654 25.5145 90.9241 25.9993 91.2525 26.3537C91.4493 26.5269 91.6227 26.7249 91.7685 26.9427Z" fill="#E0E0E0"/>
<path d="M112.535 48.48C112.532 48.4453 112.532 48.4105 112.535 48.3757C112.535 48.2976 112.535 48.1985 112.535 48.0734C112.535 47.8024 112.535 47.4115 112.535 46.9059C112.535 45.8634 112.535 44.3883 112.535 42.491C112.535 38.7016 112.535 33.3017 112.493 26.854L112.576 26.9374L91.8311 26.9426L91.925 26.8488C91.925 34.7924 91.925 42.2252 91.925 48.4956L91.8468 48.4175L106.843 48.4539H111.054H112.164H111.065H106.895L91.852 48.4956H91.7738V48.4175C91.7738 42.1627 91.7738 34.7142 91.7738 26.7706V26.682H91.8728H112.576H112.654V26.7602C112.654 33.2495 112.623 38.6652 112.613 42.4702C112.613 44.357 112.613 45.8426 112.613 46.8642C112.613 47.3854 112.613 47.7503 112.613 48.0161C112.613 48.1412 112.613 48.2402 112.613 48.308C112.613 48.3757 112.535 48.48 112.535 48.48Z" fill="#E0E0E0"/>
<path d="M105.67 34.1931H98.7427V41.1203H105.67V34.1931Z" fill="#EBEBEB"/>
<path d="M352.693 28.1323C343.837 32.7218 337.048 40.619 332.169 49.31C327.29 58.001 324.14 67.5024 321.022 77.0204L318.293 125.875C328.597 108.344 336.866 87.7374 339.099 67.5272L332.244 66.9236C336.841 66.2207 340.703 62.8882 343.159 58.9354C345.615 54.9827 346.872 50.4346 348.121 45.9527L339.76 47.1931C346.358 42.7351 350.989 35.9104 352.693 28.1323Z" fill="#E0E0E0"/>
<path d="M316.73 137.32C316.73 137.32 294.362 110.552 294.627 85.0002H303.657C303.657 85.0002 293.841 78.5502 294.618 74.9365C295.396 71.3228 295.635 57.6371 295.635 57.6371L303.905 59.7044C303.905 59.7044 297.711 56.6117 296.934 51.7081C296.156 46.8044 298.745 24.0886 298.745 24.0886C298.745 24.0886 308.808 34.6733 311.909 45.5061C315.01 56.3389 323.139 68.9661 320.758 102.043C318.376 135.12 316.73 137.32 316.73 137.32Z" fill="#EBEBEB"/>
<path d="M328.068 139.842C328.068 139.842 352.288 123.7 357.672 103.102L350.411 101.125C350.411 101.125 359.714 98.0905 359.88 95.0143C360.045 91.9381 362.832 80.8821 362.832 80.8821L355.737 80.7333C355.737 80.7333 361.393 79.6003 363.096 75.8295C364.8 72.0588 367.686 53.2544 367.686 53.2544C367.686 53.2544 357.275 59.5639 352.412 67.6016C347.55 75.6394 338.247 84.0244 332.938 111.106C327.629 138.188 328.068 139.842 328.068 139.842Z" fill="#EBEBEB"/>
<path d="M304.864 47.4659C304.899 47.5565 304.924 47.6509 304.938 47.7471L305.137 48.574C305.302 49.3265 305.542 50.3933 305.848 51.7494C306.154 53.1056 306.518 54.8173 306.915 56.7937C307.312 58.7701 307.742 60.9945 308.23 63.4836C309.189 68.4451 310.198 74.3825 311.24 80.9814C312.282 87.5803 313.249 94.8655 314.15 102.482C315.052 110.098 315.705 117.465 316.226 124.131C316.747 130.796 317.136 136.774 317.293 141.843C317.417 144.365 317.475 146.656 317.533 148.657C317.59 150.658 317.64 152.395 317.648 153.809C317.657 155.223 317.648 156.29 317.648 157.059V157.886C317.661 157.982 317.661 158.079 317.648 158.175C317.638 158.079 317.638 157.982 317.648 157.886C317.648 157.671 317.648 157.39 317.607 157.059C317.607 156.282 317.541 155.198 317.491 153.801C317.442 152.403 317.392 150.667 317.301 148.657C317.21 146.648 317.144 144.374 316.995 141.852C316.755 136.807 316.358 130.804 315.846 124.147C315.333 117.49 314.605 110.172 313.729 102.515C312.852 94.8573 311.835 87.5885 310.851 81.0145C309.867 74.4404 308.858 68.4782 307.932 63.5166C307.502 61.0359 307.055 58.7866 306.683 56.8102C306.311 54.8339 305.98 53.1469 305.691 51.7577C305.402 50.3685 305.211 49.3265 305.062 48.5657C304.996 48.2184 304.947 47.9456 304.905 47.7388C304.88 47.65 304.866 47.5583 304.864 47.4659Z" fill="#E0E0E0"/>
<path d="M313.629 153.71C313.629 153.71 293.155 130.49 286.804 116.448L291.6 114.406C288.127 114.976 284.563 113.48 281.867 111.214C279.171 108.948 277.195 105.955 275.252 103.019L281.569 101.952C275.77 100.301 270.826 96.4853 267.76 91.2932C275.202 92.5253 281.966 96.6186 287.523 101.737C291.942 105.976 295.951 110.622 299.497 115.613C301.287 118.01 302.845 120.572 304.153 123.262C307.593 130.324 313.638 145.184 313.629 153.71Z" fill="#EBEBEB"/>
<path d="M357.994 66.7416C357.976 66.8255 357.945 66.9063 357.903 66.9814L357.589 67.6595L356.34 70.2312C355.249 72.4639 353.694 75.7055 351.817 79.7326C349.94 83.7598 347.757 88.5725 345.425 93.9641C343.093 99.3557 340.645 105.334 338.198 111.652C335.75 117.97 333.567 124.056 331.648 129.596C329.73 135.137 328.109 140.189 326.794 144.432C325.479 148.674 324.446 152.114 323.759 154.504C323.412 155.67 323.139 156.596 322.932 157.249L322.709 157.96C322.689 158.044 322.659 158.124 322.618 158.2C322.623 158.113 322.639 158.026 322.668 157.944C322.717 157.762 322.775 157.522 322.85 157.224C323.023 156.563 323.271 155.636 323.586 154.462C324.222 152.056 325.24 148.599 326.488 144.341C327.737 140.082 329.374 135.038 331.251 129.456C333.128 123.874 335.328 117.821 337.809 111.495C340.29 105.169 342.77 99.1986 345.078 93.807C347.385 88.4154 349.634 83.6109 351.552 79.6003C353.471 75.5897 355.067 72.3647 356.208 70.1568L357.531 67.6181C357.672 67.3452 357.787 67.1302 357.878 66.9648C357.969 66.7995 357.994 66.7416 357.994 66.7416Z" fill="#E0E0E0"/>
<path d="M315.358 163.658C315.314 163.52 315.281 163.379 315.258 163.236C315.209 162.905 315.143 162.492 315.06 162.004C314.903 160.929 314.638 159.382 314.233 157.48C313.828 155.579 313.332 153.346 312.662 150.865C311.992 148.384 311.124 145.722 310.09 142.951C309.057 140.181 307.899 137.618 306.782 135.311C305.666 133.003 304.566 130.986 303.591 129.315C302.615 127.645 301.796 126.305 301.201 125.404C300.936 124.974 300.721 124.627 300.539 124.345C300.455 124.224 300.386 124.094 300.332 123.957C300.332 123.957 300.44 124.064 300.614 124.296L301.341 125.305C301.978 126.189 302.838 127.504 303.822 129.158C304.806 130.812 305.956 132.846 307.13 135.137C308.304 137.427 309.42 140.032 310.479 142.803C311.537 145.573 312.356 148.277 313.034 150.758C313.712 153.238 314.183 155.504 314.514 157.423C314.845 159.341 315.068 160.887 315.176 161.971L315.3 163.211C315.344 163.356 315.363 163.507 315.358 163.658Z" fill="#E0E0E0"/>
<path d="M342.365 158.2H297.579V167.338H342.365V158.2Z" fill="#E0E0E0"/>
<path d="M301.846 167.329L306.435 193.526H333.501L338.272 167.329H301.846Z" fill="#E0E0E0"/>
<path d="M339.62 167.371C339.62 167.495 331.144 167.594 320.691 167.594C310.239 167.594 301.771 167.495 301.771 167.371C301.771 167.247 310.239 167.156 320.691 167.156C331.144 167.156 339.62 167.214 339.62 167.371Z" fill="#EBEBEB"/>
<path d="M175.716 0.784424H129.868V75.2479H175.716V0.784424Z" fill="#E0E0E0"/>
<path d="M174.189 0.784424H128.341V75.2479H174.189V0.784424Z" fill="#EBEBEB"/>
<path d="M172.239 2.29083H130.295V73.7363H172.239V2.29083Z" fill="white"/>
<path d="M164.071 11.5792H138.281V64.4583H164.071V11.5792Z" fill="#EBEBEB"/>
<path d="M138.281 45.7408C138.218 40.8047 142.748 35.9833 147.731 35.3162C150.107 34.9878 152.635 35.4517 154.856 34.5604C158.817 32.9654 160.068 27.7843 164.071 26.2623L164.254 64.474H138.281V45.7408Z" fill="#E0E0E0"/>
<path d="M368 193.898C368 194.014 285.613 194.113 184.008 194.113C82.4035 194.113 0 194.014 0 193.898C0 193.783 82.3704 193.683 184.008 193.683C285.646 193.683 368 193.783 368 193.898Z" fill="#263238"/>
<path d="M61.2589 120.277L55.8921 119.632C51.6134 122.488 46.4211 123.641 41.3359 122.863C36.2506 122.085 31.6402 119.433 28.4107 115.429C25.1813 111.425 23.5664 106.357 23.8834 101.223C24.2005 96.0879 26.4266 91.2576 30.1242 87.6809C33.8218 84.1043 38.7234 82.04 43.8657 81.8938C49.008 81.7476 54.019 83.5301 57.9139 86.8909C61.8087 90.2517 64.3056 94.9478 64.9139 100.056C65.5221 105.164 64.1977 110.315 61.201 114.497L61.2589 120.277Z" fill="white"/>
<path d="M61.2589 120.277C61.2589 120.277 61.2589 120.136 61.2589 119.888C61.2589 119.64 61.2589 119.243 61.2589 118.764C61.2589 117.78 61.2093 116.341 61.1762 114.488L61.3003 114.546C61.2933 114.554 61.285 114.559 61.2757 114.563C61.2665 114.567 61.2565 114.569 61.2465 114.569C61.2365 114.569 61.2265 114.567 61.2173 114.563C61.208 114.559 61.1997 114.554 61.1928 114.546C61.1827 114.533 61.1772 114.517 61.1772 114.501C61.1772 114.484 61.1827 114.468 61.1928 114.455C63.1244 111.737 64.3647 108.59 64.8064 105.285C65.0883 103.125 65.0297 100.935 64.6328 98.7934C64.1697 96.3588 63.2705 94.028 61.9783 91.9133C60.5315 89.588 58.6437 87.5682 56.4214 85.9677C54.0234 84.2215 51.2662 83.0322 48.3505 82.4863C45.2511 81.9135 42.0623 82.0492 39.0228 82.8832C35.8333 83.7694 32.9128 85.4313 30.522 87.7208C29.2967 88.8786 28.2166 90.1809 27.3052 91.5991C26.8917 92.3185 26.4783 93.0297 26.1144 93.7739L25.6265 94.9068L25.3867 95.4691L25.2048 96.0562C24.2126 99.0827 23.9297 102.297 24.3779 105.45C24.7998 108.411 25.8853 111.237 27.5533 113.719C29.0833 116.011 31.0503 117.978 33.3418 119.508C35.401 120.897 37.6959 121.901 40.1143 122.468L41.8178 122.766C42.3801 122.849 42.9342 122.865 43.4717 122.915C44.5216 122.983 45.5755 122.964 46.6223 122.857C49.9314 122.519 53.1093 121.384 55.8839 119.549H55.9335L59.8862 120.07L60.9281 120.211L61.292 120.269H60.9529L59.9276 120.161L55.9169 119.715H55.9666C53.1855 121.594 49.9851 122.761 46.6471 123.113C45.5872 123.229 44.5196 123.256 43.4551 123.196C42.9094 123.146 42.3388 123.138 41.8013 123.055L40.0151 122.716C37.5441 122.173 35.1948 121.178 33.0854 119.781C30.7533 118.226 28.7522 116.225 27.1977 113.893C25.4981 111.366 24.3875 108.489 23.9479 105.475C23.4879 102.267 23.7709 98.9967 24.7748 95.9156L24.9567 95.3203L25.2048 94.7414L25.6927 93.592C26.0565 92.8312 26.5196 92.1035 26.9165 91.3758C27.8434 89.9376 28.9432 88.6184 30.1912 87.4479C32.6198 85.1 35.5956 83.3947 38.8491 82.4863C41.9589 81.646 45.2188 81.5215 48.3836 82.1225C51.3454 82.6892 54.1444 83.9065 56.5785 85.6865C58.8307 87.3171 60.7411 89.3737 62.2016 91.7397C63.5057 93.888 64.408 96.2558 64.8643 98.7272C65.2586 100.911 65.3061 103.144 65.0049 105.343C64.5362 108.678 63.2555 111.847 61.2754 114.571L61.1679 114.464C61.1749 114.456 61.1832 114.451 61.1925 114.447C61.2017 114.443 61.2117 114.441 61.2217 114.441C61.2317 114.441 61.2417 114.443 61.2509 114.447C61.2602 114.451 61.2685 114.456 61.2754 114.464C61.28 114.48 61.28 114.497 61.2754 114.513C61.2754 116.382 61.2754 117.821 61.2754 118.838C61.2754 119.309 61.2754 119.665 61.2754 119.938C61.2754 120.211 61.2589 120.277 61.2589 120.277Z" fill="#263238"/>
<path d="M35.3843 103.763L37.9643 101.001L43.2649 105.401L53.0392 95.3368L55.611 97.9251L43.0582 110.569L35.3843 103.763Z" fill="#92B158"/>
<path d="M94.1707 57.174C94.4309 56.3635 94.8754 55.6243 95.4695 55.0145C96.0635 54.4047 96.7907 53.941 97.5942 53.6596C98.2557 53.4363 99.0165 53.2875 99.3886 52.7086C99.5961 52.2599 99.7247 51.7787 99.769 51.2863C99.8762 50.9261 100.055 50.591 100.294 50.3009C100.533 50.0108 100.827 49.7715 101.16 49.5973C101.493 49.423 101.858 49.3174 102.233 49.2865C102.607 49.2556 102.984 49.3001 103.341 49.4174C103.667 49.5981 104.023 49.7186 104.392 49.773C105.905 49.773 106.128 46.9119 107.641 46.9697C107.196 47.4413 106.907 48.0392 106.814 48.6815C106.777 49.0009 106.849 49.3236 107.017 49.5979C107.184 49.8721 107.439 50.0823 107.741 50.1948C109.345 50.633 110.114 47.5238 111.759 47.714C112.653 47.8215 113.306 48.9296 114.182 48.7311C114.509 48.6128 114.812 48.4363 115.075 48.2101C115.581 47.9171 116.178 47.8268 116.748 47.9572C117.317 48.0877 117.816 48.4293 118.143 48.913C118.664 49.74 118.747 51.0713 119.706 51.3359C120.013 51.372 120.323 51.342 120.617 51.2478C120.911 51.1537 121.181 50.9976 121.41 50.7901C121.8 51.6168 121.996 52.5222 121.98 53.4363C122.908 53.5347 123.761 53.9885 124.36 54.7024C124.96 55.4162 125.26 56.3347 125.197 57.265C126.188 57.4103 127.141 57.7503 128 58.2656C128.428 58.528 128.773 58.905 128.996 59.3538C129.22 59.8026 129.313 60.3051 129.266 60.8043C129.2 61.0214 129.166 61.2471 129.166 61.4741C129.214 61.7167 129.325 61.9422 129.489 62.1274C130.149 62.806 130.728 63.5579 131.217 64.3683C131.606 65.2366 131.432 66.477 130.547 66.8491C130.341 66.9318 130.092 66.9732 129.977 67.1634C129.915 67.32 129.915 67.4946 129.977 67.6512C130.219 68.2889 130.563 68.8836 130.994 69.4126C131.423 69.9497 131.633 70.6291 131.581 71.3145C131.465 71.9926 130.754 72.5715 130.101 72.2738C130.804 73.1007 131.515 73.9276 132.218 74.7546C132.639 75.2507 133.045 75.8709 132.879 76.4911C132.606 77.318 131.424 77.318 130.704 76.8963C129.985 76.4746 129.481 75.7055 128.745 75.2424C128.43 75.0998 128.131 74.9253 127.852 74.7215C127.645 74.5313 127.479 74.2749 127.215 74.2171C126.677 74.0848 126.388 74.9034 126.644 75.3748C127.007 75.7899 127.48 76.0939 128.009 76.2513C128.513 76.4911 129.026 76.9128 128.984 77.4586C128.984 77.7232 128.811 77.9631 128.794 78.2277C128.745 79.1538 130.142 79.3358 130.671 80.0883C130.82 80.3949 130.898 80.7314 130.898 81.0723C130.898 81.4133 130.82 81.7497 130.671 82.0563C130.407 82.8336 129.588 83.7598 128.935 83.2554C128.703 83.0817 128.604 82.7758 128.397 82.5773C128.128 82.3736 127.813 82.2401 127.479 82.1886C126.672 81.9489 125.951 81.4808 125.404 80.8407C126.413 81.3121 127.57 82.015 127.562 83.1231C127.509 83.5854 127.386 84.0371 127.198 84.4627C126.917 85.2896 126.942 86.2654 126.669 87.142C126.569 87.5839 126.33 87.9824 125.988 88.2798C125.646 88.5771 125.219 88.7579 124.767 88.7958C125.077 89.1317 125.266 89.562 125.302 90.0177C125.339 90.4734 125.222 90.9282 124.969 91.3094C124.717 91.6905 124.343 91.9759 123.91 92.1199C123.476 92.2639 123.006 92.2581 122.576 92.1035C122.352 91.9888 122.107 91.9213 121.856 91.9051C121.589 91.9596 121.342 92.0886 121.145 92.2772C120.482 92.7512 119.701 93.0329 118.889 93.0912C118.076 93.1496 117.263 92.9823 116.539 92.608L117.143 91.996C115.655 92.6355 114.038 92.9187 112.421 92.823C110.825 92.5914 109.254 91.3345 109.237 89.722C109.237 89.0274 109.461 88.1922 108.94 87.7208C108.738 87.588 108.511 87.4988 108.274 87.4589C108.036 87.4191 107.792 87.4294 107.559 87.4893L101.547 88.1922C100.585 88.3936 99.5862 88.3249 98.6609 87.9937C98.4366 87.902 98.2325 87.7671 98.0604 87.5965C97.8882 87.4259 97.7514 87.2231 97.6577 86.9996C97.564 86.7761 97.5153 86.5364 97.5143 86.294C97.5134 86.0517 97.5602 85.8116 97.6521 85.5873C96.8623 84.9878 95.9192 84.6237 94.9314 84.5371C93.8316 84.4379 92.7235 84.6942 91.6237 84.6529C91.071 84.674 90.5231 84.5424 90.0402 84.2725C89.5574 84.0027 89.1582 83.605 88.8866 83.1231C88.4649 82.0977 89.4572 80.6423 90.4908 81.0475C89.6226 79.6252 86.9185 80.8325 85.9675 79.4598C85.1902 78.3434 86.4224 76.979 86.7945 75.6559C86.4306 75.3169 85.8683 75.2507 85.4879 74.9282C84.7023 74.2336 85.182 72.927 85.827 72.1084C86.472 71.2897 87.3154 70.3718 87.0756 69.3547C86.8358 68.3376 85.5045 67.643 85.6037 66.5762C85.6389 66.281 85.7848 66.0101 86.012 65.8183C86.2391 65.6264 86.5306 65.5279 86.8276 65.5426C86.6704 63.4835 90.5487 63.1941 90.7141 61.1433C90.7143 60.9809 90.6588 60.8233 90.557 60.6968C90.4705 60.5844 90.3566 60.4961 90.2262 60.4404C89.5917 60.2283 88.9335 60.095 88.2664 60.0435C87.6049 59.9029 86.9102 59.4812 86.8441 58.8196C86.7779 58.1581 87.8612 57.6454 88.1424 58.2573C88.2405 58.0557 88.3834 57.8792 88.5601 57.7413C88.7368 57.6033 88.9427 57.5075 89.1621 57.4613C89.3814 57.415 89.6085 57.4195 89.8259 57.4743C90.0433 57.5292 90.2452 57.6329 90.4164 57.7777C90.5398 57.4346 90.777 57.1442 91.0884 56.9546C91.3998 56.765 91.7667 56.6878 92.1282 56.7358C92.848 56.8515 93.5307 57.1348 94.1211 57.5627" fill="#263238"/>
<path d="M111.627 72.2077C109.833 70.0411 107.005 68.9909 104.234 68.5113C103.08 68.2377 101.875 68.2548 100.728 68.5609C100.16 68.7255 99.6517 69.0527 99.2667 69.5023C98.8818 69.9519 98.6367 70.5042 98.5616 71.0913L99.6118 72.7452C100.827 75.6312 104.185 76.8798 106.55 78.9223C107.575 79.8154 108.642 80.9814 110.006 80.8904C110.724 80.8017 111.383 80.4513 111.859 79.9064C113.794 77.8887 113.422 74.3825 111.627 72.2077Z" fill="#92B158"/>
<path d="M118.532 84.9258C118.729 83.4638 118.407 81.9789 117.621 80.7304C116.835 79.4819 115.636 78.5493 114.232 78.0954C114.563 76.2761 113.14 74.5148 111.437 73.8036C109.733 73.0925 107.815 73.2 105.971 73.3075C104.501 71.7142 102.476 70.7455 100.313 70.6009C98.1495 70.4563 96.0134 71.1468 94.3442 72.5301C90.8877 70.7274 86.5298 72.4888 83.7513 75.2177C83.1259 75.9369 82.3988 76.561 81.593 77.07C80.9559 77.354 80.3013 77.5971 79.6332 77.7977C76.036 79.1456 73.977 83.2968 74.3408 87.1172C74.4479 87.723 74.4729 88.3405 74.4153 88.953C74.1939 89.7291 73.8743 90.4739 73.4643 91.1691C73.1145 91.969 72.9401 92.8346 72.9529 93.7076C72.9658 94.5806 73.1655 95.4406 73.5387 96.2299C74.1837 97.5613 75.3414 98.7107 75.4324 100.191C75.4737 100.935 75.2339 101.679 75.3497 102.415C75.6887 104.532 78.6574 105.293 79.2859 107.377C79.4182 107.799 79.4347 108.204 79.5257 108.667C79.726 109.551 80.2402 110.333 80.9728 110.867C81.5268 111.28 82.2297 111.553 82.6267 112.14C82.8413 112.618 82.9942 113.121 83.0815 113.637C83.4453 114.869 88.134 117.862 89.4157 117.945L118.185 102.829C119.135 102.003 119.804 100.901 120.101 99.6773C120.397 98.4535 120.305 97.1678 119.838 95.9984C119.633 95.6358 119.53 95.2242 119.541 94.8076C119.643 94.4633 119.818 94.1447 120.053 93.8732C121.36 91.8968 120.227 89.2506 118.912 87.2577C118.713 86.9932 118.559 86.6968 118.458 86.3812C118.385 85.8959 118.411 85.4012 118.532 84.9258Z" fill="#263238"/>
<path d="M110.354 89.3747C108.849 86.6351 106.633 84.3524 103.939 82.7675C101.245 81.1825 98.1728 80.354 95.0472 80.3695C92.173 80.5277 89.3604 81.2646 86.7779 82.536C84.3175 83.5683 82.2294 85.3248 80.7909 87.572C79.4099 88.7959 76.4661 97.1892 79.2528 103.102C82.3538 109.659 86.4223 117.548 89.73 121.89C96.4778 130.572 104.441 127.769 104.441 127.769L107.989 135.112L117.912 143.53L126.768 129.092L128.695 125.975L110.354 89.3747Z" fill="#AE7461"/>
<path d="M102.456 112.926C102.248 112.624 101.966 112.379 101.638 112.215C101.309 112.051 100.945 111.972 100.578 111.986C100.211 112 99.8538 112.107 99.5389 112.295C99.2241 112.484 98.9619 112.749 98.7766 113.066C98.297 113.893 98.6112 114.803 99.1983 115.688C99.8764 116.051 100.439 116.457 101.15 116.184L101.481 116.043C102.015 115.779 102.431 115.325 102.647 114.77C102.757 114.468 102.797 114.145 102.764 113.826C102.731 113.506 102.626 113.198 102.456 112.926Z" fill="#6F4439"/>
<path d="M86.4802 109.618C86.6539 109.938 86.9455 110.177 87.2929 110.285C87.6404 110.393 88.0163 110.361 88.3407 110.197C88.5024 110.123 88.6478 110.018 88.7684 109.887C88.889 109.757 88.9824 109.603 89.0432 109.436C89.104 109.269 89.131 109.092 89.1226 108.914C89.1141 108.737 89.0704 108.563 88.994 108.402C88.8203 108.083 88.5287 107.843 88.1812 107.735C87.8338 107.627 87.4579 107.659 87.1334 107.823C86.9717 107.897 86.8264 108.002 86.7057 108.133C86.5851 108.264 86.4917 108.417 86.4309 108.584C86.3701 108.751 86.3432 108.928 86.3516 109.106C86.3601 109.283 86.4038 109.457 86.4802 109.618Z" fill="#263238"/>
<path d="M83.4619 105.549C83.7017 105.624 84.2889 104.433 85.5623 103.714C86.8358 102.994 88.2002 103.118 88.2499 102.887C88.2499 102.779 87.9687 102.572 87.3816 102.498C86.5985 102.418 85.8099 102.583 85.1241 102.969C84.4391 103.341 83.8892 103.92 83.5529 104.623C83.3214 105.152 83.3462 105.516 83.4619 105.549Z" fill="#263238"/>
<path d="M96.8581 111.685C96.0449 111.845 95.2556 112.109 94.5096 112.471C94.1541 112.628 93.7985 112.735 93.6166 112.537C93.4028 112.204 93.2907 111.816 93.2941 111.421C93.1617 110.437 93.0294 109.403 92.8806 108.32C92.2521 103.92 91.6071 100.389 91.4252 100.414C91.2433 100.439 91.6154 104.02 92.2521 108.419C92.4092 109.494 92.5664 110.528 92.7152 111.512C92.7252 112.031 92.9219 112.53 93.2693 112.917C93.3826 113.011 93.5165 113.078 93.6601 113.111C93.8037 113.144 93.9531 113.143 94.0962 113.108C94.3087 113.051 94.514 112.971 94.7081 112.868C95.4699 112.562 96.1918 112.165 96.8581 111.685Z" fill="#263238"/>
<path d="M104.466 127.744C108.995 125.337 112.767 121.722 115.365 117.3C115.365 117.3 115.663 125.875 105.648 130.233L104.466 127.744Z" fill="#6F4439"/>
<path d="M81.684 102.787C82.0809 102.986 82.974 102.217 84.1648 101.671C85.3555 101.125 86.538 100.894 86.6455 100.464C86.6455 100.257 86.3809 100.017 85.8186 99.9181C85.0406 99.8199 84.2507 99.9491 83.5446 100.29C82.8272 100.609 82.2201 101.132 81.7997 101.795C81.5103 102.3 81.502 102.688 81.684 102.787Z" fill="#263238"/>
<path d="M101.059 102.126C101.226 102.449 101.261 102.825 101.154 103.173C101.047 103.521 100.808 103.813 100.488 103.986C100.337 104.079 100.168 104.139 99.9931 104.166C99.8178 104.192 99.639 104.183 99.4672 104.139C99.2954 104.095 99.1342 104.017 98.9928 103.91C98.8515 103.803 98.733 103.669 98.6443 103.515C98.4783 103.193 98.4441 102.818 98.549 102.471C98.654 102.124 98.8898 101.831 99.2066 101.655C99.3584 101.561 99.5275 101.499 99.7037 101.472C99.8799 101.445 100.06 101.454 100.233 101.498C100.405 101.542 100.567 101.62 100.709 101.728C100.851 101.836 100.97 101.971 101.059 102.126Z" fill="#263238"/>
<path d="M101.712 96.1638C101.638 96.4036 100.339 96.1638 99.0081 96.8584C97.6768 97.553 97.0235 98.7025 96.792 98.6115C96.6845 98.5702 96.701 98.198 96.9656 97.6771C97.3369 96.9835 97.915 96.4228 98.6195 96.0728C99.3156 95.7189 100.107 95.5971 100.877 95.7255C101.464 95.833 101.745 96.0563 101.712 96.1638Z" fill="#263238"/>
<path d="M98.9255 90.9871C98.818 91.4254 97.6272 91.6239 96.3785 92.2358C95.1299 92.8477 94.1872 93.5919 93.782 93.4017C93.6001 93.3025 93.6083 92.9138 93.9226 92.3929C94.3734 91.7203 95.0036 91.1875 95.7418 90.8548C96.4639 90.4981 97.2736 90.3574 98.0738 90.4496C98.6691 90.5406 98.9751 90.7804 98.9255 90.9871Z" fill="#263238"/>
<path d="M113.794 99.2316C113.405 98.5205 113.298 96.4035 113.943 95.9239C115.646 94.6008 119.103 92.8974 121.749 97.6274C125.362 104.086 118.127 106.385 118.011 106.211C117.895 106.037 115.133 101.679 113.794 99.2316Z" fill="#AE7461"/>
<path d="M118.474 102.87C118.474 102.87 118.631 102.87 118.871 102.87C119.194 102.828 119.489 102.665 119.698 102.415C120.235 101.787 120.202 100.381 119.582 99.1985C119.293 98.6318 118.877 98.1394 118.367 97.7597C118.193 97.5911 117.981 97.4675 117.749 97.3998C117.517 97.332 117.272 97.3222 117.035 97.371C116.888 97.4093 116.758 97.498 116.669 97.6219C116.58 97.7458 116.537 97.8969 116.547 98.0491C116.547 98.2807 116.671 98.3881 116.647 98.4129C116.622 98.4378 116.448 98.413 116.349 98.0905C116.285 97.9113 116.285 97.7156 116.349 97.5364C116.46 97.3057 116.651 97.1234 116.886 97.0237C117.182 96.9305 117.496 96.9134 117.799 96.9741C118.103 97.0349 118.386 97.1714 118.623 97.371C119.209 97.7805 119.689 98.325 120.02 98.9587C120.707 100.282 120.723 101.87 119.938 102.663C119.792 102.81 119.616 102.923 119.421 102.993C119.227 103.063 119.019 103.089 118.813 103.069C118.573 102.986 118.458 102.87 118.474 102.87Z" fill="#6F4439"/>
<path d="M77.8718 103.978C78.3322 103.303 78.5913 102.511 78.6191 101.694C78.6469 100.877 78.4423 100.069 78.0289 99.364C79.0378 99.149 79.3024 97.5447 79.4016 96.5111C79.5009 95.4774 79.9061 94.758 79.4016 93.8732C79.2765 93.7101 79.1992 93.5154 79.1784 93.3109C79.1784 92.9884 79.4347 92.7403 79.658 92.4839C80.2265 91.8791 80.6342 91.1412 80.8437 90.3379C81.0532 89.5347 81.0577 88.6917 80.857 87.8862C82.5915 87.7251 84.2592 87.137 85.7111 86.1745C86.3177 86.4746 86.9904 86.6163 87.6666 86.5864C88.3427 86.5565 89.0003 86.356 89.5781 86.0036C90.1559 85.6511 90.6351 85.1582 90.971 84.5707C91.307 83.9832 91.4888 83.3202 91.4996 82.6435C91.9358 82.9178 92.4259 83.0953 92.9367 83.1638C93.4474 83.2322 93.9669 83.1902 94.46 83.0404C95.4437 82.7312 96.377 82.2799 97.2302 81.7008C97.5473 82.6731 98.2043 83.4985 99.0807 84.0255C99.9571 84.5526 100.994 84.746 102.002 84.5702C102.132 84.5133 102.273 84.4839 102.415 84.4839C102.557 84.4839 102.698 84.5133 102.829 84.5702C103.06 84.7356 103.085 85.0664 103.126 85.3475C103.203 85.7912 103.37 86.2144 103.617 86.5912C103.863 86.9681 104.184 87.2906 104.559 87.5391C104.935 87.7876 105.357 87.9569 105.8 88.0365C106.244 88.1161 106.698 88.1043 107.137 88.002C107.009 88.3566 106.964 88.7355 107.005 89.1101C107.046 89.4847 107.171 89.8451 107.372 90.164C107.573 90.4828 107.844 90.7517 108.164 90.9502C108.485 91.1487 108.846 91.2716 109.221 91.3097C109.535 91.3097 109.932 91.3097 110.048 91.6157C110.077 91.7324 110.077 91.8545 110.048 91.9713C109.846 92.8695 109.9 93.8065 110.205 94.6753C110.375 95.1015 110.702 95.4463 111.119 95.6385C111.536 95.8308 112.011 95.856 112.446 95.709C112.313 96.0014 112.24 96.3179 112.233 96.6392C112.226 96.9604 112.284 97.2797 112.404 97.5778C112.474 97.7196 112.575 97.8436 112.7 97.9406C112.824 98.0376 112.969 98.105 113.124 98.1376C113.279 98.1703 113.438 98.1674 113.592 98.1291C113.745 98.0909 113.888 98.0183 114.009 97.9169C114.182 97.7101 117.06 95.2955 117.101 95.0226C117.564 91.5247 113.744 90.061 111.859 87.051C109.908 84.0865 107.299 81.613 104.234 79.8237C102.978 79.0312 101.625 78.4058 100.207 77.9631C98.5667 77.5561 96.8858 77.3342 95.196 77.3015C92.9986 77.0668 90.7776 77.1954 88.6219 77.6819C84.6692 78.7817 81.7253 82.0564 79.2941 85.3641C78.3228 86.5872 77.5216 87.9364 76.9126 89.3747C76.3102 91.1492 76.0302 93.0172 76.0856 94.8903C75.9445 97.6073 76.3668 100.324 77.326 102.87" fill="#263238"/>
<path d="M75.3497 102.415C75.3028 102.12 75.3028 101.818 75.3497 101.522C75.3497 101.233 75.4242 100.877 75.4324 100.447C75.4374 99.9625 75.3358 99.4826 75.1347 99.0415C74.8759 98.4854 74.5716 97.9516 74.2251 97.4455C73.8008 96.8444 73.4613 96.1877 73.2163 95.4939C72.8068 94.2336 72.8068 92.876 73.2163 91.6157C73.3842 91.1589 73.5889 90.7164 73.8282 90.2926C74.0729 89.8602 74.246 89.391 74.3409 88.9033C74.3941 88.3825 74.3774 87.8569 74.2913 87.3404C74.0257 84.9845 74.6124 82.6114 75.9451 80.6506C76.3031 80.1233 76.7192 79.6379 77.1855 79.2035C77.6713 78.7632 78.2102 78.3854 78.7898 78.0788C79.0851 77.9243 79.3888 77.7862 79.6994 77.6653C80.0136 77.5496 80.3361 77.4586 80.6503 77.3511C81.2894 77.1593 81.881 76.8353 82.3869 76.4001C82.9079 75.9701 83.3627 75.4409 83.8754 74.9696C84.3911 74.4808 84.944 74.0329 85.5292 73.63C86.1304 73.2259 86.7638 72.8719 87.4229 72.5715C88.0988 72.2722 88.8022 72.0396 89.5233 71.8768C91.0077 71.5291 92.5639 71.6564 93.9722 72.2407L94.3939 72.4309H94.2699C95.1204 71.7053 96.1093 71.1597 97.1767 70.8271C98.2441 70.4945 99.3679 70.3819 100.48 70.4959C102.621 70.6418 104.619 71.6216 106.045 73.2247L105.963 73.1834C106.939 73.1077 107.92 73.0939 108.898 73.142C109.853 73.1846 110.791 73.4004 111.668 73.7788C112.499 74.1849 113.205 74.8077 113.711 75.5815C114.224 76.3184 114.431 77.2253 114.29 78.1119L114.224 78.0044C115.586 78.435 116.756 79.3268 117.531 80.5265C118.254 81.5859 118.635 82.8413 118.623 84.1237C118.619 84.4172 118.594 84.7102 118.549 85.0002C118.489 85.2732 118.445 85.5493 118.416 85.8272C118.391 86.0864 118.431 86.3478 118.532 86.5879C118.64 86.8202 118.771 87.0416 118.921 87.2495C119.441 88.0246 119.871 88.857 120.202 89.7302C120.472 90.4404 120.604 91.1953 120.591 91.9547C120.573 92.5181 120.426 93.0698 120.161 93.5672C119.946 93.9724 119.698 94.2205 119.599 94.3941C119.541 94.4983 119.496 94.6095 119.466 94.7249C119.477 94.6054 119.514 94.4897 119.574 94.3859C119.665 94.1626 119.905 93.9062 120.111 93.5093C120.363 93.0171 120.498 92.4741 120.508 91.9216C120.515 91.1746 120.378 90.4333 120.103 89.7385C119.771 88.8644 119.338 88.0319 118.813 87.2577C118.662 87.0418 118.526 86.8152 118.408 86.5796C118.298 86.3186 118.253 86.035 118.276 85.7527C118.276 85.4633 118.358 85.1904 118.4 84.9258C118.444 84.6523 118.469 84.3759 118.474 84.0989C118.475 82.8501 118.098 81.6304 117.391 80.601C116.628 79.4395 115.485 78.5799 114.158 78.1698H114.075V78.0871C114.203 77.2451 114.002 76.3862 113.512 75.689C113.013 74.9528 112.325 74.3644 111.52 73.9855C110.662 73.6203 109.746 73.413 108.816 73.3736C107.845 73.3243 106.873 73.3409 105.905 73.4232H105.855V73.3819C104.401 71.8161 102.404 70.8653 100.271 70.7238C98.1393 70.5824 96.0338 71.2611 94.3856 72.6211L94.3277 72.6707H94.2533L93.8564 72.4888C92.4898 71.9232 90.9806 71.7989 89.5398 72.1332C88.8341 72.2954 88.1448 72.5224 87.4808 72.8113C86.8352 73.1111 86.2132 73.4594 85.6202 73.8532C85.0347 74.2467 84.4817 74.6864 83.9663 75.168C83.4619 75.6311 82.9988 76.1603 82.4696 76.6069C82.2128 76.8279 81.936 77.0244 81.6427 77.194C81.3378 77.3537 81.0196 77.4865 80.6917 77.5909C80.3692 77.6984 80.055 77.7894 79.749 77.9052C79.4434 78.0189 79.1451 78.1515 78.8559 78.3021C78.2929 78.5976 77.7704 78.9644 77.3013 79.3936C76.8432 79.8161 76.4328 80.2875 76.0774 80.7994C75.4047 81.7854 74.9197 82.8872 74.6468 84.0492C74.3835 85.131 74.3135 86.2508 74.4401 87.357C74.5103 87.8894 74.5103 88.4288 74.4401 88.9612C74.3387 89.4664 74.1573 89.9521 73.9026 90.4001C73.6618 90.8145 73.4571 91.2488 73.2907 91.6983C73.1432 92.1266 73.0461 92.5707 73.0012 93.0214C72.9077 93.856 72.9894 94.701 73.2411 95.5022C73.478 96.1896 73.8092 96.8408 74.2251 97.4372C74.5671 97.949 74.8658 98.4884 75.1182 99.0497C75.3167 99.5089 75.4153 100.005 75.4076 100.505C75.4076 100.935 75.3332 101.291 75.3084 101.58C75.2899 101.798 75.2899 102.016 75.3084 102.233C75.3415 102.333 75.358 102.407 75.3497 102.415Z" fill="#455A64"/>
<path d="M90.5073 72.7699C90.3008 72.7821 90.0937 72.7821 89.8871 72.7699C89.3186 72.7923 88.7586 72.9155 88.2333 73.1337C87.4536 73.4368 86.7726 73.9489 86.2652 74.6139C85.6504 75.4273 85.3088 76.4144 85.2894 77.4338C85.2799 77.7388 85.3049 78.0439 85.3638 78.3434C85.3819 78.4776 85.4291 78.6063 85.5019 78.7206C85.5747 78.8348 85.6715 78.9318 85.7855 79.0049L86.0667 79.1372L85.769 79.2117C84.9912 79.3931 84.3148 79.8707 83.8836 80.543C83.5464 81.0838 83.3927 81.7189 83.4453 82.354C83.4759 82.7741 83.5883 83.1843 83.7761 83.5613C83.9084 83.8259 84.0076 83.9582 83.9911 83.9665L83.9084 83.8838C83.8333 83.7938 83.7668 83.6969 83.7099 83.5944C83.4845 83.2191 83.346 82.7981 83.3047 82.3623C83.2313 81.6938 83.3795 81.0198 83.7265 80.4438C84.1752 79.7186 84.8909 79.1989 85.7194 78.9967V79.2034C85.5721 79.1154 85.4466 78.9954 85.3521 78.8522C85.2576 78.7091 85.1966 78.5465 85.1736 78.3765C85.1088 78.061 85.081 77.7391 85.0909 77.4172C85.1105 76.3465 85.476 75.3109 86.1328 74.4651C86.67 73.7843 87.3857 73.2661 88.2002 72.9683C88.7401 72.7575 89.3158 72.6536 89.8954 72.6624C90.0534 72.6633 90.211 72.6771 90.3667 72.7037C90.4577 72.7533 90.5073 72.7616 90.5073 72.7699Z" fill="#455A64"/>
<path d="M105.136 74.4568C105.121 74.5798 105.088 74.6997 105.036 74.8124C104.913 75.1313 104.76 75.4385 104.582 75.7303C104.303 76.1695 103.933 76.5444 103.498 76.8301C102.94 77.1902 102.268 77.3289 101.613 77.2188L101.745 77.1195C101.745 77.2435 101.745 77.3676 101.704 77.4916C101.663 77.6157 101.646 77.7397 101.621 77.872C101.428 78.5835 101.058 79.2347 100.546 79.7657C100.14 80.205 99.6514 80.5592 99.1074 80.8076C98.7428 80.9744 98.3554 81.0858 97.9579 81.1384C97.8131 81.1653 97.6645 81.1653 97.5197 81.1384C98.0459 81.0513 98.5579 80.8927 99.0412 80.667C99.555 80.4084 100.015 80.0549 100.397 79.6251C100.872 79.1093 101.217 78.4888 101.406 77.8141C101.406 77.6901 101.464 77.5743 101.481 77.4585C101.497 77.3428 101.481 77.2187 101.481 77.103V76.9789H101.596C102.198 77.0808 102.817 76.9571 103.333 76.6316C103.754 76.3722 104.117 76.0288 104.4 75.6228C104.937 74.9447 105.094 74.4403 105.136 74.4568Z" fill="#455A64"/>
<path d="M111.867 78.608C111.867 78.608 111.867 78.608 111.917 78.7321C111.936 78.8637 111.936 78.9974 111.917 79.129C111.862 79.6187 111.626 80.0701 111.255 80.3942C110.692 80.8529 110.009 81.1399 109.287 81.2211C108.89 81.279 108.46 81.3534 108.038 81.3782C107.564 81.4294 107.087 81.3123 106.69 81.0475L106.599 80.9648H106.773C106.456 81.7611 106.021 82.5053 105.483 83.1727C105.031 83.7216 104.436 84.1339 103.763 84.3635C103.311 84.5172 102.827 84.5513 102.357 84.4627C102.23 84.4382 102.106 84.4022 101.985 84.3552C101.911 84.3552 101.869 84.2973 101.869 84.289C101.869 84.2808 102.051 84.3387 102.366 84.38C102.819 84.4325 103.278 84.3758 103.705 84.2146C104.354 83.9831 104.927 83.5767 105.359 83.0404C105.878 82.384 106.296 81.6537 106.599 80.8738L106.666 80.7332L106.781 80.8407L106.864 80.9069C107.219 81.1365 107.643 81.2359 108.063 81.188C108.473 81.1635 108.882 81.1166 109.287 81.0475C109.973 80.985 110.629 80.733 111.181 80.3198C111.535 80.0234 111.777 79.6149 111.867 79.1621C111.882 78.9777 111.882 78.7924 111.867 78.608Z" fill="#455A64"/>
<path d="M106.12 51.6005C106.12 51.6005 106.012 51.6667 105.847 51.8238C105.612 52.0473 105.448 52.3348 105.376 52.6507C105.264 53.1621 105.331 53.6961 105.566 54.164C105.886 54.7732 106.295 55.3307 106.781 55.8179L106.864 55.9088L106.748 55.9667C105.933 56.3857 105.277 57.0593 104.879 57.8852C104.647 58.3411 104.526 58.8455 104.526 59.3571C104.526 59.8688 104.647 60.3732 104.879 60.8291C105.081 61.2504 105.379 61.6191 105.747 61.9061C106.116 62.1931 106.547 62.3906 107.005 62.4829L107.319 62.5408L107.038 62.6896C106.575 62.9442 106.171 63.2916 105.849 63.71C105.528 64.1283 105.296 64.6087 105.169 65.1208C104.963 65.9532 105.057 66.8313 105.433 67.6016C105.673 68.104 106.014 68.5515 106.434 68.9164C106.732 69.1645 106.922 69.272 106.914 69.2885L106.773 69.2224C106.641 69.148 106.514 69.0652 106.393 68.9743C105.816 68.5292 105.377 67.9285 105.13 67.243C104.882 66.5574 104.836 65.8155 104.995 65.1043C105.12 64.5631 105.358 64.0544 105.693 63.6113C106.028 63.1682 106.452 62.8006 106.938 62.5325V62.731C106.447 62.6372 105.983 62.4299 105.586 62.1256C105.188 61.8212 104.867 61.4282 104.648 60.9779C104.386 60.4814 104.255 59.9265 104.267 59.3654C104.28 58.832 104.407 58.3075 104.64 57.8273C105.063 56.9647 105.757 56.2646 106.616 55.8344V55.9832C106.123 55.4835 105.713 54.9085 105.4 54.2798C105.166 53.7816 105.111 53.2181 105.243 52.6838C105.327 52.343 105.515 52.0367 105.781 51.8073C105.851 51.7476 105.929 51.6976 106.012 51.6584L106.12 51.6005Z" fill="#455A64"/>
<path d="M125.42 59.324C125.42 59.324 125.42 59.3736 125.354 59.4481C125.279 59.5608 125.196 59.6686 125.106 59.7706C124.778 60.1637 124.393 60.5064 123.965 60.7877C123.306 61.2204 122.566 61.5158 121.79 61.656C120.795 61.8544 119.765 61.7743 118.813 61.4244L118.954 61.3335C118.934 62.0321 118.761 62.7178 118.445 63.3412C118.129 63.9646 117.678 64.5103 117.126 64.9389C116.527 65.3749 115.808 65.6138 115.067 65.6227C114.326 65.6316 113.601 65.41 112.992 64.9885L113.157 64.8893C113.233 65.4063 113.17 65.9343 112.975 66.4191C112.806 66.8566 112.56 67.26 112.247 67.6099C111.72 68.1646 111.084 68.604 110.379 68.8999C109.929 69.0979 109.464 69.261 108.989 69.3878C108.825 69.4522 108.652 69.494 108.477 69.5118C108.638 69.4404 108.804 69.3796 108.973 69.3299C109.287 69.2141 109.758 69.0487 110.329 68.7841C111.004 68.4767 111.611 68.0382 112.115 67.4941C112.431 67.151 112.669 66.7433 112.812 66.2992C112.954 65.8552 112.999 65.3853 112.942 64.9223L112.901 64.666L113.107 64.8231C113.686 65.2229 114.375 65.4315 115.078 65.4196C115.781 65.4078 116.462 65.176 117.027 64.757C117.553 64.3489 117.984 63.8299 118.287 63.2367C118.59 62.6436 118.758 61.9909 118.78 61.3252V61.1763L118.912 61.2342C119.829 61.5728 120.82 61.6585 121.782 61.4823C122.543 61.3507 123.271 61.0697 123.924 60.6554C124.486 60.2885 124.99 59.8397 125.42 59.324Z" fill="#455A64"/>
<path d="M123.816 72.5632C123.816 72.5632 123.816 72.6128 123.816 72.7203C123.759 72.8657 123.661 72.9919 123.535 73.0841C123.069 73.3956 122.531 73.5834 121.972 73.6299C121.138 73.7285 120.293 73.5637 119.557 73.1586C118.658 72.6481 117.982 71.819 117.664 70.8349H117.862C117.274 71.6749 116.43 72.3017 115.456 72.6211C114.659 72.8924 113.809 72.9717 112.975 72.8526C112.428 72.7829 111.893 72.6354 111.387 72.4143C111.196 72.3477 111.017 72.2499 110.858 72.1249C111.544 72.4075 112.264 72.5993 113 72.6955C113.793 72.7799 114.595 72.6867 115.348 72.4226C116.274 72.1084 117.075 71.5092 117.639 70.7108L117.763 70.5289L117.837 70.7439C118.107 71.5918 118.658 72.3221 119.399 72.8139C120.141 73.3057 121.028 73.5294 121.914 73.448C122.452 73.4137 122.975 73.2582 123.444 72.9932C123.615 72.8983 123.747 72.746 123.816 72.5632Z" fill="#455A64"/>
<path d="M92.0537 59.6135C92.1901 60.3788 92.4707 61.1112 92.8806 61.7717C93.3262 62.4769 93.9327 63.0664 94.6502 63.4918C95.5381 63.9906 96.5539 64.215 97.5693 64.1368C98.1557 64.0969 98.73 63.9512 99.2645 63.7068L99.3885 63.6489V63.7812C99.5476 64.5763 99.8563 65.334 100.298 66.0139C100.652 66.5542 101.081 67.0414 101.572 67.461C101.754 67.6176 101.948 67.7613 102.15 67.891C102.22 67.9409 102.301 67.9736 102.386 67.9865C102.47 67.9995 102.557 67.9922 102.638 67.9655C102.69 67.9474 102.737 67.918 102.775 67.8793C102.814 67.8406 102.844 67.7938 102.862 67.7422C102.862 67.676 102.862 67.6347 102.862 67.6347C102.862 67.6347 102.862 67.6347 102.862 67.7504C102.85 67.813 102.824 67.872 102.785 67.9224C102.746 67.9728 102.696 68.0131 102.638 68.0399C102.546 68.0761 102.446 68.0905 102.347 68.0819C102.248 68.0733 102.153 68.0419 102.068 67.9903C101.85 67.8668 101.642 67.7258 101.448 67.5685C100.929 67.1552 100.477 66.6643 100.108 66.1131C99.6391 65.4231 99.3103 64.6476 99.1405 63.8308L99.2893 63.9052C98.7315 64.1617 98.1321 64.3158 97.5197 64.36C96.561 64.4486 95.5969 64.2623 94.7402 63.823C93.8835 63.3837 93.1697 62.7095 92.6822 61.8792C92.3902 61.3824 92.1833 60.8401 92.0702 60.275C92.0702 60.0683 92.0206 59.9194 92.0123 59.8119C92.013 59.7437 92.027 59.6763 92.0537 59.6135Z" fill="#455A64"/>
<path d="M101.456 111.139C101.241 111.197 101.663 112.554 100.803 113.885C99.9426 115.216 98.4375 115.539 98.4872 115.712C98.5368 115.886 98.8924 115.878 99.5043 115.712C100.308 115.476 101.002 114.963 101.464 114.265C101.906 113.595 102.072 112.781 101.927 111.991C101.803 111.363 101.547 111.073 101.456 111.139Z" fill="#263238"/>
<path d="M107.848 134.525C107.848 134.525 113.711 173.159 120.723 179.882C128.265 187.118 141.818 190.682 141.818 190.682C141.818 190.682 159.854 197.818 166.122 196.264L177.451 157.398C177.267 156.725 176.865 156.131 176.309 155.709C175.753 155.287 175.073 155.061 174.374 155.066C173.25 155.025 170.017 156.538 168.545 156.182C162.673 154.768 148.913 133.715 148.913 133.715C148.913 133.715 135.84 115.688 124.693 117.317C117.052 118.433 113.885 121.832 111.007 129.539C110.312 131.395 109.236 133.085 107.848 134.5V134.525Z" fill="#92B158"/>
<path d="M107.848 134.525L102.762 160.267L79.2611 153.586L75.2091 167.313L114.968 185.265L122.791 152.717L107.848 134.525Z" fill="#92B158"/>
<path d="M161.011 179.932C160.904 179.89 162.665 175.069 164.873 169.182C167.081 163.294 169.008 158.531 169.14 158.572C169.272 158.613 167.486 163.434 165.278 169.322C163.07 175.21 161.119 179.973 161.011 179.932Z" fill="#263238"/>
<path d="M160.573 174.532C161.873 170.157 163.453 165.87 165.303 161.698C164.714 163.904 163.99 166.072 163.136 168.189C162.411 170.353 161.555 172.472 160.573 174.532Z" fill="#263238"/>
<path d="M107.236 141.967C107.462 143.969 107.578 145.981 107.583 147.996C107.65 149.649 107.716 151.154 107.782 152.246C107.862 152.83 107.884 153.42 107.848 154.007C107.641 153.45 107.518 152.865 107.484 152.271C107.335 151.188 107.22 149.674 107.153 148.012C107.087 146.35 107.079 144.828 107.104 143.737C107.076 143.144 107.12 142.55 107.236 141.967Z" fill="#263238"/>
<g opacity="0.3">
<path d="M94.2947 175.929L103.052 172.126L107.848 155.14L104.59 176.062L98.1316 177.666L94.2947 175.929Z" fill="black"/>
</g>
<g opacity="0.3">
<path d="M167.395 161.888C167.093 161.748 166.754 161.711 166.429 161.785C166.104 161.858 165.813 162.037 165.601 162.293C165.146 162.83 164.801 163.451 164.584 164.121C162.858 168.492 161.127 172.883 159.391 177.294C159.094 177.907 158.947 178.581 158.961 179.262C159.035 179.94 159.564 180.61 160.176 180.519C160.788 180.428 161.086 179.799 161.342 179.237C163.82 173.656 165.923 167.915 167.635 162.053" fill="black"/>
</g>
<path d="M42.8597 157.034C42.8597 157.034 46.0269 152.8 47.8875 151.899C49.3677 151.179 58.1745 149.625 59.2495 149.832C60.3245 150.038 79.2612 154.189 79.2612 154.189L76.7804 162.459L75.5648 161.896C75.5648 161.896 71.7444 163.815 68.8253 162.897C66.4905 161.998 64.27 160.827 62.2099 159.407L59.6051 160.383C59.6051 160.383 62.4662 161.284 62.6812 162.467C62.8962 163.649 61.2672 163.782 61.2672 163.782L61.1514 164.303C61.0523 164.741 60.7857 165.123 60.4087 165.367C60.0316 165.611 59.574 165.698 59.1337 165.609C57.4798 165.279 54.9991 164.7 54.4864 164.104C54.2631 163.856 53.1137 161.739 53.1137 161.739C51.3358 160.491 51.3688 159.258 51.4598 158.498C51.6583 156.976 53.2708 155.281 53.2708 155.281L50.0706 155.107C50.0706 155.107 44.9271 160.383 42.8597 157.034Z" fill="#AE7461"/>
<path d="M69.4703 155.645C65.6251 155.645 61.9701 155.132 59.1089 155.843C58.3422 155.987 57.6299 156.339 57.0498 156.86C56.7641 157.127 56.5708 157.477 56.4979 157.861C56.4251 158.244 56.4765 158.641 56.6446 158.994C56.8363 159.267 57.0915 159.49 57.3882 159.642C57.685 159.795 58.0144 159.873 58.3481 159.87C59.0097 159.87 59.6712 159.771 60.341 159.755C61.9488 159.82 63.5138 160.292 64.8891 161.127C66.2619 161.955 67.7384 162.598 69.2801 163.037C70.843 163.376 74.5228 163.079 75.5979 161.896" fill="#AE7461"/>
<path d="M75.5979 161.896C75.5979 161.896 75.5317 162.004 75.3581 162.169C75.0826 162.385 74.7759 162.558 74.4484 162.682C73.2501 163.114 71.9845 163.33 70.7107 163.319C69.82 163.336 68.9339 163.188 68.0976 162.88C67.156 162.519 66.2413 162.09 65.3605 161.599C64.4135 161.062 63.4165 160.619 62.3835 160.276C61.8475 160.104 61.2917 160.001 60.7297 159.97C60.1354 159.97 59.5418 160.006 58.9518 160.077C58.3071 160.153 57.6545 160.029 57.0829 159.721C56.7888 159.557 56.5519 159.306 56.4041 159.003C56.2563 158.7 56.2046 158.359 56.256 158.026C56.3448 157.409 56.6713 156.851 57.1656 156.472C57.625 156.136 58.1443 155.892 58.6954 155.752C60.5349 155.328 62.4285 155.188 64.3103 155.339L68.0811 155.537C68.5462 155.539 69.0105 155.575 69.4703 155.645C69.3517 155.676 69.2291 155.69 69.1065 155.686C68.8749 155.686 68.5276 155.686 68.0811 155.686C67.188 155.686 65.898 155.686 64.302 155.612C62.4547 155.515 60.6031 155.682 58.8029 156.108C58.3064 156.243 57.8385 156.467 57.422 156.769C57.0131 157.084 56.7455 157.548 56.6777 158.059C56.6394 158.308 56.6782 158.563 56.7891 158.789C56.9 159.016 57.0776 159.202 57.2979 159.325C57.8042 159.595 58.3829 159.699 58.9518 159.622C59.5557 159.552 60.1631 159.517 60.771 159.515C61.3722 159.552 61.9665 159.663 62.5407 159.846C63.5976 160.206 64.6168 160.668 65.5838 161.226C67.4195 162.244 69.1478 163.054 70.7438 162.988C71.9887 163.024 73.2312 162.859 74.4236 162.5C74.8453 162.364 75.2419 162.16 75.5979 161.896Z" fill="#6F4439"/>
<path d="M57.1738 154.752C57.1738 154.801 56.81 154.983 56.165 155.099C55.3452 155.24 54.5158 155.317 53.6842 155.331C52.4916 155.429 51.291 155.354 50.1201 155.107C51.2962 154.926 52.4868 154.857 53.6759 154.901C54.6517 154.901 55.5365 154.843 56.1567 154.801C56.4925 154.743 56.834 154.727 57.1738 154.752Z" fill="#6F4439"/>
<path d="M61.3994 163.79C59.9133 164.028 58.3939 163.955 56.9376 163.575C55.4813 163.195 54.12 162.516 52.9399 161.582C54.2835 162.198 55.6644 162.728 57.0746 163.17C58.503 163.46 59.947 163.667 61.3994 163.79Z" fill="#6F4439"/>
<path d="M56.1154 159.473C56.7489 159.348 57.4048 159.403 58.009 159.631C58.6511 159.717 59.2574 159.977 59.7621 160.383C59.1295 160.38 58.5025 160.265 57.9098 160.044C57.2833 159.959 56.6762 159.766 56.1154 159.473Z" fill="#6F4439"/>
<path d="M17.2167 165.965L38.0801 155.794C38.2475 155.71 38.4344 155.674 38.6208 155.689C38.8071 155.703 38.9861 155.768 39.1386 155.876L62.0776 170.455C62.2078 170.544 62.3177 170.659 62.4002 170.793C62.4827 170.927 62.5358 171.078 62.5561 171.234C62.5764 171.39 62.5634 171.549 62.518 171.7C62.4726 171.85 62.3958 171.99 62.2926 172.109L50.1698 188.267L17.2167 165.965Z" fill="#263238"/>
<path d="M19.8214 166.709L47.9039 185.199L60.6552 170.976L38.5514 157.249L19.8214 166.709Z" fill="white"/>
<path d="M30.7369 161.202L54.8419 177.467L47.9039 185.199L19.8214 166.709L30.7369 161.202Z" fill="#E0E0E0"/>
<path d="M43.0581 161.681L39.37 164.675C39.3113 164.726 39.2427 164.764 39.1686 164.788C39.0944 164.812 39.0162 164.82 38.9387 164.812C38.8612 164.804 38.7862 164.781 38.7181 164.743C38.6501 164.705 38.5905 164.654 38.5431 164.592C38.492 164.533 38.4535 164.465 38.4298 164.391C38.4062 164.317 38.398 164.238 38.4058 164.161C38.4135 164.083 38.437 164.008 38.4749 163.94C38.5127 163.872 38.5641 163.813 38.6258 163.765L42.3139 160.772C42.3726 160.721 42.4412 160.682 42.5154 160.658C42.5895 160.635 42.6678 160.627 42.7452 160.634C42.8227 160.642 42.8977 160.666 42.9658 160.704C43.0338 160.741 43.0934 160.793 43.1408 160.854C43.1908 160.914 43.2284 160.982 43.2514 161.056C43.2743 161.13 43.2822 161.208 43.2745 161.285C43.2667 161.363 43.2436 161.437 43.2065 161.505C43.1693 161.573 43.1189 161.633 43.0581 161.681Z" fill="#E0E0E0"/>
<path d="M44.7203 163.038L41.0404 166.031C40.9817 166.082 40.9132 166.121 40.839 166.144C40.7648 166.168 40.6866 166.176 40.6091 166.168C40.5317 166.161 40.4566 166.137 40.3886 166.099C40.3205 166.061 40.261 166.01 40.2135 165.948C40.1624 165.89 40.1239 165.821 40.1003 165.747C40.0766 165.673 40.0684 165.594 40.0762 165.517C40.0839 165.439 40.1075 165.364 40.1453 165.296C40.1831 165.228 40.2345 165.169 40.2962 165.121L43.9843 162.128C44.0425 162.076 44.1109 162.036 44.1853 162.012C44.2596 161.987 44.3382 161.979 44.416 161.987C44.4939 161.994 44.5692 162.018 44.6372 162.057C44.7053 162.095 44.7646 162.148 44.8112 162.211C44.8619 162.27 44.8999 162.339 44.9228 162.413C44.9458 162.488 44.9532 162.566 44.9447 162.644C44.9362 162.721 44.9119 162.796 44.8733 162.864C44.8347 162.932 44.7826 162.991 44.7203 163.038Z" fill="#E0E0E0"/>
<path d="M46.5065 164.625L42.8184 167.619C42.7608 167.672 42.6924 167.713 42.6179 167.738C42.5434 167.763 42.4644 167.772 42.3862 167.764C42.308 167.756 42.2324 167.732 42.1643 167.692C42.0962 167.653 42.0373 167.6 41.9914 167.536C41.9379 167.478 41.8973 167.41 41.8723 167.336C41.8472 167.261 41.8383 167.182 41.8461 167.104C41.854 167.026 41.8783 166.95 41.9176 166.882C41.9569 166.814 42.0103 166.755 42.0741 166.709L45.754 163.707C45.8127 163.656 45.8812 163.618 45.9554 163.594C46.0296 163.57 46.1078 163.562 46.1853 163.57C46.2627 163.578 46.3378 163.601 46.4058 163.639C46.4739 163.677 46.5334 163.728 46.5809 163.79C46.6338 163.848 46.674 163.917 46.6991 163.992C46.7242 164.066 46.7335 164.145 46.7265 164.224C46.7195 164.302 46.6964 164.379 46.6585 164.448C46.6206 164.517 46.5689 164.577 46.5065 164.625Z" fill="#E0E0E0"/>
<path d="M47.2424 166.783L45.1503 168.487C45.0911 168.537 45.0224 168.575 44.9484 168.597C44.8744 168.62 44.7965 168.628 44.7193 168.621C44.6422 168.613 44.5674 168.59 44.4994 168.553C44.4314 168.515 44.3715 168.465 44.3234 168.404C44.2723 168.345 44.2337 168.277 44.2101 168.203C44.1865 168.129 44.1783 168.05 44.1861 167.973C44.1938 167.895 44.2173 167.82 44.2552 167.752C44.293 167.684 44.3444 167.625 44.4061 167.577L46.4982 165.874C46.5574 165.824 46.6261 165.786 46.7001 165.763C46.7742 165.74 46.852 165.732 46.9292 165.74C47.0063 165.748 47.0811 165.771 47.1491 165.808C47.2171 165.845 47.277 165.896 47.3251 165.957C47.3762 166.015 47.4148 166.084 47.4384 166.158C47.462 166.232 47.4702 166.31 47.4624 166.388C47.4547 166.465 47.4312 166.54 47.3933 166.608C47.3555 166.676 47.3042 166.736 47.2424 166.783Z" fill="#E0E0E0"/>
<path d="M39.9572 161.177L37.526 162.88C37.4641 162.93 37.3925 162.965 37.3158 162.985C37.2391 163.005 37.1591 163.008 37.0811 162.995C37.003 162.982 36.9286 162.952 36.8628 162.908C36.797 162.864 36.7412 162.807 36.6991 162.74C36.6565 162.679 36.6263 162.61 36.6103 162.538C36.5943 162.466 36.5928 162.391 36.6058 162.318C36.6189 162.245 36.6463 162.175 36.6864 162.113C36.7265 162.05 36.7786 161.996 36.8397 161.954L39.2874 160.242C39.3502 160.195 39.4219 160.162 39.4982 160.143C39.5744 160.125 39.6536 160.122 39.731 160.135C39.8083 160.149 39.8822 160.177 39.9481 160.22C40.014 160.262 40.0705 160.318 40.1143 160.383C40.1563 160.445 40.1856 160.515 40.2004 160.589C40.2153 160.663 40.2154 160.739 40.2008 160.813C40.1862 160.886 40.1572 160.957 40.1154 161.019C40.0735 161.082 40.0198 161.135 39.9572 161.177Z" fill="#FF725E"/>
<path d="M52.5182 169.33L50.4178 171.431C50.3651 171.488 50.3012 171.534 50.2301 171.565C50.1589 171.596 50.082 171.612 50.0043 171.612C49.9266 171.612 49.8498 171.596 49.7786 171.565C49.7075 171.534 49.6435 171.488 49.5909 171.431C49.5337 171.378 49.4881 171.314 49.457 171.243C49.4258 171.172 49.4097 171.095 49.4097 171.017C49.4097 170.94 49.4258 170.863 49.457 170.792C49.4881 170.721 49.5337 170.657 49.5909 170.604L51.6913 168.528C51.7439 168.471 51.8079 168.426 51.879 168.394C51.9502 168.363 52.027 168.347 52.1047 168.347C52.1824 168.347 52.2593 168.363 52.3305 168.394C52.4016 168.426 52.4655 168.471 52.5182 168.528C52.5715 168.581 52.6138 168.643 52.6426 168.712C52.6715 168.781 52.6864 168.855 52.6864 168.929C52.6864 169.004 52.6715 169.078 52.6426 169.147C52.6138 169.216 52.5715 169.278 52.5182 169.33Z" fill="#FF725E"/>
<path d="M50.1698 188.267C50.0395 188.471 49.8702 188.648 49.6717 188.787C49.4732 188.925 49.2493 189.024 49.0128 189.076C48.7762 189.128 48.5318 189.133 48.2933 189.091C48.0548 189.049 47.827 188.96 47.6228 188.829L16.9603 169.206C16.7561 169.076 16.5796 168.907 16.4408 168.708C16.302 168.51 16.2037 168.286 16.1515 168.049C16.0993 167.813 16.0942 167.568 16.1365 167.33C16.1788 167.091 16.2676 166.864 16.398 166.66C16.6624 166.249 17.0792 165.959 17.5568 165.855C18.0343 165.751 18.5336 165.841 18.9449 166.105L49.6074 185.72C49.8116 185.851 49.9881 186.02 50.1269 186.218C50.2657 186.417 50.364 186.641 50.4162 186.877C50.4684 187.114 50.4735 187.358 50.4312 187.597C50.389 187.835 50.3001 188.063 50.1698 188.267Z" fill="#263238"/>
<path d="M285.712 128.125L286.605 106.277C286.605 106.277 308.974 101.431 309.528 97.4124L267.354 92.5667L264.568 126.562L285.712 128.125Z" fill="#455A64"/>
<g opacity="0.6">
<path d="M273.374 107.104C272.977 106.948 272.651 106.651 272.459 106.269C272.267 105.888 272.222 105.449 272.333 105.037C272.471 104.633 272.76 104.298 273.139 104.103C273.518 103.907 273.958 103.865 274.367 103.987C274.788 104.152 275.133 104.467 275.336 104.872C275.539 105.276 275.586 105.741 275.467 106.178C275.27 106.576 274.928 106.884 274.511 107.038C274.094 107.192 273.634 107.18 273.226 107.005" fill="white"/>
</g>
<path d="M267.363 92.5667L267.082 95.9984L307.957 99.2482C308.412 99.0728 308.816 98.7866 309.132 98.4155C309.448 98.0443 309.667 97.6001 309.768 97.123L267.363 92.5667Z" fill="#263238"/>
<path d="M287.267 106.542C287.267 106.335 286.25 106.161 285.291 105.425C284.331 104.689 283.843 103.771 283.637 103.838C283.43 103.904 283.637 105.119 284.836 105.996C286.035 106.872 287.3 106.74 287.267 106.542Z" fill="#263238"/>
<path d="M291.848 105.053C291.906 104.855 291.021 104.433 290.409 103.507C289.797 102.581 289.64 101.638 289.433 101.63C289.227 101.621 289.003 102.779 289.822 103.92C290.641 105.061 291.823 105.243 291.848 105.053Z" fill="#263238"/>
<path d="M294.809 99.9345C294.627 99.8766 294.254 100.885 294.701 102.06C295.148 103.234 296.074 103.755 296.173 103.59C296.272 103.424 295.726 102.763 295.346 101.803C294.966 100.844 294.982 99.9676 294.809 99.9345Z" fill="#263238"/>
<path d="M286.539 111.503C286.465 111.305 285.497 111.503 284.331 111.346C283.165 111.189 282.289 110.742 282.173 110.908C282.057 111.073 282.868 111.884 284.24 112.066C285.613 112.247 286.605 111.669 286.539 111.503Z" fill="#263238"/>
<g opacity="0.3">
<path d="M285.712 128.125L286.605 106.277C286.605 106.277 308.974 101.431 309.528 97.4124L267.354 92.5667L264.568 126.562L285.712 128.125Z" fill="black"/>
</g>
<path d="M289.252 112.099C288.913 112.785 286.374 176.219 286.374 176.219L264.535 167.602C262.023 162.276 260.926 156.392 261.351 150.518C262.029 140.644 267.818 110.346 267.818 110.346L289.252 112.099Z" fill="#263238"/>
<path d="M283.422 129.514L272.87 110.362C272.87 110.362 289.483 94.6504 287.879 90.9044L249.327 108.609L264.559 139.123L283.422 129.514Z" fill="#455A64"/>
<g opacity="0.6">
<path d="M261.988 117.92C261.567 117.996 261.134 117.913 260.772 117.686C260.409 117.46 260.144 117.107 260.028 116.696C259.937 116.28 260.01 115.845 260.232 115.482C260.454 115.118 260.807 114.854 261.219 114.745C261.665 114.666 262.125 114.757 262.508 114.998C262.892 115.24 263.172 115.615 263.294 116.051C263.342 116.496 263.215 116.942 262.94 117.295C262.666 117.648 262.265 117.881 261.822 117.945" fill="white"/>
</g>
<path d="M249.327 108.609L250.865 111.685L287.507 93.286C287.806 92.9012 288.004 92.4477 288.083 91.9669C288.163 91.486 288.121 90.9929 287.962 90.5323L249.327 108.609Z" fill="#263238"/>
<path d="M273.581 110.246C273.482 110.065 272.514 110.445 271.299 110.313C270.083 110.18 269.215 109.643 269.083 109.808C268.95 109.974 269.761 110.891 271.233 111.032C272.705 111.173 273.705 110.395 273.581 110.246Z" fill="#263238"/>
<path d="M276.723 106.6C276.674 106.393 275.715 106.484 274.689 106.021C273.664 105.558 273.035 104.822 272.887 104.921C272.738 105.02 273.118 106.128 274.4 106.682C275.682 107.236 276.806 106.773 276.723 106.6Z" fill="#263238"/>
<path d="M276.616 100.704C276.426 100.745 276.616 101.803 277.625 102.572C278.634 103.341 279.676 103.317 279.676 103.118C279.676 102.92 278.849 102.655 278.071 102.01C277.294 101.365 276.765 100.629 276.616 100.704Z" fill="#263238"/>
<path d="M275.5 114.877C275.334 114.745 274.615 115.431 273.54 115.886C272.465 116.341 271.473 116.432 271.456 116.638C271.439 116.845 272.556 117.11 273.821 116.548C275.086 115.985 275.665 114.976 275.5 114.877Z" fill="#263238"/>
<g opacity="0.3">
<path d="M281.33 125.727L279.452 122.311L260.929 131.887L262.484 135.029L281.33 125.727Z" fill="black"/>
</g>
<path d="M177.451 157.398L183.562 155.455C183.562 155.455 194.791 146.433 207.394 147.624C215.384 148.506 223.128 150.924 230.201 154.743L243.307 161.921L277.005 170.943L257.597 125.197L276.757 117.25C276.757 117.25 295.908 148.095 301.697 156.778C307.485 165.46 311.885 174.226 312.571 181.379C313.257 188.532 307.874 198.538 293.064 200.241C278.253 201.945 214.869 197.711 214.869 197.711L166.08 196.305L177.451 157.398Z" fill="#263238"/>
<path d="M177.451 157.398C177.451 157.398 177.393 157.629 177.269 158.068C177.145 158.506 176.963 159.176 176.715 160.036C176.219 161.772 175.483 164.327 174.523 167.652C172.605 174.267 169.793 184.008 166.254 196.297L166.138 196.139L201.06 197.14C214.208 197.289 228.72 198.496 244.366 199.216C252.189 199.596 260.292 199.96 268.636 200.208C272.771 200.315 277.054 200.415 281.346 200.423C283.488 200.423 285.654 200.423 287.821 200.34C288.904 200.34 289.996 200.282 291.079 200.175C292.171 200.121 293.259 200.005 294.337 199.828C298.75 199.265 302.921 197.491 306.385 194.701C308.135 193.284 309.573 191.52 310.607 189.521C311.642 187.521 312.251 185.329 312.397 183.082C312.43 182.518 312.43 181.952 312.397 181.387C312.323 180.816 312.273 180.246 312.166 179.684C311.979 178.552 311.722 177.434 311.397 176.334C310.731 174.107 309.902 171.932 308.916 169.827C306.919 165.565 304.602 161.46 301.986 157.547C297.479 150.724 293.204 143.878 288.979 137.163L276.575 117.317L276.839 117.399L257.671 125.338L257.787 125.065L277.17 170.868L277.319 171.208L276.955 171.117L243.266 162.078L233.161 156.53C231.507 155.653 229.977 154.735 228.398 153.95C226.818 153.164 225.231 152.461 223.659 151.833C217.998 149.503 211.997 148.107 205.889 147.698C203.338 147.635 200.791 147.913 198.314 148.525C196.182 149.055 194.099 149.766 192.087 150.65C189.087 151.951 186.248 153.597 183.628 155.554L179.014 156.993L177.5 157.447L178.98 156.951L183.595 155.455C186.213 153.479 189.052 151.814 192.054 150.493C194.071 149.597 196.159 148.872 198.298 148.326C200.795 147.718 203.361 147.44 205.93 147.499C212.069 147.902 218.101 149.298 223.792 151.634C225.368 152.263 226.956 152.965 228.555 153.743C230.151 154.57 231.714 155.455 233.335 156.323L243.448 161.855L277.154 170.852L276.939 171.1L257.514 125.321L257.431 125.131L257.621 125.048L276.781 117.102L276.947 117.035L277.046 117.184L289.45 137.031C293.684 143.745 297.959 150.592 302.458 157.406C305.091 161.331 307.419 165.453 309.42 169.736C310.407 171.86 311.237 174.055 311.901 176.301C312.23 177.42 312.49 178.558 312.678 179.708C312.794 180.279 312.844 180.858 312.918 181.437C312.993 182.015 313.001 182.603 312.918 183.19C312.773 185.496 312.151 187.746 311.09 189.799C310.03 191.852 308.554 193.662 306.758 195.114C303.23 197.942 298.988 199.737 294.502 200.299C293.407 200.477 292.303 200.593 291.195 200.646C290.103 200.754 289.003 200.779 287.887 200.812C285.704 200.894 283.546 200.886 281.396 200.894C277.096 200.894 272.853 200.779 268.677 200.663C260.326 200.415 252.213 200.043 244.391 199.654C228.745 198.91 214.241 197.686 201.093 197.52L166.163 196.478H166.006V196.321L174.432 167.668L176.673 160.085C176.93 159.258 177.12 158.589 177.26 158.142C177.401 157.695 177.451 157.398 177.451 157.398Z" fill="#455A64"/>
<path d="M274.689 170.207C274.952 170.201 275.214 170.234 275.466 170.306C275.971 170.397 276.682 170.554 277.567 170.769C279.878 171.306 282.129 172.079 284.282 173.076C286.462 174.073 288.39 175.549 289.921 177.393C290.184 177.708 290.427 178.04 290.649 178.385C290.834 178.647 290.997 178.924 291.137 179.212C291.282 179.436 291.396 179.678 291.476 179.932C291.401 179.973 290.864 178.972 289.69 177.625C288.129 175.878 286.226 174.471 284.1 173.49C281.963 172.511 279.751 171.706 277.484 171.084C276.536 170.846 275.603 170.554 274.689 170.207Z" fill="#455A64"/>
<path d="M64.2192 184.62C64.2192 184.62 55.5778 179.708 53.8991 179.609C51.4928 179.46 40.8998 179.824 39.6015 179.741C39.3647 179.726 39.1284 179.778 38.9193 179.89C38.7101 180.002 38.5364 180.17 38.4178 180.376C38.2991 180.581 38.2402 180.816 38.2478 181.053C38.2553 181.29 38.3289 181.52 38.4604 181.718C38.9483 182.545 40.1142 183.884 43.422 183.802C45.4502 183.672 47.4838 183.953 49.4007 184.629C50.2276 184.959 49.9878 185.96 49.9878 185.96C49.9878 185.96 45.2329 186.216 43.852 185.894C41.95 185.447 35.6736 181.18 35.6736 181.18L33.1928 179.584C33.1928 179.584 32.1426 180.858 33.78 183.231C34.9049 184.816 36.1372 186.322 37.4681 187.738C37.4681 187.738 35.1527 189.144 37.1538 191.352C37.1538 191.352 35.7067 194.08 38.9979 195.668C39.4695 196.838 40.2054 197.882 41.1479 198.72C42.1485 199.546 44.6789 199.365 46.2335 199.464C48.5548 199.483 50.8734 199.3 53.1632 198.918C55.2234 198.479 57.258 197.927 59.2577 197.264L67.0887 197.711L67.7998 184.372L64.2192 184.62Z" fill="#AE7461"/>
<path d="M42.4296 190.525C41.3611 190.322 40.3401 189.921 39.4196 189.342C38.4305 188.89 37.5334 188.259 36.7734 187.482C37.7646 187.897 38.719 188.394 39.6263 188.97C40.6014 189.411 41.5389 189.931 42.4296 190.525Z" fill="#6F4439"/>
<path d="M41.3961 193.485C40.5133 193.42 39.6606 193.136 38.9153 192.658C38.1168 192.316 37.4131 191.785 36.8645 191.112C37.6478 191.432 38.4006 191.822 39.1137 192.278C39.9087 192.612 40.6724 193.016 41.3961 193.485Z" fill="#6F4439"/>
<path d="M41.578 196.694C40.8129 196.704 40.0609 196.494 39.4114 196.09C38.699 195.813 38.0816 195.336 37.6335 194.717C38.3237 194.981 38.9857 195.314 39.6099 195.709C40.297 195.971 40.9563 196.301 41.578 196.694Z" fill="#6F4439"/>
<g opacity="0.3">
<path d="M128.058 184.943C132.474 179.154 134.74 172.001 135.658 164.799C136.576 157.596 136.361 150.741 136.005 143.505C134.593 157.527 131.934 171.394 128.058 184.943Z" fill="black"/>
</g>
<path d="M136.774 135.12C136.848 135.856 136.774 133.516 136.774 134.293C136.567 144.217 130.746 186.299 123.179 194.494C117.391 200.754 63.2931 198.091 63.2931 198.091L63.8885 183.992C63.8885 183.992 65.3439 183.57 75.0603 182.338C84.7767 181.106 104.615 176.062 104.615 176.062L111.23 131.995" fill="#92B158"/>
<path d="M111.23 131.995C111.23 131.995 111.23 132.259 111.139 132.822L110.817 135.137C110.519 137.179 110.081 140.165 109.518 143.985C108.377 151.651 106.74 162.674 104.731 176.12V176.235H104.623C98.8345 177.716 92.4837 179.254 85.6698 180.692C82.2628 181.404 78.7401 182.098 75.0768 182.586C71.4135 183.074 67.6345 183.496 63.9298 184.24L64.0787 184.042C63.8885 188.54 63.69 193.295 63.4916 198.141L63.2848 197.917C67.1052 198.091 71.1572 198.223 75.267 198.323C83.0071 198.505 90.5652 198.546 97.867 198.323C101.514 198.215 105.094 198.05 108.617 197.769C112.029 197.544 115.418 197.057 118.755 196.313C119.557 196.116 120.344 195.865 121.112 195.561C121.864 195.296 122.545 194.863 123.105 194.295C124.122 193.068 124.957 191.7 125.586 190.235C126.835 187.423 127.879 184.524 128.711 181.561C130.365 175.838 131.531 170.397 132.499 165.419C134.409 155.455 135.492 147.309 136.121 141.67C136.435 138.85 136.617 136.65 136.691 135.162C136.691 134.79 136.691 134.459 136.741 134.178C136.741 134.178 136.741 134.178 136.782 134.178V134.864C136.782 135.054 136.782 135.195 136.733 135.302C136.725 135.25 136.725 135.197 136.733 135.145C136.733 135.145 136.733 135.203 136.733 135.286C136.733 135.203 136.733 135.054 136.733 134.864V134.211C136.733 134.211 136.733 134.211 136.791 134.211C136.791 134.497 136.791 134.828 136.791 135.203C136.741 136.692 136.584 138.891 136.303 141.719C135.724 147.367 134.649 155.529 132.805 165.51C131.854 170.472 130.704 175.946 129.059 181.693C128.231 184.675 127.189 187.593 125.941 190.425C125.292 191.915 124.437 193.307 123.403 194.56C122.801 195.167 122.072 195.633 121.269 195.925C120.487 196.239 119.682 196.496 118.863 196.694C115.499 197.451 112.082 197.949 108.642 198.182C105.136 198.471 101.547 198.645 97.8918 198.753C90.5817 198.959 83.0071 198.918 75.267 198.753C71.1324 198.653 67.1052 198.521 63.2848 198.347H63.0698V198.141C63.2766 193.287 63.475 188.54 63.6735 184.042V183.884H63.8223C65.7491 183.471 67.6179 183.239 69.4951 182.967L75.0355 182.247C78.674 181.767 82.1967 181.073 85.5954 180.37C92.4093 178.948 98.7518 177.426 104.54 175.962L104.416 176.103C106.484 162.665 108.179 151.651 109.378 143.985C109.973 140.173 110.445 137.196 110.767 135.154C110.924 134.153 111.048 133.376 111.139 132.846C111.23 132.317 111.23 131.995 111.23 131.995Z" fill="#263238"/>
</svg>
