<svg width="256" height="224" viewBox="0 0 256 224" fill="none" xmlns="http://www.w3.org/2000/svg">
<path d="M178.094 111.678C174.326 109.318 170.067 107.852 165.644 107.391C163.611 107.185 161.381 107.243 159.752 108.477C159.564 108.587 159.408 108.744 159.301 108.934C159.194 109.123 159.139 109.338 159.143 109.555C159.24 109.861 159.444 110.121 159.719 110.288C164.788 114.155 172.449 114.641 178.094 111.678Z" fill="#E0E0E0"/>
<path d="M177.774 111.325C174.889 109.211 172.199 106.845 169.734 104.256C167.261 101.646 165.521 98.4296 164.689 94.9321C164.528 94.4142 164.48 93.8678 164.548 93.3298C164.617 92.7918 164.799 92.2747 165.084 91.8132C171.495 96.8166 176.531 103.334 177.774 111.325Z" fill="#E0E0E0"/>
<path d="M178.029 111.629C177.431 108.13 177.482 104.552 178.177 101.071C178.893 97.5671 180.899 94.4598 183.797 92.3646C184.908 94.9485 184.431 97.9357 183.649 100.643C182.443 104.833 180.559 108.798 178.07 112.378" fill="#E0E0E0"/>
<path d="M184.308 122.911C180.497 123.372 177.173 125.38 174.326 127.964C171.469 130.557 169.476 133.963 168.615 137.724C172.359 137.493 175.527 134.852 177.831 131.898C180.135 128.943 181.732 125.693 184.258 122.928" fill="#E0E0E0"/>
<path d="M185.674 124.689C184.172 120.877 183.647 116.75 184.144 112.683C184.641 108.617 186.146 104.738 188.521 101.4C190.693 109.127 189.895 117.858 185.674 124.689Z" fill="#E0E0E0"/>
<path d="M193.977 134.58C190.49 134.361 187.015 135.173 183.987 136.916C180.959 138.659 178.512 141.256 176.951 144.381C176.813 144.572 176.73 144.797 176.71 145.032C176.689 145.266 176.733 145.502 176.835 145.714C176.982 145.858 177.161 145.963 177.358 146.02C177.554 146.078 177.762 146.086 177.963 146.043C181.32 145.829 184.291 143.813 186.752 141.509C189.212 139.205 191.343 136.572 194.051 134.572" fill="#E0E0E0"/>
<path d="M193.713 134.037C191.926 128.284 191.815 122.142 193.393 116.328C194.018 114.048 195.038 111.646 197.178 110.568C197.262 110.512 197.356 110.474 197.456 110.457C197.555 110.44 197.656 110.444 197.754 110.469C197.925 110.556 198.055 110.707 198.116 110.888C198.826 112.485 199.134 114.231 199.013 115.974C198.879 117.708 198.603 119.428 198.19 121.117C197.524 124.261 197.17 127.643 195.45 130.35C195.04 131.004 194.672 131.683 194.347 132.383C194.026 133.066 194.026 133.313 193.722 133.856" fill="#E0E0E0"/>
<path d="M215.685 137.312C214.039 131.124 215.784 123.611 219.693 118.533C219.981 118.163 220.359 117.76 220.829 117.801C221.544 117.867 221.734 118.83 221.701 119.545C221.407 125.916 219.322 132.074 215.685 137.312Z" fill="#E0E0E0"/>
<path d="M217.668 138.67C225.198 140.629 233.822 138.719 240.085 134.111C236.334 132.222 232.043 131.695 227.947 132.622C223.898 133.543 220.195 135.362 217.668 138.67Z" fill="#E0E0E0"/>
<path d="M219.339 134.547C223.552 127.676 231.633 123.191 239.682 122.78C238.76 126.071 236.069 128.598 233.032 130.136C229.996 131.675 226.605 132.342 223.264 132.992C221.964 133.247 220.187 133.527 219.339 134.547Z" fill="#E0E0E0"/>
<path d="M216.105 114.534C217.396 110.664 218.282 106.671 218.747 102.618C219.059 98.5611 218.483 94.3231 216.377 90.8339C212.443 98.4541 212.04 107.35 216.031 114.945" fill="#E0E0E0"/>
<path d="M229.362 107.835C233.962 99.4663 243.352 92.7843 252.856 91.8461C249.194 100.981 239.196 108.033 229.362 107.835Z" fill="#E0E0E0"/>
<path d="M226.466 109.473C233.329 110.518 239.18 114.904 245.598 117.562C246.943 118.207 248.432 118.49 249.919 118.385C250.61 118.375 251.282 118.153 251.844 117.749C252.406 117.346 252.831 116.78 253.062 116.128C253.294 115.476 253.32 114.768 253.137 114.101C252.955 113.434 252.573 112.838 252.042 112.394C251.132 111.556 250.063 110.91 248.898 110.493C241.912 107.58 234.415 107.506 227.058 109.276" fill="#E0E0E0"/>
<path d="M222.491 114.287C224.046 114.731 224.573 115.538 225.783 116.591C229.981 120.157 234.946 122.706 240.291 124.039C240.842 124.178 241.574 124.236 241.846 123.734C242.117 123.232 241.78 122.763 241.467 122.376C239.143 119.646 236.127 117.591 232.736 116.427C229.387 115.184 226.49 113.678 222.491 113.999" fill="#E0E0E0"/>
<path d="M218.006 85.2052C220.82 87.8025 224.147 89.7821 227.772 91.0165C231.398 92.2509 235.241 92.7129 239.056 92.3728C239.406 92.378 239.745 92.2551 240.011 92.0272C240.546 91.4511 239.912 90.5624 239.295 90.0769C233.106 85.2546 225.61 83.2549 218.006 85.2052Z" fill="#E0E0E0"/>
<path d="M223.322 83.2631C227.049 80.5224 231.371 78.7011 235.936 77.9475C240.501 77.1938 245.179 77.5292 249.59 78.9263C246.154 82.1136 241.744 84.0502 237.073 84.4234C232.457 84.8407 227.803 84.4481 223.322 83.2631Z" fill="#E0E0E0"/>
<path d="M221.215 69.8989C220.615 63.7188 221.001 58.8472 220.573 52.6177C220.573 52.1239 220.434 51.5232 219.973 51.3422C219.323 51.0953 218.788 51.8935 218.574 52.5519C217.673 55.427 217.442 58.4702 217.898 61.4484C218.355 64.4266 219.487 67.2609 221.207 69.7344" fill="#E0E0E0"/>
<path d="M220.763 70.582C224.799 67.9745 228.278 64.593 231 60.6329C233.016 57.8679 234.719 54.5598 234.291 51.1611C232.864 51.1976 231.462 51.5449 230.183 52.1788C228.904 52.8127 227.779 53.7179 226.885 54.8313C225.118 57.0667 223.835 59.6448 223.116 62.4022C222.293 65.1178 221.726 67.9075 220.763 70.582Z" fill="#E0E0E0"/>
<path d="M230.819 67.7758C240.025 64.3728 248.552 59.357 256 52.9633C252.988 51.7536 249.548 52.4778 246.536 53.6957C239.673 56.469 234.053 61.1513 230.687 67.7429" fill="#E0E0E0"/>
<path d="M223.594 73.9641C228.243 74.4661 232.967 74.7871 237.583 74.03C242.2 73.2729 246.397 71.4707 250.635 69.6932C251.004 69.5867 251.321 69.3461 251.523 69.0184C251.59 68.8214 251.595 68.6086 251.538 68.4086C251.481 68.2085 251.364 68.0308 251.202 67.8993C250.877 67.6438 250.496 67.4664 250.091 67.3808C245.483 66.0888 240.513 66.6978 235.987 68.2037C231.668 69.684 227.516 71.6148 223.602 73.9641" fill="#E0E0E0"/>
<path d="M197.054 85.4192C193.878 79.0169 194.084 71.5448 196.824 64.9532C198.75 67.8911 198.988 71.6271 198.634 75.1245C198.281 78.6219 197.219 82.2262 197.153 85.7401" fill="#E0E0E0"/>
<path d="M184.382 79.0333C180.41 78.9814 176.471 79.7597 172.818 81.3185C169.165 82.8774 165.877 85.1822 163.167 88.0854C167.117 88.7026 171.19 87.6822 174.786 85.9294C178.321 84.0527 181.655 81.8192 184.735 79.2637" fill="#E0E0E0"/>
<path d="M175.864 76.1778C171.988 75.8651 168.261 75.3549 164.541 76.5317C162.66 77.0566 160.914 77.9822 159.424 79.2449C157.934 80.5077 156.735 82.0777 155.909 83.8474C159.563 84.1435 163.23 83.4499 166.524 81.8395C169.803 80.2398 172.929 78.3447 175.864 76.1778Z" fill="#E0E0E0"/>
<path d="M188.471 76.3095C184.991 74.03 181.411 71.7011 177.354 70.7548C173.297 69.8084 168.598 70.5079 165.767 73.5691C169.059 75.4948 173.034 75.7252 176.844 75.7169C180.654 75.7087 185.32 75.717 188.908 76.9431" fill="#E0E0E0"/>
<path d="M188.496 76.4987C182.538 70.6478 180.267 60.1391 182.678 52.1404C187.382 59.34 189.439 67.9503 188.496 76.4987Z" fill="#E0E0E0"/>
<path d="M204.88 59.917C206 57.3083 206.79 54.568 207.802 51.91C208.716 49.2034 210.128 46.6915 211.966 44.5038C213.836 42.3057 216.497 40.9336 219.372 40.6854C218.457 44.7159 216.71 48.511 214.245 51.8282C211.779 55.1454 208.649 57.9115 205.053 59.9499" fill="#E0E0E0"/>
<path d="M201.91 63.3732C200.05 60.8139 197.902 57.3412 195.384 55.432C192.866 53.5229 189.582 52.3626 186.505 53.095C188.097 55.8872 190.319 58.2699 192.993 60.054C195.667 61.8381 198.72 62.9746 201.91 63.3732Z" fill="#E0E0E0"/>
<path d="M202.502 60.131C201.168 57.0808 200.182 53.8896 199.564 50.618C198.954 47.3166 199.479 43.9057 201.054 40.9406C204.346 47.1207 205.382 53.7534 202.7 60.205" fill="#E0E0E0"/>
<path d="M204.905 40.9405C206.757 34.8098 212.369 30.3002 218.426 28.2265C219.176 27.9227 219.989 27.8014 220.796 27.8726C221.198 27.9167 221.579 28.0783 221.891 28.3373C222.203 28.5963 222.431 28.9412 222.548 29.3292C222.771 30.3743 221.906 31.3124 221.1 32.0037C216.36 36.0452 210.851 39.0853 204.905 40.9405Z" fill="#E0E0E0"/>
<path d="M204.971 35.929C205.21 31.979 205.456 27.9714 206.74 24.2271C208.024 20.4828 210.501 16.969 214.105 15.3314C214.722 19.3225 212.961 23.289 210.814 26.7287C208.666 30.1685 206.131 33.4026 204.856 37.2292" fill="#E0E0E0"/>
<path d="M204.88 38.6446C203.35 34.1844 203.185 28.5063 200.511 24.655C198.643 21.9312 195.647 20.0796 194.043 17.1994C193.068 19.9612 193.201 22.9929 194.413 25.659C195.627 28.2942 197.298 30.6932 199.35 32.7443C201.325 34.851 203.021 36.4474 204.864 38.6775" fill="#E0E0E0"/>
<path d="M204.905 170.163C204.79 170.163 204.683 140.374 204.675 103.63C204.666 66.8871 204.757 37.0893 204.88 37.0893C205.004 37.0893 205.103 66.8789 205.111 103.63C205.119 140.382 205.028 170.163 204.905 170.163Z" fill="#E0E0E0"/>
<path d="M230.942 80.9425C230.581 81.112 230.207 81.2524 229.823 81.3622L226.737 82.3991C224.137 83.2878 220.565 84.5716 216.697 86.1598C212.83 87.748 209.242 89.1388 207.176 90.9245C206.354 91.6088 205.701 92.4733 205.267 93.4508C204.971 94.1503 204.913 94.5782 204.88 94.5782C204.847 94.5782 204.88 94.463 204.88 94.2655C204.927 93.9684 205.001 93.6764 205.103 93.3932C205.491 92.3522 206.133 91.4245 206.971 90.6941C208.21 89.6447 209.596 88.7824 211.085 88.1348C212.731 87.3612 214.574 86.5548 216.516 85.7566C220.401 84.1683 223.997 82.9257 226.63 82.1111C227.938 81.6996 229.017 81.4033 229.757 81.1976C230.143 81.0732 230.54 80.9877 230.942 80.9425Z" fill="#E0E0E0"/>
<path d="M239.476 59.9664C239.384 60.0871 239.279 60.1975 239.163 60.2955L238.208 61.1925L234.637 64.4348L222.754 75.0175C218.121 79.1321 214.113 83.0821 211.34 86.0528C209.95 87.5341 208.872 88.7684 208.106 89.6243C207.752 90.0193 207.473 90.3484 207.242 90.6118C207.012 90.8751 206.929 90.9492 206.921 90.9327C206.913 90.9163 206.995 90.7928 207.176 90.5542C207.357 90.3155 207.621 89.9617 207.999 89.5173C208.707 88.6203 209.769 87.3612 211.135 85.8471C214.723 81.9325 218.517 78.2104 222.499 74.6966C227.148 70.582 231.387 66.8789 234.456 64.2126L238.118 61.0691L239.13 60.2462C239.319 60.0404 239.468 59.9499 239.476 59.9664Z" fill="#E0E0E0"/>
<path d="M217.751 79.2144C217.627 79.1568 218.574 76.9184 219.561 74.0958C220.549 71.2732 221.001 68.8785 221.125 68.895C221.019 70.7214 220.631 72.5204 219.973 74.2275C219.559 75.4465 219.079 76.6416 218.533 77.8072C218.339 78.3105 218.076 78.7842 217.751 79.2144Z" fill="#E0E0E0"/>
<path d="M204.938 97.2445C204.672 96.9956 204.432 96.7198 204.222 96.4216L202.387 94.1092C200.848 92.1177 198.725 89.3774 196.347 86.3738C193.969 83.3701 191.771 80.6792 190.183 78.7289L188.299 76.3753C188.054 76.1005 187.836 75.8029 187.649 75.4866C187.931 75.7219 188.19 75.9837 188.422 76.2684C188.899 76.7786 189.574 77.5439 190.397 78.4902C192.043 80.3911 194.281 83.0574 196.668 86.0693C199.054 89.0812 201.136 91.8297 202.617 93.887C203.358 94.8992 203.942 95.7303 204.337 96.3146C204.563 96.6075 204.764 96.9185 204.938 97.2445Z" fill="#E0E0E0"/>
<path d="M199.227 89.9123C198.072 88.6404 197.249 87.1025 196.832 85.4356C196.389 83.9758 196.205 82.4494 196.289 80.9261H196.478C196.396 81.2717 196.339 81.4527 196.297 81.4445C196.256 81.4362 196.297 81.247 196.297 80.8931H196.487C196.579 82.3783 196.833 83.8491 197.244 85.2793C197.786 86.8716 198.449 88.4204 199.227 89.9123Z" fill="#E0E0E0"/>
<path d="M191.854 80.6463C191.35 80.2519 190.797 79.9254 190.208 79.6752C188.707 79.2258 187.128 79.0996 185.575 79.3049C184.001 79.4267 182.44 79.6799 180.909 80.062C180.278 80.2571 179.634 80.411 178.983 80.5228C179.554 80.1759 180.176 79.9205 180.827 79.7657C182.36 79.293 183.942 78.9948 185.542 78.877C187.154 78.6596 188.795 78.8375 190.323 79.3954C190.965 79.6188 191.507 80.0618 191.854 80.6463Z" fill="#E0E0E0"/>
<path d="M190.109 78.3997C190.109 78.4655 189.138 78.0047 187.55 77.4698C185.488 76.765 183.345 76.3226 181.172 76.1531C178.997 75.9947 176.811 76.1053 174.663 76.4823C173.017 76.7785 172.013 77.0912 171.988 77.0172C172.198 76.8829 172.429 76.7855 172.671 76.7292C173.302 76.5095 173.945 76.3282 174.597 76.186C178.954 75.2322 183.495 75.5785 187.657 77.1818C188.282 77.4184 188.892 77.6932 189.484 78.0047C189.711 78.103 189.922 78.2363 190.109 78.3997Z" fill="#E0E0E0"/>
<path d="M204.88 68.895C204.119 66.7788 203.495 64.6155 203.012 62.4187C202.391 60.257 201.908 58.0581 201.564 55.8353C202.321 57.956 202.944 60.1218 203.432 62.3199C204.053 64.479 204.536 66.675 204.88 68.895Z" fill="#E0E0E0"/>
<path d="M204.996 68.895C204.396 67.5576 203.706 66.2627 202.93 65.019C202.053 63.8457 201.03 62.7893 199.885 61.8755C200.319 61.9848 200.722 62.1933 201.062 62.4845C201.924 63.119 202.675 63.8921 203.284 64.7722C204.207 65.9718 204.798 67.394 204.996 68.895Z" fill="#E0E0E0"/>
<path d="M204.905 154.281C204.864 154.281 204.773 153.565 204.436 152.298C203.944 150.519 203.277 148.793 202.445 147.146C200.387 142.941 196.643 137.6 191.887 132.26C189.525 129.569 187.237 127.026 185.303 124.59C183.56 122.453 181.987 120.183 180.596 117.801C179.658 116.192 178.862 114.504 178.218 112.756C177.996 112.131 177.839 111.654 177.749 111.316C177.685 111.15 177.644 110.975 177.625 110.798C177.667 110.798 177.881 111.481 178.374 112.699C179.068 114.406 179.894 116.057 180.843 117.636C182.26 119.984 183.85 122.223 185.6 124.335C187.55 126.746 189.838 129.272 192.183 131.972C196.956 137.329 200.692 142.727 202.7 147.006C203.511 148.684 204.14 150.444 204.576 152.256C204.691 152.748 204.779 153.245 204.839 153.746C204.882 153.921 204.904 154.101 204.905 154.281Z" fill="#E0E0E0"/>
<path d="M228.432 127.709C228.038 127.969 227.626 128.2 227.198 128.4C226.084 129.028 225.017 129.734 224.005 130.515C222.506 131.683 221.101 132.965 219.8 134.35C218.327 135.905 216.813 137.715 215.257 139.649C212.163 143.542 209.266 146.982 207.53 149.722C206.65 151.088 206.008 152.24 205.588 153.013C205.389 153.443 205.161 153.858 204.905 154.256C204.928 154.136 204.967 154.02 205.02 153.91C205.111 153.688 205.234 153.351 205.432 152.939C205.977 151.772 206.59 150.637 207.267 149.541C208.954 146.726 211.834 143.237 214.92 139.353C216.475 137.419 218.014 135.601 219.512 134.045C220.84 132.665 222.279 131.396 223.816 130.252C224.852 129.482 225.953 128.805 227.107 128.227C227.511 128.022 227.848 127.898 228.07 127.808C228.185 127.756 228.307 127.723 228.432 127.709Z" fill="#E0E0E0"/>
<path d="M228.893 136.333C228.033 136.518 227.162 136.645 226.285 136.712C224.192 136.928 222.123 137.335 220.104 137.929C218.11 138.577 216.24 139.559 214.574 140.834C213.299 141.814 212.698 142.628 212.632 142.587C212.727 142.367 212.858 142.164 213.019 141.986C213.425 141.479 213.879 141.013 214.377 140.596C216.028 139.222 217.928 138.177 219.973 137.518C222.019 136.91 224.129 136.537 226.26 136.407C227.133 136.302 228.015 136.277 228.893 136.333Z" fill="#E0E0E0"/>
<path d="M213.398 141.641C213.258 141.558 214.434 139.765 215.348 137.353C216.261 134.942 216.401 132.786 216.558 132.811C216.616 133.277 216.599 133.749 216.508 134.21C216.382 135.332 216.128 136.437 215.751 137.502C215.358 138.56 214.85 139.573 214.237 140.522C214.019 140.938 213.736 141.316 213.398 141.641Z" fill="#E0E0E0"/>
<path d="M236.028 104.568C235.899 104.661 235.757 104.736 235.608 104.791L234.382 105.342C233.847 105.572 233.197 105.869 232.465 106.255C231.732 106.642 230.868 107.029 229.996 107.564L228.58 108.387C228.087 108.675 227.593 109.004 227.074 109.333C226.029 109.967 224.976 110.749 223.857 111.555C219.061 115.132 214.876 119.462 211.464 124.376C210.698 125.528 209.958 126.598 209.357 127.668C209.053 128.203 208.732 128.696 208.46 129.198L207.703 130.655C207.201 131.56 206.839 132.432 206.477 133.181C206.115 133.93 205.851 134.588 205.654 135.132C205.456 135.675 205.275 136.053 205.144 136.374C205.094 136.527 205.022 136.671 204.93 136.802C204.958 136.647 205.003 136.496 205.061 136.349C205.177 136.012 205.317 135.592 205.498 135.074C205.679 134.556 205.934 133.848 206.279 133.091C206.625 132.334 206.954 131.445 207.448 130.515L208.189 129.042C208.444 128.532 208.765 128.03 209.061 127.487C209.653 126.409 210.394 125.314 211.151 124.154C214.548 119.167 218.773 114.797 223.643 111.234C224.779 110.411 225.84 109.662 226.935 109.029C227.461 108.708 227.955 108.379 228.457 108.099L229.905 107.276C230.811 106.757 231.683 106.379 232.432 106.017C233.181 105.655 233.847 105.383 234.39 105.194L235.649 104.708C235.77 104.647 235.897 104.6 236.028 104.568Z" fill="#E0E0E0"/>
<path d="M217.43 117.044C217.607 116.442 217.966 115.91 218.459 115.521C219.601 114.526 221.058 113.964 222.573 113.933C224.061 113.924 225.537 114.204 226.918 114.756C227.505 114.946 228.06 115.223 228.564 115.579C227.968 115.461 227.385 115.291 226.819 115.069C225.46 114.605 224.034 114.369 222.598 114.369C221.17 114.397 219.789 114.882 218.656 115.752C218.217 116.152 217.807 116.584 217.43 117.044Z" fill="#E0E0E0"/>
<path d="M214.632 119.916C215.185 118.701 215.581 117.421 215.809 116.106C215.89 114.772 215.801 113.434 215.545 112.123C215.789 112.451 215.952 112.831 216.023 113.234C216.527 115.153 216.289 117.193 215.356 118.945C215.011 119.62 214.69 119.94 214.632 119.916Z" fill="#E0E0E0"/>
<path d="M184.332 158.552C184.974 169.941 188.406 181.519 193.68 193.221H216.632C221.66 181.635 224.861 170.073 225.42 158.552H184.332Z" fill="#E0E0E0"/>
<path d="M221.701 176.977C221.701 177.092 214.146 177.191 204.831 177.191C195.516 177.191 187.953 177.092 187.953 176.977C187.953 176.862 195.507 176.763 204.831 176.763C214.155 176.763 221.701 176.853 221.701 176.977Z" fill="#FAFAFA"/>
<path d="M221.215 181.1C221.215 181.215 214.13 181.314 205.399 181.314C196.668 181.314 189.574 181.215 189.574 181.1C189.574 180.984 196.66 180.886 205.399 180.886C214.138 180.886 221.215 180.984 221.215 181.1Z" fill="#FAFAFA"/>
<path d="M194.059 166.024C194.344 169.543 194.344 173.079 194.059 176.598C193.774 173.079 193.774 169.543 194.059 166.024Z" fill="#FAFAFA"/>
<path d="M206.345 166.024C206.63 169.669 206.63 173.331 206.345 176.977C206.06 173.331 206.06 169.669 206.345 166.024Z" fill="#FAFAFA"/>
<path d="M217.924 165.933C218.209 169.65 218.209 173.383 217.924 177.1C217.638 173.383 217.638 169.65 217.924 165.933Z" fill="#FAFAFA"/>
<path d="M224.696 166.024C224.696 166.147 215.833 166.246 204.905 166.246C193.977 166.246 185.114 166.147 185.114 166.024C185.114 165.9 193.969 165.81 204.905 165.81C215.842 165.81 224.696 165.909 224.696 166.024Z" fill="#FAFAFA"/>
<path d="M16.4747 9.41086C26.1851 14.4389 33.6243 23.096 38.9733 32.6253C44.3222 42.1547 47.7785 52.614 51.1936 62.9992L54.1808 116.546C42.8903 97.3395 33.8218 74.7257 31.3777 52.5975L38.891 51.9309C33.8547 51.1574 29.6249 47.5119 26.934 43.1834C24.2431 38.8548 22.8194 33.8597 21.5028 28.9469L30.67 30.2882C23.4326 25.4105 18.3496 17.9348 16.4747 9.41086Z" fill="#455A64"/>
<g opacity="0.3">
<path d="M16.4747 9.41086C26.1851 14.4389 33.6243 23.096 38.9733 32.6253C44.3222 42.1547 47.7785 52.614 51.1936 62.9992L54.1808 116.546C42.8903 97.3395 33.8218 74.7257 31.3777 52.5975L38.891 51.9309C33.8547 51.1574 29.6249 47.5119 26.934 43.1834C24.2431 38.8548 22.8194 33.8597 21.5028 28.9469L30.67 30.2882C23.4326 25.4105 18.3496 17.9348 16.4747 9.41086Z" fill="black"/>
</g>
<path d="M55.8925 129.096C55.8925 129.096 80.4072 99.7588 80.1274 71.7467H70.2524C70.2524 71.7467 81.0079 64.6697 80.1274 60.7114C79.2468 56.7532 78.9917 41.7844 78.9917 41.7844L69.9397 44.0474C69.9397 44.0474 76.7287 40.6487 77.5763 35.2751C78.4239 29.9014 75.6013 5 75.6013 5C75.6013 5 64.566 16.6031 61.1674 28.486C57.7687 40.3689 48.8236 54.2269 51.4816 90.4434C54.1397 126.66 55.8925 129.096 55.8925 129.096Z" fill="#455A64"/>
<path d="M43.4253 131.869C43.4253 131.869 16.8698 114.176 10.9695 91.5955L18.9271 89.423C18.9271 89.423 8.73937 86.0902 8.5501 82.7245C8.36083 79.3588 5.31604 67.2372 5.31604 67.2372L13.0926 67.0726C13.0926 67.0726 6.88781 65.83 5.02802 61.6907C3.16823 57.5515 0 36.921 0 36.921C0 36.921 11.4056 43.8335 16.7381 52.6469C22.0706 61.4603 32.2666 70.6523 38.0846 100.335C43.9026 130.017 43.4253 131.869 43.4253 131.869Z" fill="#455A64"/>
<path d="M68.8617 30.5598C68.8571 30.665 68.8434 30.7697 68.8205 30.8725L68.6477 31.7859C68.4831 32.6089 68.2527 33.7856 67.9482 35.2833C67.6437 36.781 67.2652 38.6573 66.862 40.8215C66.4587 42.9858 65.965 45.4381 65.4877 48.162C64.4755 53.6097 63.3975 60.1107 62.2865 67.3524C61.1756 74.594 60.114 82.5599 59.1265 90.9536C58.139 99.3474 57.4149 107.363 56.8142 114.662C56.2134 121.961 55.8102 128.544 55.5551 134.074C55.3987 136.839 55.3082 139.341 55.2177 141.538C55.1272 143.735 55.0613 145.653 55.0202 147.175C54.9791 148.698 54.9214 149.899 54.8968 150.738C54.8968 151.133 54.8968 151.438 54.8556 151.668C54.8643 151.772 54.8643 151.877 54.8556 151.981C54.8466 151.877 54.8466 151.772 54.8556 151.668C54.8556 151.438 54.8556 151.133 54.8556 150.738C54.8556 149.916 54.8556 148.706 54.8556 147.175C54.8556 145.645 54.9132 143.727 54.9873 141.53C55.0613 139.333 55.1189 136.823 55.2588 134.058C55.481 128.52 55.8843 121.936 56.4274 114.629C56.9705 107.321 57.7523 99.3062 58.7151 90.9042C59.6779 82.5023 60.7971 74.5282 61.8998 67.2865C63.0025 60.0449 64.1463 53.5521 65.1914 48.1126C65.6852 45.3805 66.1954 42.9282 66.6315 40.7722C67.0677 38.6161 67.4545 36.7646 67.7919 35.2504C68.1293 33.7362 68.3844 32.5842 68.5654 31.7695L68.7794 30.8643C68.7978 30.7605 68.8253 30.6587 68.8617 30.5598Z" fill="#263238"/>
<path d="M59.2582 147.06C59.2582 147.06 81.6909 121.607 88.6528 106.227L83.3943 103.98C87.2045 104.606 91.1133 102.968 94.0923 100.483C97.0712 97.9978 99.219 94.7226 101.342 91.4968L94.3967 90.3611C100.76 88.5403 106.178 84.3415 109.53 78.6346C101.35 79.9842 93.9606 84.4691 87.8628 90.0814C83.0273 94.7223 78.6333 99.8023 74.7373 105.256C72.7766 107.883 71.0709 110.691 69.6434 113.641C65.8745 121.434 59.2418 137.72 59.2582 147.06Z" fill="#455A64"/>
<path d="M10.6321 51.7335C10.6882 51.8086 10.7377 51.8885 10.7802 51.9721C10.8707 52.1614 11.0024 52.3918 11.1587 52.6963C11.5044 53.3546 11.9817 54.2927 12.5988 55.486C13.8497 57.9053 15.6025 61.4357 17.7009 65.8383C19.7994 70.2409 22.2187 75.5075 24.7945 81.4078C27.3702 87.3081 30.0694 93.8668 32.7603 100.796C35.4512 107.725 37.8212 114.407 39.9114 120.505C42.0017 126.602 43.738 132.132 45.137 136.798C46.5359 141.464 47.6057 145.258 48.3299 147.891L49.1528 150.92L49.3585 151.742C49.3857 151.831 49.4022 151.922 49.4079 152.014C49.363 151.932 49.3324 151.843 49.3174 151.751C49.2516 151.561 49.1693 151.298 49.0705 150.977C48.8648 150.261 48.5685 149.249 48.19 147.965C47.4329 145.348 46.3055 141.571 44.8983 136.922C43.4911 132.272 41.6643 126.759 39.5823 120.661C37.5003 114.563 35.0809 107.922 32.4064 100.985C29.732 94.0478 27.0163 87.5139 24.4818 81.5971C21.9472 75.6803 19.5443 70.4054 17.4705 65.9617C15.3968 61.5179 13.7098 58.0041 12.533 55.56L11.167 52.7374C11.0189 52.4247 10.9036 52.1861 10.8214 51.9968C10.7486 51.9164 10.6851 51.828 10.6321 51.7335Z" fill="#263238"/>
<path d="M57.3491 157.972C57.3327 157.813 57.3327 157.653 57.3491 157.495C57.3491 157.133 57.4314 156.672 57.4808 156.129C57.5301 155.586 57.6289 154.812 57.7606 153.981C57.8922 153.15 58.0157 152.187 58.2214 151.142C58.5835 149.043 59.1348 146.566 59.8672 143.842C60.5996 141.119 61.5131 138.173 62.6651 135.128C63.8172 132.083 65.0845 129.252 66.3271 126.726C67.5697 124.199 68.7959 121.986 69.9315 120.142C70.4664 119.221 71.0013 118.423 71.4621 117.674C71.9229 116.925 72.285 116.365 72.6718 115.88C73.0586 115.394 73.2561 115.057 73.4947 114.769C73.5804 114.631 73.6826 114.504 73.7992 114.39C73.7361 114.54 73.6589 114.683 73.5688 114.818L72.8364 115.97C72.5072 116.472 72.1205 117.081 71.6843 117.805C71.2482 118.53 70.7297 119.336 70.2113 120.274C69.1415 122.101 67.94 124.331 66.7057 126.857C65.4713 129.384 64.2369 132.206 63.0931 135.235C61.9492 138.263 61.0275 141.209 60.2705 143.908C59.5134 146.607 58.962 149.076 58.5588 151.158C58.3366 152.195 58.1885 153.141 58.0403 153.973C57.8922 154.804 57.777 155.52 57.6865 156.112C57.596 156.705 57.5301 157.108 57.4725 157.462C57.4522 157.636 57.4107 157.808 57.3491 157.972Z" fill="#263238"/>
<path d="M76.844 151.981H27.7488V161.996H76.844V151.981Z" fill="#6F4439"/>
<path d="M72.1697 161.996L66.8619 195.686H37.1958L32.2418 161.996H72.1697Z" fill="#6F4439"/>
<path d="M30.7606 161.996C30.7606 161.881 40.0513 161.782 51.5063 161.782C62.9613 161.782 72.2521 161.881 72.2521 161.996C72.2521 162.111 62.9613 162.21 51.5063 162.21C40.0513 162.21 30.7606 162.119 30.7606 161.996Z" fill="#263238"/>
<path d="M163.759 160.272C163.759 160.272 222.771 129.527 235.567 146.488C248.363 163.448 222.721 176.771 217.767 179.766C212.813 182.762 162.689 199.788 162.689 199.788L149.465 185.675L163.759 160.272Z" fill="#263238"/>
<path d="M187.031 176.722L210.558 189.386L232.061 194.044C232.428 194.125 232.773 194.28 233.077 194.5C233.381 194.719 233.637 194.999 233.829 195.321C234.021 195.643 234.145 196.002 234.193 196.373C234.242 196.745 234.214 197.123 234.11 197.484C233.992 197.903 233.774 198.288 233.474 198.605C233.174 198.921 232.803 199.161 232.39 199.303C227.05 201.162 207.39 207.902 205.72 206.882C203.786 205.697 180.012 195.163 180.012 195.163L187.031 176.722Z" fill="#3E5902"/>
<g opacity="0.6">
<path d="M234.11 197.484L204.115 206.026L205.119 206.544C205.992 206.99 206.996 207.11 207.95 206.882C210.493 206.281 217.488 204.413 232.349 199.344C232.776 199.198 233.161 198.949 233.468 198.619C233.775 198.289 233.996 197.887 234.11 197.451V197.484Z" fill="white"/>
</g>
<g opacity="0.6">
<path d="M198.923 197.262C199.286 197.077 199.705 197.033 200.099 197.139C200.493 197.246 200.833 197.495 201.054 197.838C201.251 198.195 201.303 198.614 201.201 199.009C201.098 199.404 200.848 199.744 200.503 199.961C200.116 200.153 199.672 200.195 199.255 200.079C198.839 199.964 198.481 199.699 198.248 199.335C198.08 198.942 198.072 198.498 198.225 198.099C198.379 197.699 198.682 197.376 199.071 197.196" fill="white"/>
</g>
<path d="M220.936 197.624C221.067 197.525 220.113 196.348 220.113 194.595C220.113 192.843 221.117 191.691 220.985 191.584C220.853 191.477 220.598 191.74 220.236 192.258C219.781 192.95 219.535 193.759 219.528 194.587C219.509 195.415 219.732 196.23 220.17 196.933C220.549 197.459 220.886 197.673 220.936 197.624Z" fill="#263238"/>
<path d="M224.984 197.55C225.149 197.492 224.762 196.332 225.034 194.925C225.305 193.517 226.054 192.563 225.922 192.456C225.791 192.349 224.746 193.213 224.458 194.826C224.17 196.439 224.861 197.649 224.984 197.55Z" fill="#263238"/>
<path d="M215.241 198.702C215.405 198.644 214.805 196.867 215.043 194.637C215.282 192.407 216.179 190.769 216.023 190.687C215.866 190.604 214.681 192.184 214.459 194.579C214.237 196.974 215.117 198.784 215.241 198.702Z" fill="#263238"/>
<path d="M207.769 195.443C207.942 195.443 208.057 193.863 208.871 192.151C209.686 190.44 210.781 189.263 210.665 189.131C210.55 189 209.184 190.02 208.337 191.904C207.489 193.789 207.612 195.468 207.769 195.443Z" fill="#263238"/>
<path d="M200.766 191.905C200.939 191.905 200.823 190.168 201.827 188.407C202.831 186.646 204.296 185.798 204.222 185.65C204.148 185.502 203.761 185.7 203.169 186.086C202.395 186.605 201.757 187.302 201.309 188.119C200.856 188.934 200.602 189.845 200.568 190.777C200.56 191.485 200.692 191.913 200.766 191.905Z" fill="#263238"/>
<path d="M200.47 187.773C200.47 187.773 200.198 187.527 199.589 187.28C198.722 186.939 197.796 186.774 196.865 186.794C196.182 186.749 195.503 186.928 194.931 187.304C194.758 187.449 194.633 187.643 194.571 187.86C194.51 188.077 194.515 188.308 194.586 188.522C194.759 188.93 195.075 189.261 195.474 189.452C196.302 189.804 197.226 189.857 198.088 189.602C198.95 189.347 199.696 188.799 200.198 188.053C200.681 187.306 200.93 186.432 200.914 185.542C200.898 184.652 200.617 183.787 200.107 183.058C199.98 182.874 199.814 182.72 199.62 182.606C199.427 182.492 199.211 182.422 198.988 182.4C198.761 182.402 198.541 182.476 198.358 182.61C198.175 182.745 198.038 182.933 197.968 183.149C197.793 183.798 197.793 184.482 197.968 185.132C198.152 186.042 198.497 186.912 198.988 187.699C199.342 188.251 199.597 188.522 199.63 188.522C199.045 187.447 198.624 186.29 198.379 185.091C198.235 184.524 198.235 183.93 198.379 183.363C198.414 183.243 198.486 183.138 198.586 183.064C198.685 182.99 198.806 182.95 198.931 182.951C199.077 182.976 199.216 183.031 199.34 183.113C199.463 183.196 199.568 183.303 199.647 183.428C200.063 184.074 200.284 184.825 200.284 185.593C200.284 186.361 200.063 187.112 199.647 187.757C199.22 188.385 198.593 188.85 197.868 189.075C197.143 189.301 196.363 189.274 195.655 189C195.374 188.876 195.144 188.657 195.005 188.382C194.961 188.265 194.955 188.137 194.988 188.016C195.02 187.895 195.09 187.787 195.186 187.708C195.673 187.384 196.248 187.22 196.832 187.239C198.067 187.198 199.299 187.379 200.47 187.773Z" fill="#263238"/>
<path d="M195.466 179.734C195.466 179.734 139.862 146.043 132.349 141.879C125.889 138.283 105.48 130.359 98.2881 149.903C91.0958 169.447 129.822 198.323 129.822 198.323L162.69 199.796L173.659 195.608L186.118 199.442L195.466 179.734Z" fill="#263238"/>
<path d="M156.369 200.471L131.443 210.14L113.932 223.447C113.633 223.675 113.29 223.838 112.925 223.928C112.56 224.018 112.18 224.031 111.81 223.968C111.44 223.905 111.086 223.766 110.772 223.56C110.457 223.354 110.188 223.086 109.982 222.772C109.746 222.411 109.599 221.998 109.553 221.569C109.508 221.14 109.564 220.706 109.718 220.303C111.776 215.045 119.445 195.723 121.305 195.122C123.461 194.423 146.922 183.214 146.922 183.214L156.369 200.471Z" fill="#3E5902"/>
<g opacity="0.6">
<path d="M109.982 222.731L122.976 194.365L121.93 194.793C121.024 195.165 120.28 195.847 119.832 196.719C118.639 199.047 115.479 205.557 109.685 220.163C109.521 220.583 109.461 221.036 109.513 221.484C109.565 221.932 109.726 222.36 109.982 222.731Z" fill="white"/>
</g>
<g opacity="0.6">
<path d="M133.032 196.151C132.935 196.548 132.695 196.895 132.358 197.124C132.02 197.354 131.609 197.45 131.205 197.393C130.806 197.312 130.454 197.08 130.221 196.746C129.989 196.412 129.893 196.002 129.954 195.599C130.059 195.18 130.316 194.815 130.674 194.573C131.033 194.332 131.468 194.231 131.896 194.291C132.305 194.419 132.648 194.701 132.852 195.077C133.057 195.453 133.106 195.895 132.99 196.307" fill="white"/>
</g>
<path d="M118.441 212.609C118.441 212.782 119.955 212.798 121.256 213.983C122.556 215.168 122.811 216.633 122.976 216.6C123.14 216.567 123.107 216.205 122.976 215.596C122.745 214.802 122.292 214.09 121.672 213.543C121.051 212.997 120.287 212.639 119.47 212.51C118.82 212.445 118.441 212.56 118.441 212.609Z" fill="#263238"/>
<path d="M115.882 215.753C115.824 215.917 116.952 216.378 117.841 217.505C118.729 218.633 118.984 219.81 119.149 219.785C119.314 219.76 119.338 218.402 118.326 217.135C117.314 215.868 115.882 215.596 115.882 215.753Z" fill="#263238"/>
<path d="M121.33 207.606C121.264 207.77 122.976 208.47 124.547 210.075C126.119 211.679 126.745 213.448 126.909 213.366C127.074 213.284 126.646 211.375 124.967 209.647C123.288 207.918 121.346 207.458 121.33 207.606Z" fill="#263238"/>
<path d="M128.662 204.043C128.538 204.166 129.674 205.293 130.472 207.046C131.271 208.799 131.427 210.379 131.6 210.338C131.772 210.297 131.879 208.634 131.007 206.766C130.135 204.898 128.744 203.911 128.662 204.043Z" fill="#263238"/>
<path d="M135.904 201.031C135.797 201.162 137.187 202.191 137.879 204.108C138.57 206.026 138.232 207.688 138.405 207.721C138.578 207.754 138.669 207.342 138.767 206.635C138.875 205.709 138.756 204.772 138.422 203.903C138.101 203.027 137.576 202.24 136.891 201.607C136.356 201.138 135.945 200.965 135.904 201.031Z" fill="#263238"/>
<path d="M139.236 203.491C139.575 203.447 139.899 203.326 140.183 203.137C141.006 202.702 141.734 202.106 142.322 201.385C142.803 200.897 143.107 200.262 143.186 199.582C143.194 199.356 143.131 199.132 143.006 198.943C142.88 198.755 142.699 198.61 142.487 198.529C142.067 198.396 141.613 198.422 141.211 198.603C140.405 199.003 139.763 199.67 139.395 200.492C139.027 201.313 138.956 202.237 139.195 203.104C139.452 203.957 139.955 204.713 140.642 205.279C141.33 205.844 142.169 206.193 143.055 206.281C143.278 206.302 143.503 206.275 143.715 206.201C143.926 206.127 144.119 206.008 144.281 205.853C144.425 205.679 144.512 205.464 144.528 205.238C144.544 205.012 144.489 204.787 144.371 204.594C143.991 204.04 143.468 203.599 142.857 203.318C142.044 202.869 141.158 202.566 140.24 202.421C139.907 202.351 139.562 202.351 139.228 202.421C140.425 202.678 141.578 203.108 142.651 203.697C143.17 203.969 143.614 204.364 143.943 204.849C144.012 204.952 144.044 205.075 144.035 205.199C144.026 205.323 143.977 205.44 143.894 205.532C143.781 205.627 143.649 205.697 143.508 205.738C143.366 205.779 143.217 205.79 143.071 205.771C142.313 205.666 141.6 205.348 141.017 204.852C140.434 204.356 140.004 203.704 139.779 202.973C139.58 202.24 139.635 201.462 139.933 200.765C140.232 200.067 140.758 199.491 141.425 199.13C141.701 198.993 142.017 198.961 142.314 199.039C142.432 199.081 142.534 199.159 142.605 199.263C142.676 199.366 142.713 199.49 142.709 199.615C142.64 200.188 142.395 200.725 142.01 201.154C141.23 202.09 140.291 202.882 139.236 203.491Z" fill="#263238"/>
<path d="M145.507 206.692C146.206 206.33 174.358 194.867 174.358 194.867L146.379 181.009L129.542 189.74L145.507 206.692Z" fill="#263238"/>
<path d="M110.739 172.813L111.126 172.928L112.236 173.298L116.491 174.771L132.126 180.26L183.682 198.455L186.151 199.22L185.896 199.335L195.285 179.692L195.367 179.948L162.936 160.115L153.604 154.355L151.136 152.808L150.502 152.396C150.362 152.306 150.288 152.256 150.296 152.248L150.519 152.372L151.177 152.75L153.687 154.24L163.084 159.893L195.59 179.594L195.746 179.692L195.672 179.857L186.307 199.525L186.225 199.689L186.052 199.632L183.583 198.866C182.291 198.496 181.057 198.043 179.814 197.591L176.111 196.274L168.845 193.682L155.176 188.802L132.028 180.573L116.433 174.952L112.204 173.405L111.109 172.994C110.982 172.941 110.858 172.881 110.739 172.813Z" fill="#455A64"/>
<path d="M145.507 206.692C145.138 206.382 144.789 206.05 144.462 205.697L141.73 202.874C139.434 200.479 136.282 197.114 132.818 193.452L129.337 189.724L129.147 189.518L129.394 189.395L137.936 185.28L140.405 184.111C140.699 183.963 141.005 183.836 141.318 183.733C141.062 183.928 140.786 184.097 140.495 184.235L138.101 185.453L129.625 189.732L129.682 189.403L133.18 193.122C136.644 196.817 139.763 200.183 142.001 202.635L144.635 205.548C144.96 205.902 145.252 206.285 145.507 206.692Z" fill="#455A64"/>
<path d="M202.288 152.116C202.338 152.223 195.409 155.235 186.817 158.831C178.226 162.428 171.231 165.267 171.182 165.16C171.133 165.053 178.062 162.041 186.653 158.437C195.244 154.832 202.288 152.001 202.288 152.116Z" fill="#455A64"/>
<path d="M159.497 67.3233C158.912 67.3233 138.611 67.134 134.513 71.2321C130.415 75.3302 121.906 138.094 121.906 138.094C126.284 138.917 129.131 140.563 131.781 141.863L166.286 161.983L181.222 154.223C181.707 153.955 182.127 153.582 182.451 153.132C182.775 152.682 182.995 152.166 183.096 151.621C183.197 151.075 183.175 150.515 183.033 149.978C182.891 149.442 182.632 148.944 182.275 148.52L202.148 76.688C199.206 74.4553 195.943 72.6797 192.471 71.4214C186.653 69.2818 159.497 67.3233 159.497 67.3233Z" fill="#92B158"/>
<path d="M195.466 73.9888C195.466 73.9888 201.572 75.3384 203.909 79.1074C209.39 87.9373 226.227 119.299 229.058 126.837C232.053 134.794 228.836 139.32 226.671 142.678C224.342 146.29 211.546 146.282 205.745 140.085C203.276 137.419 189.401 124.853 189.401 124.853L195.466 73.9888Z" fill="#92B158"/>
<path d="M202.412 85.6331C202.351 85.8446 202.274 86.051 202.181 86.2503L201.432 87.9949C200.815 89.5173 199.951 91.7309 198.964 94.4959C196.972 100.034 194.536 107.778 191.952 116.369C189.368 124.96 187.122 132.737 185.451 138.415C184.628 141.238 183.921 143.517 183.419 145.081L182.826 146.883C182.769 147.095 182.692 147.302 182.596 147.5C182.628 147.282 182.678 147.068 182.744 146.858C182.876 146.403 183.048 145.794 183.262 145.031C183.723 143.385 184.365 141.131 185.163 138.333C186.76 132.671 188.965 124.853 191.541 116.246C194.117 107.638 196.61 99.9107 198.676 94.3972C199.704 91.6322 200.618 89.4597 201.284 87.929L202.107 86.2174C202.189 86.0129 202.291 85.8172 202.412 85.6331Z" fill="#263238"/>
<path d="M135.484 70.5161C135.484 70.5161 129.073 74.1616 126.728 76.2765C124.383 78.3914 100.156 112.962 97.0536 123.734C95.2515 129.972 102.123 142.875 109.529 142.25C119.215 141.427 155.555 127.495 155.555 127.495L147.4 109.745L126.827 113.036L141.763 98.0262L136.192 70.1129" fill="#92B158"/>
<path d="M221.676 123.133C221.548 123.073 221.426 122.998 221.314 122.911L220.31 122.22L216.665 119.62C213.603 117.398 209.39 114.295 204.749 110.847L201.646 108.535L201.934 108.494C198.98 112.353 196.347 115.719 194.429 118.097C193.47 119.418 192.399 120.654 191.228 121.792L194.215 117.924L201.622 108.239L201.745 108.074L201.91 108.197L205.02 110.502C209.662 113.95 213.842 117.085 216.862 119.381L220.392 122.088L221.347 122.845C221.467 122.929 221.578 123.025 221.676 123.133Z" fill="#263238"/>
<path d="M164.163 103.466L147.869 110.765L154.37 124.894L164.558 118.171L164.163 103.466Z" fill="#B2655F"/>
<path d="M179.559 104.848L190.463 97.4419C190.846 97.1788 191.308 97.0567 191.771 97.0963L206.024 98.3142C206.303 98.3373 206.562 98.466 206.749 98.6741C206.935 98.8823 207.035 99.1539 207.028 99.4334C207.044 99.7142 206.998 99.9951 206.894 100.257C206.791 100.518 206.631 100.754 206.427 100.948L183.279 117.052L165.998 114.312L179.559 104.848Z" fill="#E0E0E0"/>
<path d="M164.162 103.466C164.162 103.466 170.046 99.1042 171.429 98.8656C172.811 98.6269 179.024 98.6516 179.024 98.6516L184.258 101.639L181.016 103.836C178.769 103.342 178.127 102.47 178.127 102.47L174.507 102.709L164.162 103.466Z" fill="#B2655F"/>
<path d="M170.779 101.573L180.069 104.807L193.434 106.692C193.457 107.438 193.194 108.166 192.698 108.724C192.203 109.283 191.512 109.63 190.767 109.695C189.122 109.868 186.34 110.057 186.34 110.057C186.34 110.057 185.657 112.526 183.575 113.061C183.098 113.998 182.411 114.812 181.567 115.439C181.439 115.518 181.3 115.579 181.156 115.62C179.872 115.99 177.313 119.471 175.601 119.94C173.889 120.41 164.541 118.204 164.541 118.204L164.146 103.507L170.779 101.573Z" fill="#B2655F"/>
<path d="M173.486 109.16C173.486 109.119 174.227 109.317 175.403 109.555C176.949 109.862 178.513 110.065 180.086 110.164C181.653 110.273 183.226 110.273 184.793 110.164C186.003 110.082 186.743 109.975 186.751 110.016C186.584 110.076 186.41 110.117 186.233 110.14C185.904 110.205 185.41 110.279 184.809 110.345C183.235 110.507 181.649 110.535 180.069 110.428C178.486 110.333 176.914 110.101 175.371 109.736C174.778 109.596 174.301 109.465 173.98 109.358C173.808 109.31 173.643 109.244 173.486 109.16Z" fill="#3E5902"/>
<path d="M175.313 112.97C175.352 113.281 175.321 113.595 175.222 113.892C175.138 114.231 174.965 114.54 174.72 114.789C174.556 114.933 174.364 115.043 174.156 115.113C173.949 115.182 173.729 115.209 173.511 115.192C173.091 115.158 172.683 115.041 172.309 114.847C171.972 114.674 171.692 114.493 171.445 114.361C170.968 114.073 170.622 113.966 170.622 113.925C170.931 113.944 171.23 114.037 171.495 114.197C172.107 114.571 172.786 114.823 173.494 114.937C173.68 114.955 173.867 114.935 174.045 114.88C174.223 114.825 174.388 114.735 174.531 114.616C174.757 114.402 174.925 114.132 175.017 113.834C175.099 113.541 175.198 113.252 175.313 112.97Z" fill="#3E5902"/>
<path d="M182.184 113.859C181.857 113.991 181.514 114.08 181.164 114.122C180.347 114.268 179.523 114.37 178.695 114.427C177.854 114.475 177.01 114.475 176.169 114.427C175.817 114.433 175.466 114.395 175.124 114.312C175.124 114.229 176.72 114.312 178.679 114.139C180.637 113.966 182.168 113.81 182.184 113.859Z" fill="#3E5902"/>
<path d="M175.132 117.743C174.688 118.095 174.161 118.325 173.601 118.413C173.042 118.501 172.47 118.443 171.939 118.245C171.939 118.163 172.68 118.303 173.585 118.163C174.49 118.023 175.132 117.677 175.132 117.743Z" fill="#3E5902"/>
<path d="M178.481 117.579C178.481 117.645 178.045 117.76 177.485 117.842C177.145 117.923 176.79 117.923 176.449 117.842C176.758 117.676 177.102 117.586 177.453 117.579C178.012 117.513 178.473 117.505 178.481 117.579Z" fill="#3E5902"/>
<path d="M180.07 104.807C178.577 104.455 177.12 103.967 175.716 103.35C174.531 102.89 173.47 102.453 172.713 102.108C172.29 101.95 171.889 101.74 171.519 101.482C171.949 101.607 172.37 101.761 172.778 101.943L175.807 103.112L178.827 104.289C179.617 104.56 180.07 104.741 180.07 104.807Z" fill="#3E5902"/>
<path d="M193.722 108.099C193.722 108.099 192.693 107.745 193.804 106.124C194.915 104.503 198.025 106.469 198.025 106.469L202 108.831C202 108.831 202.889 110.897 201.786 111.448L200.963 112.452C200.963 112.452 202.519 114.024 201.893 115.398C201.699 115.795 201.387 116.122 200.999 116.334C200.612 116.546 200.168 116.633 199.729 116.583C199.729 116.583 199.91 119.364 199.005 120.434C198.585 121.016 197.973 121.43 197.277 121.603C196.986 122.339 196.523 122.995 195.925 123.515C195.328 124.035 194.615 124.404 193.845 124.59C191.179 125.273 189.78 125.322 189.056 124.195C188.568 123.395 188.173 122.542 187.879 121.652C187.879 121.652 182.16 118.648 182.036 117.126C181.913 115.604 182.176 115.48 182.176 115.48C182.049 115.125 181.994 114.747 182.014 114.37C182.033 113.993 182.128 113.623 182.291 113.283C182.867 112.353 185.139 113.168 185.139 113.168L192.438 114.88C192.438 114.88 186.595 112.139 185.904 111.242C185.213 110.345 185.953 109.243 188.299 109.522C190.644 109.802 197.729 111.127 197.729 111.127C197.547 110.753 197.262 110.438 196.906 110.222C196.437 110.024 194.972 109.177 194.972 109.177L193.722 108.099Z" fill="#B2655F"/>
<path d="M195.466 119.183C195.466 119.249 192.487 118.492 188.883 117.496C185.279 116.501 182.3 115.628 182.341 115.563C182.382 115.497 185.32 116.254 188.924 117.25C192.528 118.245 195.483 119.118 195.466 119.183Z" fill="#3E5902"/>
<path d="M191.985 123.158C191.254 123.071 190.538 122.889 189.854 122.615C189.359 122.454 188.873 122.267 188.397 122.055C188.248 121.991 188.105 121.914 187.969 121.825C187.933 121.799 187.9 121.768 187.871 121.734C187.871 121.734 187.871 121.66 187.871 121.677C187.871 121.693 188.776 121.99 189.92 122.368C190.632 122.563 191.324 122.828 191.985 123.158Z" fill="#3E5902"/>
<path d="M198.239 115.974C198.239 116.04 196.799 115.752 195.038 115.464C193.277 115.176 191.837 114.987 191.845 114.912C192.931 114.897 194.016 114.999 195.079 115.217C196.158 115.35 197.218 115.604 198.239 115.974Z" fill="#3E5902"/>
<path d="M200.025 112.213C199.976 112.279 199.4 111.868 198.593 111.58C197.787 111.292 197.087 111.218 197.087 111.143C197.627 111.046 198.184 111.114 198.684 111.341C199.208 111.492 199.675 111.796 200.025 112.213Z" fill="#3E5902"/>
<path d="M206.403 99.6391H206.139L205.374 99.5486C204.716 99.4581 203.728 99.3346 202.584 99.203C200.223 98.9314 196.947 98.6434 193.318 98.5611C192.462 98.445 191.59 98.5469 190.784 98.8573C190.425 99.0647 190.079 99.2928 189.747 99.5404L188.759 100.24L185.344 102.651L183.032 104.256L182.39 104.684C182.25 104.782 182.168 104.824 182.16 104.815C182.225 104.754 182.293 104.696 182.365 104.642L182.974 104.182L185.246 102.536L188.628 100.067L189.607 99.3593C189.948 99.1046 190.302 98.8683 190.669 98.6516C191.074 98.4435 191.522 98.331 191.977 98.3224C192.43 98.3224 192.874 98.3224 193.327 98.3224C196.428 98.3996 199.524 98.6385 202.601 99.0384C203.786 99.1947 204.74 99.3511 205.391 99.4663L206.148 99.6062C206.234 99.6037 206.32 99.6148 206.403 99.6391Z" fill="#263238"/>
<path d="M197.474 100.906C197.396 100.803 197.291 100.723 197.17 100.677C197.05 100.63 196.918 100.619 196.791 100.643H196.676C196.459 100.681 196.262 100.791 196.116 100.956C196.03 101.062 195.983 101.194 195.983 101.33C195.983 101.467 196.03 101.599 196.116 101.705C196.226 101.811 196.368 101.878 196.52 101.894C196.663 101.922 196.812 101.918 196.954 101.882C197.096 101.847 197.229 101.78 197.342 101.688C197.442 101.587 197.508 101.458 197.532 101.318C197.555 101.178 197.535 101.034 197.474 100.906Z" fill="white"/>
<path d="M165.076 21.7748L163.496 20.9519C162.793 20.4651 161.93 20.2649 161.085 20.3923C160.303 20.6145 159.76 21.3633 158.953 21.4456C158.015 21.5526 157.242 20.705 156.304 20.7544C155.366 20.8037 154.715 21.5773 153.835 21.5773C153.177 21.5773 152.477 21.1082 151.909 21.4291C151.794 21.495 151.695 21.5855 151.588 21.6596C151.241 21.8196 150.86 21.892 150.479 21.8705C150.097 21.8489 149.726 21.7341 149.399 21.5361C148.744 21.1364 147.962 21.0011 147.21 21.1576C146.772 21.3785 146.385 21.6898 146.075 22.071C145.913 22.26 145.708 22.4078 145.478 22.5022C145.247 22.5967 144.998 22.635 144.75 22.6141C144.478 22.5565 144.256 22.3837 143.985 22.3179C143.162 22.1039 142.429 23.0092 141.565 23.2396C140.701 23.47 139.837 23.0585 139.096 23.4206C138.824 23.5605 138.612 23.7946 138.5 24.0793C138.388 24.3641 138.384 24.6799 138.488 24.9677C138.62 25.2508 138.819 25.4972 139.069 25.6852C139.319 25.8731 139.611 25.9969 139.919 26.0457C140.566 26.1598 141.23 26.1117 141.853 25.9058C142.348 25.6999 142.874 25.5803 143.409 25.552C144.635 25.5931 145.598 26.8604 146.799 26.5971C147.353 26.3913 147.857 26.0717 148.28 25.6589C148.976 25.159 149.81 24.8885 150.667 24.8854C151.23 24.9594 151.802 24.9288 152.354 24.7949C153.004 24.5315 153.374 23.8485 154.049 23.6675C154.724 23.4864 155.497 23.9226 156.246 23.8485C156.732 23.8074 157.184 23.5358 157.678 23.5111C158.377 23.47 159.011 23.9226 159.711 23.865C160.41 23.8074 161.027 23.2149 161.743 23.2725C162.023 23.3221 162.299 23.3965 162.566 23.4947C162.703 23.5428 162.849 23.5567 162.993 23.5352C163.136 23.5137 163.272 23.4574 163.389 23.3712C163.545 23.2231 163.595 22.9845 163.784 22.8775C163.935 22.814 164.101 22.7968 164.261 22.8281L166.582 23.0668L165.076 21.7748Z" fill="#263238"/>
<path d="M167.569 21.6925C166.788 21.1165 165.743 20.5157 164.862 21.0013C164.541 21.1741 164.302 21.4621 163.982 21.6184C163.241 21.9641 162.336 21.5115 161.562 21.7254C160.896 21.9147 160.451 22.5483 159.834 22.8364C158.838 23.3301 157.365 23.0421 156.756 23.9144C156.419 24.3917 156.361 25.157 155.777 25.2886C155.566 25.3099 155.352 25.2846 155.152 25.2146C154.44 25.0404 153.7 25.0179 152.979 25.1488C152.567 25.2037 152.178 25.3686 151.852 25.626C151.259 26.1609 151.243 27.0744 150.675 27.634C149.852 28.4569 148.313 28.0701 147.227 28.605C146.74 28.9119 146.295 29.2797 145.902 29.6995C145.034 30.3676 144.096 30.9388 143.104 31.4029C142.108 31.8614 141.255 32.5808 140.635 33.4849C140.347 33.9168 140.22 34.4369 140.277 34.9532C140.334 35.4696 140.572 35.9492 140.948 36.3075C141.138 36.4739 141.379 36.5711 141.632 36.583C141.884 36.595 142.134 36.5211 142.339 36.3733C142.462 36.2581 142.545 36.0935 142.66 35.9619C142.945 35.7375 143.272 35.5724 143.623 35.4764C143.96 35.3447 144.314 35.0896 144.314 34.744C144.314 34.53 144.19 34.2749 144.363 34.1268C144.44 34.0775 144.528 34.0491 144.618 34.0445C145.491 33.954 146.56 33.9951 147.029 33.2874C147.185 32.953 147.304 32.6026 147.383 32.2423C147.506 31.9467 147.699 31.6857 147.946 31.482C148.192 31.2782 148.485 31.1381 148.799 31.0737C149.334 30.9503 149.934 31.0326 150.362 30.7034C150.79 30.3743 150.864 29.6254 151.3 29.214C152.033 28.5227 153.481 29.0247 154.139 28.2758C154.304 28.0866 154.395 27.8479 154.6 27.708C155.193 27.3213 155.909 28.1195 156.608 27.9878C157.308 27.8561 157.431 27.1649 157.851 26.7699C158.475 26.3529 159.161 26.0364 159.883 25.8318C160.747 25.4121 161.373 24.5974 162.286 24.3258C163.109 24.0872 164.047 24.2518 164.632 23.6922C164.854 23.4782 165.01 23.1738 165.315 23.075C165.494 23.038 165.679 23.038 165.858 23.075C166.762 23.1933 167.679 23.008 168.466 22.5483L167.569 21.6925Z" fill="#263238"/>
<path d="M166.236 23.7827C165.242 23.6113 164.222 23.6706 163.255 23.956C162.288 24.2413 161.399 24.7451 160.657 25.4285C160.35 25.7548 159.995 26.0323 159.604 26.2514C158.937 26.4487 158.24 26.5267 157.546 26.4819C156.776 26.5668 156.047 26.8709 155.444 27.3581C154.842 27.8453 154.392 28.4951 154.148 29.2304C153.835 30.1768 153.72 31.4194 152.806 31.7485C152.634 31.7928 152.466 31.8535 152.304 31.9296C151.695 32.3081 152.115 33.2792 152.107 34.028C152.107 35.2624 150.724 36.11 150.675 37.3197C150.688 37.7737 150.797 38.2198 150.996 38.6281C151.473 39.8076 151.997 40.9597 152.568 42.0844C152.823 42.5863 153.16 43.1459 153.703 43.22C154.526 43.327 154.971 42.3971 155.201 41.5742C155.43 41.0268 155.448 40.4139 155.25 39.8543C155.02 39.4181 154.551 39.163 154.345 38.7104C154.024 37.9945 154.543 37.1962 154.913 36.5132C155.66 35.1263 155.885 33.5175 155.547 31.9789C156.37 31.8226 156.806 30.6541 157.661 30.4895C157.902 30.476 158.141 30.4458 158.377 30.3989C158.945 30.1685 159.011 29.3045 159.513 28.9506C160.015 28.5968 161.159 28.8683 161.439 28.1688C161.521 27.9467 161.48 27.6833 161.62 27.5023C161.735 27.3684 161.897 27.2832 162.072 27.2636L164.146 26.7452C164.549 26.68 164.929 26.5129 165.249 26.2597C165.784 25.7495 165.866 24.7784 166.541 24.5151L166.236 23.7827Z" fill="#263238"/>
<path d="M168.433 19.6599C168.351 18.442 168.121 16.9772 167.043 16.4834C166.409 16.1872 165.636 16.3435 165.01 16.0226C163.809 15.4219 163.71 13.4798 162.541 12.8626C161.373 12.2454 159.809 13.2 158.871 12.2948C158.386 11.8257 158.32 11.044 157.925 10.4926C157.659 10.1979 157.332 9.96436 156.967 9.80809C156.601 9.65182 156.207 9.57653 155.81 9.58739C155.024 9.62108 154.238 9.51522 153.489 9.27469C152.255 8.73157 151.465 7.20094 150.14 7.09396C149.013 7.01167 148.132 7.99918 147.424 8.90438C147.229 9.11905 147.09 9.37935 147.021 9.66146C147.01 9.9172 147.073 10.1706 147.203 10.3912C147.333 10.6117 147.524 10.7898 147.754 10.9041C148.651 11.4307 149.803 11.3484 150.634 11.9656C150.915 12.2277 151.215 12.4697 151.531 12.6898C152.008 12.9449 152.609 12.8873 153.07 13.1753C153.967 13.7267 153.95 15.2326 154.847 15.7922C155.744 16.3518 156.789 15.6934 157.76 15.9156C159.077 16.2283 159.801 18.0634 161.151 18.1128C161.74 18.0241 162.323 17.8949 162.895 17.726C163.281 17.702 163.665 17.7943 163.998 17.9908C164.331 18.1874 164.598 18.4793 164.763 18.8288C164.977 19.2896 165.01 19.8327 165.265 20.2771C165.433 20.5476 165.66 20.7764 165.93 20.9461C166.199 21.1157 166.504 21.2218 166.82 21.2564C167.442 21.3194 168.07 21.2833 168.68 21.1494L168.433 19.6599Z" fill="#263238"/>
<path d="M167.413 23.4535C166.59 21.8982 165.578 20.2359 163.891 19.5118C163 19.263 162.126 18.9579 161.274 18.5983C160.599 18.2033 160.122 17.5697 159.488 17.1171C158.015 16.072 155.983 16.1378 154.172 16.4258C152.362 16.7139 150.494 17.1665 148.716 16.7303C147.12 16.3353 145.729 15.2573 144.092 15.1585C143.197 15.161 142.31 15.314 141.466 15.6111L138.487 16.4341C138.163 16.4951 137.871 16.6703 137.665 16.9278C137.344 17.4627 137.969 18.0799 138.562 18.3268C139.534 18.7308 140.603 18.8451 141.639 18.6559C142.436 18.3964 143.27 18.2713 144.108 18.2856C144.666 18.4317 145.215 18.6076 145.754 18.8123C146.459 18.9359 147.18 18.9359 147.885 18.8123L151.177 18.4667C152.017 18.3039 152.886 18.378 153.687 18.6806C154.279 18.9686 154.748 19.5035 155.407 19.5858C156.065 19.6681 156.839 19.125 157.571 19.232C158.443 19.3719 158.879 20.3429 159.678 20.7132C160.616 21.1494 161.85 20.6392 162.755 21.1411C163.372 21.4785 163.636 22.1698 164.031 22.7376C164.361 23.2141 164.79 23.6128 165.29 23.9061C165.958 24.256 166.669 24.5161 167.405 24.6797L167.413 23.4535Z" fill="#263238"/>
<path d="M169.158 16.541C168.763 15.9979 168.162 15.4466 168.335 14.7882C168.417 14.4673 168.68 14.2039 168.738 13.8748C168.837 13.2823 168.236 12.8215 168.014 12.229C167.792 11.6364 168.014 10.7477 167.635 10.1387C167.257 9.52979 166.384 9.40635 165.66 9.22531C165.258 9.15639 164.879 8.98875 164.557 8.73743C164.235 8.48611 163.981 8.15894 163.817 7.78521C163.731 7.24111 163.698 6.68989 163.718 6.13937C163.59 5.43545 163.222 4.79736 162.678 4.33266C162.134 3.86797 161.446 3.60509 160.731 3.58833C160.314 3.62169 159.895 3.57419 159.497 3.44843C158.797 3.11927 158.674 2.22229 158.238 1.55572C157.97 1.0978 157.569 0.732162 157.088 0.507301C156.607 0.28244 156.07 0.208981 155.547 0.296662C155.053 0.395412 154.51 0.913849 154.798 1.32531C154.913 1.48989 155.127 1.55573 155.283 1.68739C155.843 2.16468 155.44 3.12749 155.769 3.77759C156.098 4.4277 157.151 4.60052 157.472 5.29177C157.719 5.82667 157.431 6.49322 157.661 7.03635C157.949 7.70291 158.814 7.85927 159.538 7.85927C160.262 7.85927 161.126 8.05677 161.398 8.68218C161.481 8.98819 161.528 9.30313 161.537 9.62031C161.585 9.89613 161.695 10.1574 161.859 10.3842C162.023 10.611 162.237 10.7973 162.484 10.9287C163.183 11.2826 164.13 11.2168 164.582 11.8833C165.035 12.5499 164.376 13.6937 164.796 14.4755C165.101 15.0433 165.833 15.1915 166.384 15.5371C166.517 15.6086 166.619 15.7254 166.672 15.8662C166.688 16.0185 166.653 16.1717 166.574 16.3024C166.138 17.1911 165.586 18.2116 166.006 19.1003C166.206 19.4467 166.462 19.758 166.763 20.022C167.662 20.9446 168.317 22.0755 168.672 23.3136L169.437 19.9644C169.696 19.4195 169.806 18.8162 169.757 18.2152C169.708 17.6142 169.501 17.0368 169.158 16.541Z" fill="#263238"/>
<path d="M173.404 5.23418C173.555 4.75572 173.541 4.24055 173.365 3.77077C173.189 3.30099 172.861 2.90362 172.433 2.642C172.212 2.52677 171.97 2.45943 171.721 2.44439C171.472 2.42935 171.223 2.46695 170.99 2.55473C170.757 2.6425 170.546 2.77846 170.369 2.95374C170.192 3.12902 170.054 3.33966 169.964 3.57188C169.635 4.66636 170.557 5.95012 169.964 6.93762C169.763 7.17473 169.594 7.43763 169.462 7.71939C169.256 8.44355 170.162 9.05251 170.17 9.80959C170.178 10.5667 169.125 11.1016 168.911 11.908C168.697 12.7145 169.594 13.809 169.256 14.7059C169.139 14.9478 168.993 15.1745 168.82 15.3807C167.857 16.7962 168.351 18.6724 168.878 20.3182L171.059 19.9973C170.655 18.4831 172.787 16.969 172.063 15.5865C171.717 14.9281 170.771 14.4508 170.984 13.7349C171.058 13.5488 171.17 13.3805 171.314 13.2411L173.346 11.0193C173.68 10.7241 173.908 10.3283 173.996 9.89189C174.087 8.92908 172.885 8.30365 172.729 7.34084C172.663 6.58376 173.182 5.9172 173.404 5.23418Z" fill="#263238"/>
<path d="M174.153 17.5779C173.947 16.862 173.017 16.648 172.285 16.755C170.26 17.0677 168.779 18.7629 167.487 20.3429C166.013 22.0479 164.675 23.8667 163.488 25.7824C163.207 26.1992 163.016 26.6701 162.928 27.1649C162.886 27.4124 162.911 27.6669 163 27.9014C163.09 28.136 163.241 28.3421 163.438 28.498C163.54 28.5688 163.654 28.6175 163.776 28.6409C163.897 28.6643 164.022 28.662 164.142 28.6341C164.262 28.6061 164.375 28.5532 164.474 28.4787C164.572 28.4043 164.654 28.3099 164.714 28.2018L165.315 28.0536C167.285 24.7158 169.897 21.8014 173.001 19.4788C173.634 18.9851 174.367 18.3185 174.153 17.5779Z" fill="#92B158"/>
<path d="M163.019 48.536C162.424 44.5435 162.174 40.5074 162.27 36.4721C162.376 32.4242 163.485 28.4659 165.496 24.9512C165.817 24.4246 168.335 21.0012 168.919 21.174C169.339 21.2975 167.553 24.6056 167.701 25.0171C169.067 28.9588 168.796 33.3285 167.701 37.3608C166.571 41.2561 165.009 45.0128 163.043 48.5607" fill="#263238"/>
<path d="M180.95 74.82C181.526 72.0303 181.987 69.8331 182.012 69.8331C182.036 69.8331 191.796 70.7383 194.281 61.3488C195.483 56.8146 197.186 47.277 198.634 38.6281C199.393 34.1384 198.432 29.5277 195.943 25.7149C193.454 21.9021 189.62 19.1671 185.204 18.0552L184.291 17.8248C174.35 15.9403 167.191 23.3219 165.578 33.3121L158.822 68.0721L174.309 84.3494L180.95 74.82Z" fill="#B2655F"/>
<path d="M182.012 69.8331C177.665 68.7288 173.727 66.4012 170.664 63.1263C170.664 63.1263 171.931 70.7301 181.534 72.2442L182.012 69.8331Z" fill="#8A4944"/>
<path d="M193.829 46.1002C193.744 46.4534 193.525 46.7594 193.217 46.9518C192.909 47.1443 192.537 47.2079 192.183 47.1288C192.008 47.0992 191.841 47.0349 191.692 46.9397C191.543 46.8445 191.414 46.7204 191.314 46.5746C191.213 46.4289 191.143 46.2645 191.107 46.0911C191.071 45.9177 191.07 45.739 191.105 45.5653C191.191 45.2131 191.411 44.9085 191.719 44.7164C192.026 44.5243 192.396 44.4598 192.751 44.5366C192.926 44.5652 193.093 44.6288 193.243 44.7237C193.393 44.8186 193.522 44.9427 193.623 45.0888C193.723 45.2348 193.794 45.3996 193.829 45.5734C193.864 45.7473 193.864 45.9264 193.829 46.1002Z" fill="#263238"/>
<path d="M195.639 42.0268C195.433 42.1584 194.602 41.1545 193.17 40.7924C191.738 40.4303 190.479 40.8911 190.364 40.669C190.315 40.5702 190.562 40.2986 191.105 40.0765C191.843 39.8056 192.647 39.7654 193.409 39.9613C194.162 40.1472 194.837 40.568 195.335 41.1627C195.705 41.6153 195.746 41.9692 195.639 42.0268Z" fill="#263238"/>
<path d="M180.703 43.5738C180.619 43.9275 180.399 44.2341 180.092 44.4279C179.784 44.6217 179.413 44.6873 179.057 44.6107C178.883 44.5811 178.716 44.5168 178.567 44.4216C178.417 44.3264 178.289 44.2023 178.188 44.0565C178.088 43.9108 178.017 43.7464 177.982 43.573C177.946 43.3996 177.945 43.2208 177.979 43.0472C178.064 42.6939 178.283 42.388 178.591 42.1955C178.899 42.003 179.271 41.9395 179.625 42.0185C179.799 42.0472 179.966 42.1105 180.115 42.2049C180.264 42.2992 180.393 42.4226 180.494 42.5677C180.594 42.7128 180.665 42.8766 180.701 43.0495C180.737 43.2223 180.738 43.4007 180.703 43.5738Z" fill="#263238"/>
<path d="M181.32 39.0478C181.106 39.1794 180.275 38.1755 178.852 37.8134C177.428 37.4513 176.161 37.9122 176.045 37.69C175.988 37.5995 176.235 37.3197 176.786 37.1057C177.52 36.8275 178.322 36.7844 179.082 36.9823C179.837 37.1638 180.513 37.5854 181.008 38.1837C181.353 38.6363 181.419 38.9737 181.32 39.0478Z" fill="#263238"/>
<path d="M183.715 51.4738C184.542 51.425 185.371 51.4803 186.184 51.6384C186.562 51.696 186.933 51.7125 187.056 51.4738C187.176 51.0964 187.176 50.691 187.056 50.3135C186.933 49.3343 186.809 48.3056 186.669 47.2276C186.159 42.8415 185.896 39.27 186.069 39.2535C186.241 39.2371 186.801 42.7756 187.311 47.1618C187.435 48.2398 187.542 49.2684 187.649 50.2559C187.769 50.76 187.707 51.2902 187.476 51.7536C187.388 51.8687 187.277 51.9631 187.149 52.03C187.021 52.0969 186.879 52.1346 186.735 52.1404C186.516 52.1487 186.297 52.1237 186.085 52.0663C185.273 51.9687 184.477 51.7697 183.715 51.4738Z" fill="#263238"/>
<path d="M179.247 51.408C179.485 51.4491 179.09 53.0538 180.16 54.4774C181.23 55.9011 182.941 56.1727 182.892 56.3949C182.843 56.617 182.448 56.6088 181.732 56.4524C180.81 56.2294 179.995 55.6909 179.428 54.9301C178.883 54.2014 178.644 53.2893 178.761 52.3872C178.827 51.7124 179.098 51.3668 179.247 51.408Z" fill="#263238"/>
<path d="M182.719 33.1557C182.472 33.5178 181.073 32.9665 179.329 32.7443C177.584 32.5221 176.087 32.6373 175.955 32.2258C175.897 32.0366 176.227 31.7239 176.877 31.4852C177.732 31.2 178.642 31.1155 179.535 31.2382C180.428 31.3609 181.281 31.6876 182.028 32.1929C182.588 32.5961 182.826 32.9829 182.719 33.1557Z" fill="#263238"/>
<path d="M196.256 37.0645C195.919 37.3279 195.005 36.7436 193.788 36.4227C192.57 36.1017 191.516 36.0853 191.368 35.6821C191.311 35.4928 191.549 35.2048 192.076 34.999C192.766 34.7789 193.507 34.7677 194.203 34.9669C194.9 35.166 195.523 35.5665 195.993 36.1182C196.355 36.5626 196.404 36.9329 196.256 37.0645Z" fill="#263238"/>
<path d="M164.599 40.5208C164.45 40.4139 158.608 36.9823 157.192 43.4669C155.777 49.9514 162.591 50.0502 162.64 49.8527C162.689 49.6552 164.599 40.5208 164.599 40.5208Z" fill="#B2655F"/>
<path d="M161.192 46.9643C161.192 46.9643 161.06 47.0219 160.854 47.063C160.569 47.1152 160.275 47.0564 160.031 46.8984C159.398 46.4952 159.06 45.2526 159.283 44.1087C159.384 43.5489 159.612 43.0196 159.949 42.5617C160.053 42.3718 160.202 42.2103 160.383 42.0912C160.563 41.9721 160.771 41.8991 160.986 41.8786C161.123 41.8713 161.259 41.9126 161.369 41.9954C161.479 42.0782 161.556 42.1971 161.587 42.3312C161.636 42.5287 161.587 42.6522 161.587 42.6686C161.587 42.6851 161.751 42.5946 161.76 42.3148C161.759 42.147 161.701 41.9845 161.595 41.854C161.521 41.7665 161.431 41.6946 161.329 41.6423C161.228 41.5901 161.117 41.5585 161.003 41.5495C160.725 41.5463 160.451 41.6133 160.207 41.7442C159.962 41.8751 159.755 42.0657 159.604 42.2983C159.195 42.7969 158.912 43.387 158.781 44.0182C158.542 45.3349 158.945 46.7092 159.826 47.1865C159.989 47.2728 160.17 47.322 160.355 47.3306C160.54 47.3391 160.725 47.3068 160.896 47.2358C161.142 47.1206 161.208 46.9807 161.192 46.9643Z" fill="#3E5902"/>
<path d="M196.676 26.9756C197.853 26.6135 195.4 22.5483 193.063 20.8367C189.525 18.2527 183.781 15.8991 179.963 16.1872C175.371 16.5081 171.314 17.9153 168.318 21.4127C165.381 24.9961 163.45 29.296 162.722 33.8716C162.381 35.2429 162.412 36.6804 162.813 38.0356C163.422 39.6814 164.977 40.9323 164.459 42.899C164.359 43.2527 164.332 43.6226 164.377 43.9871C164.422 44.3516 164.539 44.7035 164.722 45.0222C165.644 46.5363 167.347 45.6476 168.269 44.5942C170.227 42.3477 171.017 39.344 171.75 36.4474C172.388 34.4231 172.686 32.3068 172.63 30.185C172.54 29.0329 172.244 27.8973 172.211 26.7452C172.163 26.1684 172.24 25.5882 172.438 25.0442C172.635 24.5002 172.948 24.0053 173.355 23.5934C173.555 23.4374 173.766 23.2971 173.988 23.1737C175.06 22.5702 176.273 22.2635 177.502 22.2852C178.732 22.3069 179.933 22.6562 180.983 23.2972C184.373 25.3545 190.224 28.5885 192.117 27.6915C194.841 26.3913 195.647 25.3462 195.647 25.3462L196.676 26.9756Z" fill="#263238"/>
<path d="M127.493 137.674C127.66 137.578 127.836 137.501 128.02 137.444L129.559 136.843L135.369 134.671L155.481 127.264L155.365 127.544C153.72 123.915 151.876 119.965 149.984 115.875L147.21 109.827L147.433 109.942L127.288 113.036C123.621 114.067 120.117 115.608 116.878 117.612C115.726 118.319 114.862 118.928 114.269 119.34L113.611 119.817C113.54 119.88 113.46 119.93 113.372 119.965L113.578 119.776L114.211 119.266C114.779 118.821 115.635 118.188 116.779 117.455C120.003 115.379 123.513 113.785 127.197 112.724L147.334 109.58H147.49L147.564 109.72C148.461 111.687 149.399 113.711 150.346 115.768C152.222 119.883 154.041 123.808 155.703 127.445L155.802 127.643L155.588 127.725L135.418 134.967L129.575 137.032L128.012 137.567L127.493 137.674Z" fill="#263238"/>
<path d="M139.549 100.693C139.064 101.417 138.513 102.094 137.903 102.717C136.833 103.927 135.336 105.572 133.632 107.358C131.929 109.144 130.341 110.716 129.147 111.794C128.678 112.232 128.177 112.637 127.65 113.003C127.444 113.119 127.304 113.234 127.123 113.201C127.103 113.178 127.092 113.149 127.092 113.119C127.092 113.088 127.103 113.059 127.123 113.036V112.995C127.123 112.995 127.123 113.102 127.172 113.119C127.319 113.064 127.454 112.98 127.567 112.872C127.905 112.592 128.39 112.139 128.95 111.58C130.094 110.444 131.641 108.839 133.336 107.062L137.697 102.511C138.264 101.856 138.883 101.247 139.549 100.693Z" fill="#263238"/>
<path d="M143.466 92.562C143.376 92.562 143.639 91.27 143.639 89.1881C143.636 87.9745 143.532 86.7633 143.326 85.5672C142.828 82.6267 141.748 79.8151 140.15 77.2969C139.494 76.2711 138.756 75.2997 137.944 74.392C136.545 72.8532 135.476 72.0796 135.558 72.0138C135.83 72.1526 136.084 72.3239 136.315 72.524C136.604 72.7334 136.879 72.9615 137.138 73.207C137.498 73.5153 137.841 73.8422 138.167 74.1863C139.024 75.0795 139.798 76.049 140.479 77.083C141.302 78.3549 141.997 79.7056 142.553 81.1152C143.083 82.5362 143.474 84.0051 143.721 85.5014C143.909 86.7236 143.983 87.9604 143.943 89.1963C143.933 89.6696 143.897 90.1421 143.836 90.6117C143.81 90.9689 143.758 91.3237 143.68 91.6733C143.645 91.9771 143.573 92.2755 143.466 92.562Z" fill="#263238"/>
<path d="M164.434 153.927C164.434 153.853 165.471 153.927 167.133 153.927C171.474 153.827 175.711 152.577 179.411 150.306C180.827 149.483 181.633 148.792 181.682 148.849C181.732 148.907 181.518 149.055 181.164 149.368C180.659 149.797 180.128 150.195 179.576 150.561C177.744 151.777 175.741 152.715 173.634 153.343C171.524 153.963 169.333 154.262 167.133 154.231C166.47 154.227 165.807 154.181 165.15 154.091C164.905 154.07 164.664 154.015 164.434 153.927Z" fill="#263238"/>
<path d="M176.679 135.757C176.525 136.012 176.34 136.247 176.128 136.456C175.757 136.893 175.198 137.502 174.482 138.25C173.075 139.74 171.058 141.74 168.721 143.822C166.384 145.904 164.187 147.697 162.55 148.932C161.727 149.549 161.06 150.043 160.583 150.364C160.353 150.554 160.098 150.711 159.826 150.833C160.02 150.607 160.241 150.405 160.484 150.232L162.36 148.693C163.94 147.401 166.113 145.591 168.442 143.509C170.77 141.427 172.803 139.468 174.268 138.036L175.996 136.341C176.416 135.946 176.654 135.732 176.679 135.757Z" fill="#263238"/>
</svg>
